%TF.GenerationSoftware,KiCad,Pcbnew,10.0.1*%
%TF.CreationDate,2026-06-17T10:02:20+02:00*%
%TF.ProjectId,MMS3_hat_protcol_board_basic,4d4d5333-5f68-4617-945f-70726f74636f,1.1*%
%TF.SameCoordinates,Original*%
%TF.FileFunction,Soldermask,Bot*%
%TF.FilePolarity,Negative*%
%FSLAX46Y46*%
G04 Gerber Fmt 4.6, Leading zero omitted, Abs format (unit mm)*
G04 Created by KiCad (PCBNEW 10.0.1) date 2026-06-17 10:02:20*
%MOMM*%
%LPD*%
G01*
G04 APERTURE LIST*
G04 Aperture macros list*
%AMRoundRect*
0 Rectangle with rounded corners*
0 $1 Rounding radius*
0 $2 $3 $4 $5 $6 $7 $8 $9 X,Y pos of 4 corners*
0 Add a 4 corners polygon primitive as box body*
4,1,4,$2,$3,$4,$5,$6,$7,$8,$9,$2,$3,0*
0 Add four circle primitives for the rounded corners*
1,1,$1+$1,$2,$3*
1,1,$1+$1,$4,$5*
1,1,$1+$1,$6,$7*
1,1,$1+$1,$8,$9*
0 Add four rect primitives between the rounded corners*
20,1,$1+$1,$2,$3,$4,$5,0*
20,1,$1+$1,$4,$5,$6,$7,0*
20,1,$1+$1,$6,$7,$8,$9,0*
20,1,$1+$1,$8,$9,$2,$3,0*%
G04 Aperture macros list end*
%ADD10C,3.100000*%
%ADD11C,1.296000*%
%ADD12R,1.700000X1.700000*%
%ADD13C,1.700000*%
%ADD14C,2.700000*%
%ADD15RoundRect,0.250000X-0.600000X-0.725000X0.600000X-0.725000X0.600000X0.725000X-0.600000X0.725000X0*%
%ADD16O,1.700000X1.950000*%
%ADD17R,1.000000X3.150000*%
G04 APERTURE END LIST*
D10*
%TO.C,H1*%
X82000000Y-92000000D03*
%TD*%
D11*
%TO.C,H8*%
X168800000Y-89500000D03*
%TD*%
D12*
%TO.C,J3*%
X175900000Y-113880000D03*
D13*
X175900000Y-111340000D03*
X175900000Y-108800000D03*
X175900000Y-106260000D03*
%TD*%
D11*
%TO.C,H7*%
X87100000Y-134000000D03*
%TD*%
D14*
%TO.C,H6*%
X153000000Y-94000000D03*
%TD*%
%TO.C,H5*%
X103000000Y-94000000D03*
%TD*%
%TO.C,H2*%
X174000000Y-134000000D03*
%TD*%
D15*
%TO.C,J7*%
X95000000Y-134000000D03*
D16*
X97500000Y-134000000D03*
X100000000Y-134000000D03*
X102500000Y-134000000D03*
X105000000Y-134000000D03*
X107500000Y-134000000D03*
%TD*%
D15*
%TO.C,J4*%
X154250000Y-134505000D03*
D16*
X156750000Y-134505000D03*
X159250000Y-134505000D03*
X161750000Y-134505000D03*
%TD*%
D14*
%TO.C,H4*%
X174000000Y-92000000D03*
%TD*%
D15*
%TO.C,J11*%
X127125000Y-134230000D03*
D16*
X129625000Y-134230000D03*
X132125000Y-134230000D03*
X134625000Y-134230000D03*
%TD*%
D11*
%TO.C,H9*%
X87600000Y-89500000D03*
%TD*%
D14*
%TO.C,H3*%
X82000000Y-134000000D03*
%TD*%
D17*
%TO.C,J1*%
X108940000Y-93013272D03*
X108940000Y-98063272D03*
X111480000Y-93013272D03*
X111480000Y-98063272D03*
X114020000Y-93013272D03*
X114020000Y-98063272D03*
X116560000Y-93013272D03*
X116560000Y-98063272D03*
X119100000Y-93013272D03*
X119100000Y-98063272D03*
X121640000Y-93013272D03*
X121640000Y-98063272D03*
X124180000Y-93013272D03*
X124180000Y-98063272D03*
X126720000Y-93013272D03*
X126720000Y-98063272D03*
X129260000Y-93013272D03*
X129260000Y-98063272D03*
X131800000Y-93013272D03*
X131800000Y-98063272D03*
X134340000Y-93013272D03*
X134340000Y-98063272D03*
X136880000Y-93013272D03*
X136880000Y-98063272D03*
X139420000Y-93013272D03*
X139420000Y-98063272D03*
X141960000Y-93013272D03*
X141960000Y-98063272D03*
X144500000Y-93013272D03*
X144500000Y-98063272D03*
X147040000Y-93013272D03*
X147040000Y-98063272D03*
%TD*%
M02*
