M48
; DRILL file KiCad 10.0.1 date 2026-06-17T10:02:20
; FORMAT={-:-/ absolute / inch / decimal}
; #@! TF.CreationDate,2026-06-17T10:02:20+02:00
; #@! TF.GenerationSoftware,Kicad,Pcbnew,10.0.1
; #@! TF.FileFunction,Plated,1,2,PTH
FMAT,2
INCH
; #@! TA.AperFunction,Plated,PTH,ViaDrill
T1C0.0118
; #@! TA.AperFunction,Plated,PTH,ComponentDrill
T2C0.0118
; #@! TA.AperFunction,Plated,PTH,ComponentDrill
T3C0.0374
; #@! TA.AperFunction,Plated,PTH,ComponentDrill
T4C0.0394
; #@! TA.AperFunction,Plated,PTH,ComponentDrill
T5C0.1063
%
G90
G05
T1
X3.4843Y-4.7756
X3.4843Y-4.9331
X3.4843Y-5.1339
X3.4882Y-4.6535
X3.5079Y-5.3189
X3.6142Y-4.4291
X3.9055Y-5.2126
X3.9252Y-4.2362
X4.0039Y-5.2165
X4.0315Y-4.437
X4.0709Y-4.1457
X4.0787Y-4.437
X4.1024Y-5.2165
X4.1063Y-4.3346
X4.1693Y-4.4724
X4.189Y-4.437
X4.1969Y-4.0039
X4.2008Y-5.2165
X4.2638Y-5.2165
X4.3346Y-3.6201
X4.3346Y-3.6594
X4.3346Y-3.7008
X4.3406Y-3.8583
X4.439Y-3.622
X4.439Y-3.6555
X4.439Y-3.685
X4.439Y-3.7126
X4.439Y-3.8583
X4.4528Y-3.9685
X4.5374Y-3.8583
X4.5531Y-3.6122
X4.5531Y-3.6516
X4.5531Y-3.6929
X4.6358Y-3.8583
X4.7343Y-3.8583
X4.7382Y-3.6181
X4.7382Y-3.6575
X4.7382Y-3.6969
X4.748Y-3.9724
X4.8386Y-3.6201
X4.8386Y-3.6594
X4.8386Y-3.6988
X4.845Y-3.8608
X4.939Y-3.6201
X4.939Y-3.6594
X4.939Y-3.6988
X4.9434Y-3.8608
X5.0Y-3.9724
X5.0984Y-3.9606
X5.1142Y-4.2913
X5.1181Y-4.1102
X5.1299Y-3.8622
X5.1299Y-4.1772
X5.1378Y-3.6201
X5.1378Y-3.6594
X5.1378Y-3.7008
X5.1614Y-5.2283
X5.1693Y-4.315
X5.1693Y-4.3504
X5.2303Y-3.8602
X5.2323Y-5.2283
X5.2362Y-3.9528
X5.2382Y-3.624
X5.2382Y-3.6634
X5.2382Y-3.7047
X5.2559Y-4.2913
X5.2559Y-4.3504
X5.2717Y-5.2244
X5.2756Y-4.1575
X5.3031Y-4.126
X5.3031Y-4.2126
X5.3228Y-4.315
X5.3268Y-5.2283
X5.3307Y-3.8602
X5.3307Y-4.1614
X5.3386Y-3.622
X5.3386Y-3.6614
X5.3386Y-3.7028
X5.3504Y-4.2953
X5.3504Y-4.3504
X5.4094Y-4.0
X5.4272Y-3.8602
X5.4528Y-4.0512
X5.4528Y-4.1575
X5.5039Y-3.9528
X5.5295Y-3.8583
X5.5394Y-4.1732
X5.5669Y-4.1654
X5.6299Y-3.8583
X5.6417Y-4.1654
X5.6457Y-3.6634
X5.6535Y-4.0433
X5.6693Y-4.1654
X5.7008Y-4.1614
X5.7343Y-3.8563
X5.7913Y-4.1496
X5.8228Y-4.0354
X5.8327Y-3.6201
X5.8327Y-3.6594
X5.8327Y-3.7008
X5.8346Y-3.8602
X5.8661Y-4.0945
X5.9213Y-3.9843
X5.9921Y-3.9213
X5.9921Y-4.0315
X6.0748Y-3.8425
X6.0906Y-3.9685
X6.1535Y-3.7874
X6.1732Y-4.6614
X6.189Y-5.2244
X6.2205Y-4.5197
X6.2559Y-3.7244
X6.2835Y-5.2323
X6.2953Y-4.4213
X6.2992Y-4.5669
X6.315Y-4.1063
X6.315Y-4.1535
X6.315Y-4.2047
X6.315Y-4.2559
X6.3346Y-4.0512
X6.3425Y-4.4409
X6.3465Y-4.6614
X6.3465Y-5.2323
X6.3583Y-3.7795
X6.3583Y-3.9016
X6.3583Y-4.0
X6.3819Y-4.3307
X6.3898Y-4.1142
X6.3937Y-4.6142
X6.3976Y-4.3858
X6.4213Y-3.878
X6.4213Y-3.9685
X6.437Y-5.2402
X6.4567Y-4.0
X6.4606Y-4.5591
X6.4646Y-4.6142
X6.4882Y-4.6535
X6.4961Y-4.4252
X6.5Y-3.9764
X6.5354Y-5.3583
X6.5433Y-4.0512
X6.5433Y-4.1496
X6.5748Y-3.622
X6.5748Y-4.3189
X6.5787Y-3.9606
X6.622Y-3.7953
X6.6339Y-4.2047
X6.6339Y-4.2559
X6.6378Y-3.9055
X6.6457Y-5.2402
X6.6496Y-4.7402
X6.6575Y-4.5197
X6.6614Y-4.9646
X6.7205Y-4.2323
X6.7441Y-3.7717
X6.7795Y-4.0591
X6.8346Y-4.3583
X6.8346Y-4.5315
X6.8465Y-3.7992
T2
X6.2638Y-3.7913
X6.2638Y-3.8307
X6.2638Y-3.8701
T3
X3.7402Y-5.2756
X3.8386Y-5.2756
X3.937Y-5.2756
X4.0354Y-5.2756
X4.1339Y-5.2756
X4.2323Y-5.2756
X5.0049Y-5.2846
X5.1033Y-5.2846
X5.2018Y-5.2846
X5.3002Y-5.2846
X6.0728Y-5.2955
X6.1713Y-5.2955
X6.2697Y-5.2955
X6.3681Y-5.2955
T4
X6.9252Y-4.1835
X6.9252Y-4.2835
X6.9252Y-4.3835
X6.9252Y-4.4835
T5
X3.2283Y-3.622
M30
