%TF.GenerationSoftware,KiCad,Pcbnew,10.0.1*%
%TF.CreationDate,2026-06-17T10:02:20+02:00*%
%TF.ProjectId,MMS3_hat_protcol_board_basic,4d4d5333-5f68-4617-945f-70726f74636f,1.1*%
%TF.SameCoordinates,Original*%
%TF.FileFunction,Copper,L2,Bot*%
%TF.FilePolarity,Positive*%
%FSLAX46Y46*%
G04 Gerber Fmt 4.6, Leading zero omitted, Abs format (unit mm)*
G04 Created by KiCad (PCBNEW 10.0.1) date 2026-06-17 10:02:20*
%MOMM*%
%LPD*%
G01*
G04 APERTURE LIST*
G04 Aperture macros list*
%AMRoundRect*
0 Rectangle with rounded corners*
0 $1 Rounding radius*
0 $2 $3 $4 $5 $6 $7 $8 $9 X,Y pos of 4 corners*
0 Add a 4 corners polygon primitive as box body*
4,1,4,$2,$3,$4,$5,$6,$7,$8,$9,$2,$3,0*
0 Add four circle primitives for the rounded corners*
1,1,$1+$1,$2,$3*
1,1,$1+$1,$4,$5*
1,1,$1+$1,$6,$7*
1,1,$1+$1,$8,$9*
0 Add four rect primitives between the rounded corners*
20,1,$1+$1,$2,$3,$4,$5,0*
20,1,$1+$1,$4,$5,$6,$7,0*
20,1,$1+$1,$6,$7,$8,$9,0*
20,1,$1+$1,$8,$9,$2,$3,0*%
G04 Aperture macros list end*
%TA.AperFunction,ComponentPad*%
%ADD10C,0.500000*%
%TD*%
%TA.AperFunction,SMDPad,CuDef*%
%ADD11RoundRect,0.250000X-0.920000X-1.550000X0.920000X-1.550000X0.920000X1.550000X-0.920000X1.550000X0*%
%TD*%
%TA.AperFunction,ComponentPad*%
%ADD12C,3.100000*%
%TD*%
%TA.AperFunction,ComponentPad*%
%ADD13R,1.700000X1.700000*%
%TD*%
%TA.AperFunction,ComponentPad*%
%ADD14C,1.700000*%
%TD*%
%TA.AperFunction,ComponentPad*%
%ADD15RoundRect,0.250000X-0.600000X-0.725000X0.600000X-0.725000X0.600000X0.725000X-0.600000X0.725000X0*%
%TD*%
%TA.AperFunction,ComponentPad*%
%ADD16O,1.700000X1.950000*%
%TD*%
%TA.AperFunction,SMDPad,CuDef*%
%ADD17R,1.000000X3.150000*%
%TD*%
%TA.AperFunction,ViaPad*%
%ADD18C,0.500000*%
%TD*%
%TA.AperFunction,Conductor*%
%ADD19C,0.300000*%
%TD*%
%TA.AperFunction,Conductor*%
%ADD20C,0.200000*%
%TD*%
G04 APERTURE END LIST*
D10*
%TO.P,U3,4,VOUT_4*%
%TO.N,+3V3*%
X159100000Y-96300000D03*
X159100000Y-97300000D03*
D11*
X159100000Y-97300000D03*
D10*
X159100000Y-98300000D03*
%TD*%
D12*
%TO.P,H1,1,1_1*%
%TO.N,GND*%
X82000000Y-92000000D03*
%TD*%
D13*
%TO.P,J3,1,Pin_1_1*%
%TO.N,/Chainbus.SDA*%
X175900000Y-113880000D03*
D14*
%TO.P,J3,2,Pin_2_2*%
%TO.N,/Chainbus.SCL*%
X175900000Y-111340000D03*
%TO.P,J3,3,Pin_3_3*%
%TO.N,GND*%
X175900000Y-108800000D03*
%TO.P,J3,4,Pin_4_4*%
%TO.N,+3V3*%
X175900000Y-106260000D03*
%TD*%
D15*
%TO.P,J7,1,Pin_1_1*%
%TO.N,GND*%
X95000000Y-134000000D03*
D16*
%TO.P,J7,2,Pin_2_2*%
%TO.N,+3V3*%
X97500000Y-134000000D03*
%TO.P,J7,3,Pin_3_3*%
%TO.N,/Chainbus.SCK*%
X100000000Y-134000000D03*
%TO.P,J7,4,Pin_4_4*%
%TO.N,/Chainbus.MISO*%
X102500000Y-134000000D03*
%TO.P,J7,5,Pin_5_5*%
%TO.N,/Chainbus.MOSI*%
X105000000Y-134000000D03*
%TO.P,J7,6,Pin_6_6*%
%TO.N,/Chainbus.CS*%
X107500000Y-134000000D03*
%TD*%
D15*
%TO.P,J4,1,Pin_1_1*%
%TO.N,GND*%
X154250000Y-134505000D03*
D16*
%TO.P,J4,2,Pin_2_2*%
%TO.N,+3V3*%
X156750000Y-134505000D03*
%TO.P,J4,3,Pin_3_3*%
%TO.N,/Chainbus.SDA*%
X159250000Y-134505000D03*
%TO.P,J4,4,Pin_4_4*%
%TO.N,/Chainbus.SCL*%
X161750000Y-134505000D03*
%TD*%
D15*
%TO.P,J11,1,Pin_1_1*%
%TO.N,GND*%
X127125000Y-134230000D03*
D16*
%TO.P,J11,2,Pin_2_2*%
%TO.N,+3V3*%
X129625000Y-134230000D03*
%TO.P,J11,3,Pin_3_3*%
%TO.N,/Chainbus.RX*%
X132125000Y-134230000D03*
%TO.P,J11,4,Pin_4_4*%
%TO.N,/Chainbus.TX*%
X134625000Y-134230000D03*
%TD*%
D17*
%TO.P,J1,1,Pin_1_1*%
%TO.N,GND*%
X108940000Y-93013272D03*
%TO.P,J1,2,Pin_2_2*%
%TO.N,/Bus_switch/SEL1*%
X108940000Y-98063272D03*
%TO.P,J1,3,Pin_3_3*%
%TO.N,+5V*%
X111480000Y-93013272D03*
%TO.P,J1,4,Pin_4_4*%
%TO.N,/Interboard_connector/SEL2*%
X111480000Y-98063272D03*
%TO.P,J1,5,Pin_5_5*%
%TO.N,+5V*%
X114020000Y-93013272D03*
%TO.P,J1,6,Pin_6_6*%
%TO.N,/Interboard_connector/SEL3*%
X114020000Y-98063272D03*
%TO.P,J1,7,Pin_7_7*%
%TO.N,GND*%
X116560000Y-93013272D03*
%TO.P,J1,8,Pin_8_8*%
%TO.N,/Interboard_connector/SEL4*%
X116560000Y-98063272D03*
%TO.P,J1,9,Pin_9_9*%
%TO.N,BRD_VIN*%
X119100000Y-93013272D03*
%TO.P,J1,10,Pin_10_10*%
%TO.N,/Interboard_connector/SEL5*%
X119100000Y-98063272D03*
%TO.P,J1,11,Pin_11_11*%
%TO.N,BRD_VIN*%
X121640000Y-93013272D03*
%TO.P,J1,12,Pin_12_12*%
%TO.N,/Interboard_connector/SEL6*%
X121640000Y-98063272D03*
%TO.P,J1,13,Pin_13_13*%
%TO.N,BRD_VIN*%
X124180000Y-93013272D03*
%TO.P,J1,14,Pin_14_14*%
%TO.N,/Interboard_connector/SEL7*%
X124180000Y-98063272D03*
%TO.P,J1,15,Pin_15_15*%
%TO.N,BRD_VIN*%
X126720000Y-93013272D03*
%TO.P,J1,16,Pin_16_16*%
%TO.N,/Interboard_connector/SEL8*%
X126720000Y-98063272D03*
%TO.P,J1,17,Pin_17_17*%
%TO.N,GND*%
X129260000Y-93013272D03*
%TO.P,J1,18,Pin_18_18*%
%TO.N,/Bus_switch/Chainbus_In.SDA*%
X129260000Y-98063272D03*
%TO.P,J1,19,Pin_19_19*%
%TO.N,GND*%
X131800000Y-93013272D03*
%TO.P,J1,20,Pin_20_20*%
%TO.N,/Bus_switch/Chainbus_In.SCL*%
X131800000Y-98063272D03*
%TO.P,J1,21,Pin_21_21*%
%TO.N,GND*%
X134340000Y-93013272D03*
%TO.P,J1,22,Pin_22_22*%
%TO.N,/Bus_switch/Chainbus_In.CS*%
X134340000Y-98063272D03*
%TO.P,J1,23,Pin_23_23*%
%TO.N,GND*%
X136880000Y-93013272D03*
%TO.P,J1,24,Pin_24_24*%
%TO.N,/Bus_switch/Chainbus_In.SCK*%
X136880000Y-98063272D03*
%TO.P,J1,25,Pin_25_25*%
%TO.N,unconnected-(J1-Pin_25-Pad25)*%
X139420000Y-93013272D03*
%TO.P,J1,26,Pin_26_26*%
%TO.N,/Bus_switch/Chainbus_In.MOSI*%
X139420000Y-98063272D03*
%TO.P,J1,27,Pin_27_27*%
%TO.N,unconnected-(J1-Pin_27-Pad27)*%
X141960000Y-93013272D03*
%TO.P,J1,28,Pin_28_28*%
%TO.N,/Bus_switch/Chainbus_In.MISO*%
X141960000Y-98063272D03*
%TO.P,J1,29,Pin_29_29*%
%TO.N,+12V stby*%
X144500000Y-93013272D03*
%TO.P,J1,30,Pin_30_30*%
%TO.N,/Bus_switch/Chainbus_In.TX*%
X144500000Y-98063272D03*
%TO.P,J1,31,Pin_31_31*%
%TO.N,GND*%
X147040000Y-93013272D03*
%TO.P,J1,32,Pin_32_32*%
%TO.N,/Bus_switch/Chainbus_In.RX*%
X147040000Y-98063272D03*
%TD*%
D18*
%TO.N,GND*%
X166200000Y-102900000D03*
X158900000Y-94600000D03*
X133500000Y-109000000D03*
X150400000Y-101200000D03*
X133050000Y-92050000D03*
X163100000Y-100800000D03*
X167000000Y-109700000D03*
X139800000Y-100400000D03*
X115650000Y-93800000D03*
X115650000Y-91750000D03*
X108300000Y-132500000D03*
X168800000Y-133100000D03*
X110100000Y-92950000D03*
X101700000Y-132500000D03*
X106600000Y-101700000D03*
X160400000Y-106800000D03*
X148150000Y-92950000D03*
X173600000Y-110700000D03*
X132900000Y-132800000D03*
X134000000Y-105600000D03*
X160400000Y-108100000D03*
X135400000Y-105700000D03*
X113100000Y-100800000D03*
X166200000Y-105400000D03*
X168200000Y-96400000D03*
X130300000Y-106100000D03*
X88500000Y-125300000D03*
X138500000Y-105600000D03*
X130500000Y-94000000D03*
X156800000Y-118400000D03*
X149000000Y-104000000D03*
X130000000Y-104400000D03*
X131100000Y-132800000D03*
X157200000Y-132700000D03*
X160000000Y-116000000D03*
X168900000Y-120400000D03*
X89100000Y-135100000D03*
X160900000Y-102900000D03*
X172200000Y-103100000D03*
X168600000Y-99200000D03*
X133000000Y-100400000D03*
X105900000Y-113600000D03*
X104300000Y-110100000D03*
X129900000Y-109000000D03*
X165000000Y-112400000D03*
X88500000Y-130400000D03*
X161500000Y-99100000D03*
X143600000Y-102700000D03*
X161200000Y-132900000D03*
X170700000Y-107500000D03*
X148150000Y-94000000D03*
X158000000Y-114800000D03*
X160400000Y-104300000D03*
X131300000Y-110500000D03*
X138500000Y-102900000D03*
X148150000Y-91950000D03*
X167100000Y-100600000D03*
X154700000Y-100800000D03*
X159600000Y-132900000D03*
X164100000Y-115800000D03*
X152200000Y-99600000D03*
X135300000Y-132800000D03*
X147100000Y-105400000D03*
X120600000Y-100900000D03*
X160400000Y-105500000D03*
X88600000Y-118200000D03*
X173600000Y-115100000D03*
X115650000Y-92750000D03*
X161200000Y-118400000D03*
X171300000Y-95800000D03*
X163100000Y-98500000D03*
X135900000Y-110500000D03*
X110100000Y-91950000D03*
X133900000Y-132700000D03*
X156300000Y-96200000D03*
X99700000Y-107600000D03*
X133050000Y-94100000D03*
X102400000Y-112700000D03*
X166000000Y-136100000D03*
X130500000Y-92950000D03*
X106700000Y-132500000D03*
X161500000Y-96000000D03*
X91800000Y-112500000D03*
X154300000Y-97600000D03*
X129500000Y-100600000D03*
X135600000Y-92000000D03*
X165100000Y-101000000D03*
X164800000Y-118200000D03*
X162300000Y-104500000D03*
X169200000Y-126100000D03*
X88500000Y-121300000D03*
X135900000Y-109100000D03*
X104200000Y-132500000D03*
X159900000Y-112300000D03*
X133500000Y-110500000D03*
X127000000Y-100900000D03*
X169100000Y-114800000D03*
X135600000Y-94050000D03*
X173900000Y-96500000D03*
X135600000Y-93000000D03*
X167000000Y-92000000D03*
X110100000Y-94000000D03*
X133050000Y-93050000D03*
X163500000Y-133100000D03*
X130500000Y-91950000D03*
X162100000Y-110000000D03*
X103400000Y-105300000D03*
X99200000Y-132400000D03*
%TO.N,+3V3*%
X162400000Y-117200000D03*
X164200000Y-117200000D03*
%TO.N,+5V*%
X112750000Y-92000000D03*
X112750000Y-93600000D03*
X112750000Y-92850000D03*
X112750000Y-94300000D03*
%TO.N,/Bus_switch/SEL1*%
X161500000Y-101600000D03*
X164000000Y-101600000D03*
X152200000Y-102400000D03*
X140700000Y-106000000D03*
X144800000Y-105700000D03*
X147900000Y-102500000D03*
%TO.N,/Bus_switch/Chainbus_In.RX*%
X148200000Y-98050000D03*
%TO.N,/Bus_switch/Chainbus_In.TX*%
X145650000Y-97950000D03*
%TO.N,/Chainbus.TX*%
X134700000Y-107000000D03*
X134700000Y-104800000D03*
%TO.N,/Chainbus.MISO*%
X106400000Y-112700000D03*
X103600000Y-112700000D03*
%TO.N,/Bus_switch/Chainbus_In.MISO*%
X143000000Y-98000000D03*
%TO.N,/Bus_switch/Chainbus_In.MOSI*%
X140450000Y-98000000D03*
%TO.N,/Bus_switch/Chainbus_In.SCK*%
X137850000Y-98050000D03*
%TO.N,/Bus_switch/Chainbus_In.CS*%
X141400000Y-105800000D03*
X137400000Y-101600000D03*
X135400000Y-98050000D03*
%TO.N,/Chainbus.CS*%
X135200000Y-109600000D03*
X131300000Y-109600000D03*
%TO.N,/Chainbus.SDA*%
X162500000Y-111400000D03*
X161100000Y-112800000D03*
X168500000Y-108100000D03*
%TO.N,/Bus_switch/Chainbus_In.SDA*%
X130300000Y-98100000D03*
X143300000Y-105800000D03*
%TO.N,/Bus_switch/Chainbus_In.SCL*%
X132850000Y-98050000D03*
X144000000Y-105800000D03*
%TO.N,/Chainbus.SCL*%
X168500000Y-106800000D03*
%TO.N,/Interboard_connector/SEL2*%
X110250000Y-98000000D03*
%TO.N,/Interboard_connector/SEL3*%
X112750000Y-98000000D03*
%TO.N,/Interboard_connector/SEL4*%
X115250000Y-98000000D03*
%TO.N,/Interboard_connector/SEL5*%
X117750000Y-98000000D03*
%TO.N,BRD_VIN*%
X122900000Y-92950000D03*
X120350000Y-93900000D03*
X125450000Y-91950000D03*
X120350000Y-92900000D03*
X122900000Y-93950000D03*
X125450000Y-92950000D03*
X120350000Y-91900000D03*
X122900000Y-91950000D03*
X125450000Y-93950000D03*
%TO.N,/Interboard_connector/SEL6*%
X120250000Y-98000000D03*
%TO.N,/Interboard_connector/SEL7*%
X123063272Y-98063272D03*
%TO.N,/Interboard_connector/SEL8*%
X125563272Y-98063272D03*
%TO.N,+12V stby*%
X143400000Y-93050000D03*
%TD*%
%TO.N,+3V3*%
D19*
X162400000Y-117200000D02*
X164200000Y-117200000D01*
%TO.N,/Bus_switch/SEL1*%
D20*
X128140000Y-96640000D02*
X127180000Y-95680000D01*
X140700000Y-106000000D02*
X141000000Y-106300000D01*
X128140000Y-100770000D02*
X128140000Y-96640000D01*
X164000000Y-101600000D02*
X161500000Y-101600000D01*
X144800000Y-105707107D02*
X144207107Y-106300000D01*
X140700000Y-106000000D02*
X140400000Y-106000000D01*
X127180000Y-95680000D02*
X111323272Y-95680000D01*
X147900000Y-102607107D02*
X147900000Y-102500000D01*
X144800000Y-105700000D02*
X144800000Y-105707107D01*
X141000000Y-106300000D02*
X144207107Y-106300000D01*
X128919000Y-101549000D02*
X128140000Y-100770000D01*
X135949000Y-101549000D02*
X128919000Y-101549000D01*
X152200000Y-102400000D02*
X148000000Y-102400000D01*
X140400000Y-106000000D02*
X135949000Y-101549000D01*
X111323272Y-95680000D02*
X108940000Y-98063272D01*
X148000000Y-102400000D02*
X147900000Y-102500000D01*
%TO.N,/Bus_switch/Chainbus_In.RX*%
X148200000Y-98050000D02*
X147053272Y-98050000D01*
%TO.N,/Bus_switch/Chainbus_In.TX*%
X145536728Y-98063272D02*
X145650000Y-97950000D01*
X144500000Y-98063272D02*
X145536728Y-98063272D01*
%TO.N,/Chainbus.TX*%
X134700000Y-104800000D02*
X134700000Y-107000000D01*
%TO.N,/Chainbus.MISO*%
X106400000Y-112700000D02*
X103600000Y-112700000D01*
%TO.N,/Bus_switch/Chainbus_In.MISO*%
X141960000Y-98063272D02*
X142936728Y-98063272D01*
X142936728Y-98063272D02*
X143000000Y-98000000D01*
%TO.N,/Bus_switch/Chainbus_In.MOSI*%
X140450000Y-98000000D02*
X139483272Y-98000000D01*
%TO.N,/Bus_switch/Chainbus_In.SCK*%
X137850000Y-98050000D02*
X136893272Y-98050000D01*
%TO.N,/Bus_switch/Chainbus_In.CS*%
X138400000Y-101600000D02*
X137400000Y-101600000D01*
X141400000Y-105800000D02*
X141400000Y-104600000D01*
X135400000Y-98050000D02*
X134353272Y-98050000D01*
X141400000Y-104600000D02*
X138400000Y-101600000D01*
%TO.N,/Chainbus.CS*%
X135200000Y-109600000D02*
X131300000Y-109600000D01*
%TO.N,/Chainbus.SDA*%
X161100000Y-112800000D02*
X162500000Y-111400000D01*
X174280000Y-113880000D02*
X175900000Y-113880000D01*
X168500000Y-108100000D02*
X174280000Y-113880000D01*
%TO.N,/Bus_switch/Chainbus_In.SDA*%
X130300000Y-98100000D02*
X129296728Y-98100000D01*
X129260000Y-98063272D02*
X132196728Y-101000000D01*
X132196728Y-101000000D02*
X138500000Y-101000000D01*
X138500000Y-101000000D02*
X143300000Y-105800000D01*
%TO.N,/Bus_switch/Chainbus_In.SCL*%
X132850000Y-98050000D02*
X131813272Y-98050000D01*
X134236728Y-100500000D02*
X131800000Y-98063272D01*
X144000000Y-105800000D02*
X144000000Y-105500000D01*
X144000000Y-105500000D02*
X139000000Y-100500000D01*
X139000000Y-100500000D02*
X134236728Y-100500000D01*
%TO.N,/Chainbus.SCL*%
X175900000Y-111340000D02*
X171360000Y-106800000D01*
X171360000Y-106800000D02*
X168500000Y-106800000D01*
%TO.N,/Interboard_connector/SEL2*%
X110313272Y-98063272D02*
X110250000Y-98000000D01*
X111480000Y-98063272D02*
X110313272Y-98063272D01*
%TO.N,/Interboard_connector/SEL3*%
X114020000Y-98063272D02*
X112813272Y-98063272D01*
X112813272Y-98063272D02*
X112750000Y-98000000D01*
%TO.N,/Interboard_connector/SEL4*%
X115313272Y-98063272D02*
X115250000Y-98000000D01*
X116560000Y-98063272D02*
X115313272Y-98063272D01*
%TO.N,/Interboard_connector/SEL5*%
X117813272Y-98063272D02*
X117750000Y-98000000D01*
X119100000Y-98063272D02*
X117813272Y-98063272D01*
%TO.N,/Interboard_connector/SEL6*%
X120313272Y-98063272D02*
X120250000Y-98000000D01*
X121640000Y-98063272D02*
X120313272Y-98063272D01*
%TO.N,/Interboard_connector/SEL7*%
X124180000Y-98063272D02*
X123063272Y-98063272D01*
%TO.N,/Interboard_connector/SEL8*%
X126720000Y-98063272D02*
X125563272Y-98063272D01*
%TO.N,+12V stby*%
D19*
X143436728Y-93013272D02*
X143400000Y-93050000D01*
X144500000Y-93013272D02*
X143436728Y-93013272D01*
%TD*%
%TA.AperFunction,Conductor*%
%TO.N,GND*%
G36*
X117243039Y-91319685D02*
G01*
X117288794Y-91372489D01*
X117300000Y-91424000D01*
X117300000Y-94326000D01*
X117280315Y-94393039D01*
X117227511Y-94438794D01*
X117176000Y-94450000D01*
X115374000Y-94450000D01*
X115306961Y-94430315D01*
X115261206Y-94377511D01*
X115250000Y-94326000D01*
X115250000Y-91424000D01*
X115269685Y-91356961D01*
X115322489Y-91311206D01*
X115374000Y-91300000D01*
X117176000Y-91300000D01*
X117243039Y-91319685D01*
G37*
%TD.AperFunction*%
%TD*%
%TA.AperFunction,Conductor*%
%TO.N,GND*%
G36*
X136869361Y-101305521D02*
G01*
X136882680Y-101309432D01*
X136941458Y-101347206D01*
X136970484Y-101410761D01*
X136971694Y-101419176D01*
X136968731Y-101468917D01*
X136949500Y-101540689D01*
X136949500Y-101540691D01*
X136949500Y-101659309D01*
X136980201Y-101773886D01*
X137023857Y-101849500D01*
X137030191Y-101860470D01*
X137046664Y-101928370D01*
X137033409Y-101966667D01*
X137068682Y-101953511D01*
X137136955Y-101968363D01*
X137139486Y-101969784D01*
X137226114Y-102019799D01*
X137340691Y-102050500D01*
X137340694Y-102050500D01*
X137459306Y-102050500D01*
X137459309Y-102050500D01*
X137573886Y-102019799D01*
X137676613Y-101960489D01*
X137687683Y-101949418D01*
X137715928Y-101928275D01*
X137739020Y-101915667D01*
X137798445Y-101900500D01*
X138206337Y-101900500D01*
X138241269Y-101905521D01*
X138266513Y-101912934D01*
X138319259Y-101944230D01*
X141050574Y-104675545D01*
X141071723Y-104703796D01*
X141084331Y-104726885D01*
X141099500Y-104786314D01*
X141099500Y-105394203D01*
X141094476Y-105429140D01*
X141092301Y-105436543D01*
X141091298Y-105441327D01*
X141089488Y-105440947D01*
X141064565Y-105497685D01*
X141057370Y-105505527D01*
X141039510Y-105523387D01*
X141034566Y-105529832D01*
X141033796Y-105529241D01*
X141031659Y-105534682D01*
X141011558Y-105553345D01*
X141006270Y-105559199D01*
X141004256Y-105560651D01*
X141002573Y-105561769D01*
X141002149Y-105562172D01*
X140998828Y-105564570D01*
X140968752Y-105575194D01*
X140945314Y-105584774D01*
X140945591Y-105586211D01*
X140943096Y-105586691D01*
X140940778Y-105586629D01*
X140938969Y-105587369D01*
X140934873Y-105587791D01*
X140934810Y-105587184D01*
X140932948Y-105587842D01*
X140926156Y-105586240D01*
X140889796Y-105585272D01*
X140889655Y-105585237D01*
X140877787Y-105581332D01*
X140877729Y-105581505D01*
X140873889Y-105580201D01*
X140864497Y-105577684D01*
X140864494Y-105577684D01*
X140759309Y-105549500D01*
X140759308Y-105549500D01*
X140640689Y-105549500D01*
X140566049Y-105569499D01*
X140561505Y-105570625D01*
X140517498Y-105580652D01*
X140517395Y-105580403D01*
X140498548Y-105584970D01*
X140497636Y-105585178D01*
X140463639Y-105583082D01*
X140429503Y-105581447D01*
X140421122Y-105578544D01*
X140374026Y-105549055D01*
X136989847Y-102164876D01*
X136956362Y-102103553D01*
X136961025Y-102038339D01*
X136899338Y-102044230D01*
X136837235Y-102012215D01*
X136835123Y-102010152D01*
X136349759Y-101524788D01*
X136328610Y-101496538D01*
X136323188Y-101486608D01*
X136308335Y-101418338D01*
X136332749Y-101352873D01*
X136388679Y-101311001D01*
X136392887Y-101309432D01*
X136395894Y-101308311D01*
X136439208Y-101300500D01*
X136834429Y-101300500D01*
X136869361Y-101305521D01*
G37*
%TD.AperFunction*%
%TA.AperFunction,Conductor*%
G36*
X130139186Y-99382282D02*
G01*
X130146172Y-99385472D01*
X130182342Y-99410585D01*
X131795968Y-101024211D01*
X131805980Y-101037585D01*
X131817117Y-101052461D01*
X131822538Y-101062388D01*
X131837392Y-101130661D01*
X131812978Y-101196126D01*
X131757046Y-101237999D01*
X131757042Y-101238001D01*
X131749854Y-101240682D01*
X131706520Y-101248500D01*
X129112663Y-101248500D01*
X129077727Y-101243477D01*
X129052485Y-101236065D01*
X128999740Y-101204769D01*
X128489426Y-100694455D01*
X128489421Y-100694450D01*
X128468274Y-100666199D01*
X128455667Y-100643110D01*
X128440500Y-100583685D01*
X128440500Y-99915744D01*
X128445521Y-99880816D01*
X128446075Y-99878927D01*
X128449358Y-99867746D01*
X128487128Y-99808969D01*
X128550682Y-99779940D01*
X128612705Y-99786886D01*
X128620424Y-99789845D01*
X128644940Y-99802530D01*
X128681768Y-99827139D01*
X128681770Y-99827140D01*
X128732614Y-99837252D01*
X128735340Y-99837975D01*
X128740249Y-99838772D01*
X129779750Y-99838772D01*
X129783873Y-99838772D01*
X129791732Y-99836388D01*
X129811381Y-99832480D01*
X129826258Y-99829521D01*
X129832354Y-99828920D01*
X129832386Y-99828911D01*
X129843311Y-99826174D01*
X129853515Y-99816926D01*
X129904552Y-99782824D01*
X129948867Y-99716503D01*
X129948867Y-99716501D01*
X129948868Y-99716501D01*
X129951030Y-99705627D01*
X129951166Y-99705362D01*
X129951249Y-99704528D01*
X129960068Y-99660189D01*
X129960500Y-99658203D01*
X129960500Y-99505934D01*
X129965521Y-99471007D01*
X129968707Y-99460154D01*
X130006477Y-99401373D01*
X130070031Y-99372344D01*
X130139186Y-99382282D01*
G37*
%TD.AperFunction*%
%TA.AperFunction,Conductor*%
G36*
X132679186Y-99382282D02*
G01*
X132686172Y-99385472D01*
X132722342Y-99410585D01*
X133786968Y-100475211D01*
X133808117Y-100503461D01*
X133813538Y-100513388D01*
X133817328Y-100530811D01*
X133825874Y-100546461D01*
X133824602Y-100564242D01*
X133828392Y-100581661D01*
X133822161Y-100598366D01*
X133820890Y-100616152D01*
X133810207Y-100630422D01*
X133803978Y-100647126D01*
X133789704Y-100657811D01*
X133779019Y-100672086D01*
X133748042Y-100689001D01*
X133740854Y-100691682D01*
X133697520Y-100699500D01*
X132390391Y-100699500D01*
X132355455Y-100694477D01*
X132330213Y-100687065D01*
X132277468Y-100655769D01*
X131684759Y-100063060D01*
X131663610Y-100034810D01*
X131658188Y-100024880D01*
X131643335Y-99956610D01*
X131667749Y-99891145D01*
X131723679Y-99849273D01*
X131727558Y-99847826D01*
X131730894Y-99846583D01*
X131774208Y-99838772D01*
X132323873Y-99838772D01*
X132331732Y-99836388D01*
X132351381Y-99832480D01*
X132366258Y-99829521D01*
X132372354Y-99828920D01*
X132372386Y-99828911D01*
X132383311Y-99826174D01*
X132393515Y-99816926D01*
X132444552Y-99782824D01*
X132488867Y-99716503D01*
X132488867Y-99716501D01*
X132488868Y-99716501D01*
X132491030Y-99705627D01*
X132491166Y-99705362D01*
X132491249Y-99704528D01*
X132500068Y-99660189D01*
X132500500Y-99658203D01*
X132500500Y-99505934D01*
X132505521Y-99471007D01*
X132508707Y-99460154D01*
X132546477Y-99401373D01*
X132610031Y-99372344D01*
X132679186Y-99382282D01*
G37*
%TD.AperFunction*%
%TA.AperFunction,Conductor*%
G36*
X86493106Y-88505523D02*
G01*
X86508104Y-88509927D01*
X86523094Y-88519557D01*
X86540175Y-88524567D01*
X86566855Y-88547672D01*
X86568042Y-88549041D01*
X86595518Y-88603902D01*
X86597163Y-88611460D01*
X86600000Y-88637831D01*
X86600000Y-90500000D01*
X88600000Y-90500000D01*
X88600000Y-88642329D01*
X88605023Y-88607393D01*
X88609427Y-88592395D01*
X88647172Y-88533644D01*
X88647200Y-88533619D01*
X88647199Y-88533619D01*
X88648541Y-88532456D01*
X88703420Y-88504977D01*
X88710979Y-88503333D01*
X88737332Y-88500500D01*
X167658171Y-88500500D01*
X167693106Y-88505523D01*
X167708104Y-88509927D01*
X167766855Y-88547672D01*
X167766879Y-88547700D01*
X167766882Y-88547702D01*
X167766883Y-88547704D01*
X167768042Y-88549041D01*
X167795518Y-88603902D01*
X167797163Y-88611460D01*
X167800000Y-88637831D01*
X167800000Y-90500000D01*
X169800000Y-90500000D01*
X169800000Y-88642329D01*
X169805023Y-88607393D01*
X169809427Y-88592395D01*
X169847172Y-88533644D01*
X169847200Y-88533619D01*
X169847199Y-88533619D01*
X169848541Y-88532456D01*
X169903420Y-88504977D01*
X169910979Y-88503333D01*
X169937332Y-88500500D01*
X177357671Y-88500500D01*
X177392606Y-88505523D01*
X177407604Y-88509927D01*
X177466355Y-88547672D01*
X177466379Y-88547700D01*
X177466382Y-88547702D01*
X177466383Y-88547704D01*
X177467542Y-88549041D01*
X177495018Y-88603902D01*
X177496663Y-88611460D01*
X177499500Y-88637831D01*
X177499500Y-137357670D01*
X177494475Y-137392614D01*
X177490070Y-137407612D01*
X177480439Y-137422601D01*
X177475432Y-137439675D01*
X177452327Y-137466355D01*
X177450958Y-137467542D01*
X177396097Y-137495018D01*
X177388539Y-137496663D01*
X177362168Y-137499500D01*
X78642330Y-137499500D01*
X78607389Y-137494475D01*
X78592390Y-137490070D01*
X78577402Y-137480440D01*
X78560324Y-137475432D01*
X78533644Y-137452327D01*
X78532457Y-137450958D01*
X78504977Y-137396083D01*
X78503332Y-137388521D01*
X78500500Y-137362168D01*
X78500500Y-133874038D01*
X80399500Y-133874038D01*
X80399500Y-134125962D01*
X80415736Y-134228469D01*
X80423349Y-134276535D01*
X80423349Y-134276536D01*
X80438909Y-134374785D01*
X80513077Y-134603047D01*
X80516760Y-134614383D01*
X80577436Y-134733465D01*
X80616834Y-134810788D01*
X80631132Y-134838848D01*
X80631135Y-134838853D01*
X80751837Y-135004986D01*
X80779201Y-135042649D01*
X80779205Y-135042654D01*
X80779210Y-135042660D01*
X80957338Y-135220788D01*
X80957342Y-135220791D01*
X80957345Y-135220794D01*
X80957350Y-135220798D01*
X81065888Y-135299655D01*
X81161155Y-135368870D01*
X81304184Y-135441747D01*
X81304183Y-135441747D01*
X81340752Y-135460379D01*
X81382775Y-135481791D01*
X81386488Y-135483684D01*
X81390243Y-135484743D01*
X81600780Y-135553150D01*
X81625215Y-135561090D01*
X81874038Y-135600500D01*
X81874039Y-135600500D01*
X82125961Y-135600500D01*
X82125962Y-135600500D01*
X82374785Y-135561090D01*
X82614379Y-135483241D01*
X82838845Y-135368870D01*
X83042656Y-135220793D01*
X83220793Y-135042656D01*
X83251784Y-135000000D01*
X86100000Y-135000000D01*
X88100000Y-135000000D01*
X88100000Y-133225007D01*
X93650000Y-133225007D01*
X93650000Y-133225012D01*
X93650000Y-133225013D01*
X93650000Y-133750000D01*
X94413631Y-133750000D01*
X94480670Y-133769685D01*
X94526425Y-133822489D01*
X94536369Y-133891647D01*
X94533406Y-133906092D01*
X94525000Y-133937463D01*
X94525000Y-134062536D01*
X94533406Y-134093908D01*
X94531743Y-134163758D01*
X94492579Y-134221620D01*
X94428351Y-134249123D01*
X94413631Y-134250000D01*
X93650001Y-134250000D01*
X93650001Y-134774995D01*
X93660493Y-134877694D01*
X93660493Y-134877695D01*
X93660494Y-134877697D01*
X93666924Y-134897100D01*
X93715157Y-135042660D01*
X93715641Y-135044119D01*
X93715643Y-135044124D01*
X93807684Y-135193345D01*
X93931654Y-135317315D01*
X94080875Y-135409356D01*
X94080880Y-135409358D01*
X94247299Y-135464504D01*
X94247300Y-135464504D01*
X94247302Y-135464505D01*
X94247309Y-135464506D01*
X94350019Y-135474999D01*
X94749999Y-135474999D01*
X94750000Y-135474998D01*
X94750000Y-134586368D01*
X94769685Y-134519329D01*
X94822489Y-134473574D01*
X94891647Y-134463630D01*
X94906086Y-134466592D01*
X94937465Y-134475000D01*
X95062533Y-134475000D01*
X95062535Y-134475000D01*
X95093906Y-134466594D01*
X95163755Y-134468255D01*
X95221618Y-134507417D01*
X95249123Y-134571645D01*
X95250000Y-134586368D01*
X95250000Y-135474999D01*
X95649960Y-135474999D01*
X95649972Y-135474999D01*
X95649986Y-135474998D01*
X95752697Y-135464505D01*
X95919119Y-135409358D01*
X95919124Y-135409356D01*
X96068345Y-135317315D01*
X96192315Y-135193345D01*
X96284356Y-135044124D01*
X96284358Y-135044119D01*
X96339505Y-134877697D01*
X96339506Y-134877690D01*
X96349999Y-134774986D01*
X96349999Y-134721354D01*
X96353550Y-134707238D01*
X96352656Y-134695821D01*
X96355015Y-134686442D01*
X96358208Y-134675567D01*
X96363650Y-134667100D01*
X96364765Y-134662669D01*
X96370074Y-134652787D01*
X96378033Y-134644718D01*
X96395981Y-134616791D01*
X96413457Y-134608809D01*
X96419142Y-134603047D01*
X96432787Y-134599981D01*
X96459536Y-134587765D01*
X96476385Y-134590185D01*
X96487312Y-134587731D01*
X96505476Y-134594365D01*
X96528673Y-134597698D01*
X96530797Y-134598668D01*
X96540981Y-134607332D01*
X96552941Y-134611701D01*
X96565395Y-134628105D01*
X96582410Y-134642581D01*
X96684023Y-134794657D01*
X96830336Y-134940970D01*
X96830340Y-134940973D01*
X96830342Y-134940975D01*
X96830345Y-134940977D01*
X96830349Y-134940980D01*
X96830348Y-134940980D01*
X96830411Y-134941032D01*
X96830448Y-134941046D01*
X97002402Y-135055941D01*
X97193580Y-135135130D01*
X97357166Y-135167669D01*
X97373786Y-135170975D01*
X97393559Y-135174908D01*
X97395794Y-135175409D01*
X97396532Y-135175500D01*
X97603466Y-135175500D01*
X97607586Y-135175500D01*
X97615435Y-135173118D01*
X97806420Y-135135130D01*
X97997598Y-135055941D01*
X98169655Y-134940977D01*
X98315977Y-134794655D01*
X98430941Y-134622598D01*
X98510130Y-134431420D01*
X98550499Y-134228471D01*
X98949499Y-134228471D01*
X98986274Y-134413345D01*
X98989868Y-134431412D01*
X98989870Y-134431420D01*
X99009993Y-134480000D01*
X99060960Y-134603047D01*
X99069058Y-134622596D01*
X99184023Y-134794655D01*
X99184027Y-134794661D01*
X99330336Y-134940970D01*
X99330340Y-134940973D01*
X99330342Y-134940975D01*
X99330345Y-134940977D01*
X99330349Y-134940980D01*
X99330348Y-134940980D01*
X99330411Y-134941032D01*
X99330448Y-134941046D01*
X99502402Y-135055941D01*
X99693580Y-135135130D01*
X99857166Y-135167669D01*
X99873786Y-135170975D01*
X99893559Y-135174908D01*
X99895794Y-135175409D01*
X99896532Y-135175500D01*
X100103466Y-135175500D01*
X100107586Y-135175500D01*
X100115435Y-135173118D01*
X100306420Y-135135130D01*
X100497598Y-135055941D01*
X100669655Y-134940977D01*
X100815977Y-134794655D01*
X100930941Y-134622598D01*
X101010130Y-134431420D01*
X101050499Y-134228471D01*
X101449499Y-134228471D01*
X101486274Y-134413345D01*
X101489868Y-134431412D01*
X101489870Y-134431420D01*
X101509993Y-134480000D01*
X101560960Y-134603047D01*
X101569058Y-134622596D01*
X101684023Y-134794655D01*
X101684027Y-134794661D01*
X101830336Y-134940970D01*
X101830340Y-134940973D01*
X101830342Y-134940975D01*
X101830345Y-134940977D01*
X101830349Y-134940980D01*
X101830348Y-134940980D01*
X101830411Y-134941032D01*
X101830448Y-134941046D01*
X102002402Y-135055941D01*
X102193580Y-135135130D01*
X102357166Y-135167669D01*
X102373786Y-135170975D01*
X102393559Y-135174908D01*
X102395794Y-135175409D01*
X102396532Y-135175500D01*
X102603466Y-135175500D01*
X102607586Y-135175500D01*
X102615435Y-135173118D01*
X102806420Y-135135130D01*
X102997598Y-135055941D01*
X103169655Y-134940977D01*
X103315977Y-134794655D01*
X103430941Y-134622598D01*
X103510130Y-134431420D01*
X103550499Y-134228471D01*
X103949499Y-134228471D01*
X103986274Y-134413345D01*
X103989868Y-134431412D01*
X103989870Y-134431420D01*
X104009993Y-134480000D01*
X104060960Y-134603047D01*
X104069058Y-134622596D01*
X104184023Y-134794655D01*
X104184027Y-134794661D01*
X104330336Y-134940970D01*
X104330340Y-134940973D01*
X104330342Y-134940975D01*
X104330345Y-134940977D01*
X104330349Y-134940980D01*
X104330348Y-134940980D01*
X104330411Y-134941032D01*
X104330448Y-134941046D01*
X104502402Y-135055941D01*
X104693580Y-135135130D01*
X104857166Y-135167669D01*
X104873786Y-135170975D01*
X104893559Y-135174908D01*
X104895794Y-135175409D01*
X104896532Y-135175500D01*
X105103466Y-135175500D01*
X105107586Y-135175500D01*
X105115435Y-135173118D01*
X105306420Y-135135130D01*
X105497598Y-135055941D01*
X105669655Y-134940977D01*
X105815977Y-134794655D01*
X105930941Y-134622598D01*
X106010130Y-134431420D01*
X106050499Y-134228471D01*
X106449499Y-134228471D01*
X106486274Y-134413345D01*
X106489868Y-134431412D01*
X106489870Y-134431420D01*
X106509993Y-134480000D01*
X106560960Y-134603047D01*
X106569058Y-134622596D01*
X106684023Y-134794655D01*
X106684027Y-134794661D01*
X106830336Y-134940970D01*
X106830340Y-134940973D01*
X106830342Y-134940975D01*
X106830345Y-134940977D01*
X106830349Y-134940980D01*
X106830348Y-134940980D01*
X106830411Y-134941032D01*
X106830448Y-134941046D01*
X107002402Y-135055941D01*
X107193580Y-135135130D01*
X107357166Y-135167669D01*
X107373786Y-135170975D01*
X107393559Y-135174908D01*
X107395794Y-135175409D01*
X107396532Y-135175500D01*
X107603466Y-135175500D01*
X107607586Y-135175500D01*
X107615435Y-135173118D01*
X107806420Y-135135130D01*
X107997598Y-135055941D01*
X108169655Y-134940977D01*
X108315977Y-134794655D01*
X108430941Y-134622598D01*
X108510130Y-134431420D01*
X108513726Y-134413343D01*
X108515496Y-134404446D01*
X108515496Y-134404445D01*
X108540938Y-134276535D01*
X108550500Y-134228465D01*
X108550500Y-133771535D01*
X108510130Y-133568580D01*
X108463086Y-133455007D01*
X125775000Y-133455007D01*
X125775000Y-133455012D01*
X125775000Y-133455013D01*
X125775000Y-133980000D01*
X126538631Y-133980000D01*
X126605670Y-133999685D01*
X126651425Y-134052489D01*
X126661369Y-134121647D01*
X126658406Y-134136092D01*
X126650000Y-134167463D01*
X126650000Y-134292536D01*
X126658406Y-134323908D01*
X126656743Y-134393758D01*
X126617579Y-134451620D01*
X126553351Y-134479123D01*
X126538631Y-134480000D01*
X125775001Y-134480000D01*
X125775001Y-135004995D01*
X125785493Y-135107694D01*
X125785493Y-135107695D01*
X125785494Y-135107697D01*
X125802092Y-135157787D01*
X125820135Y-135212238D01*
X125840641Y-135274119D01*
X125840643Y-135274124D01*
X125932684Y-135423345D01*
X126056654Y-135547315D01*
X126205875Y-135639356D01*
X126205880Y-135639358D01*
X126372299Y-135694504D01*
X126372300Y-135694504D01*
X126372302Y-135694505D01*
X126372309Y-135694506D01*
X126475019Y-135704999D01*
X126874999Y-135704999D01*
X126875000Y-135704998D01*
X126875000Y-134816368D01*
X126894685Y-134749329D01*
X126947489Y-134703574D01*
X127016647Y-134693630D01*
X127031086Y-134696592D01*
X127062465Y-134705000D01*
X127187533Y-134705000D01*
X127187535Y-134705000D01*
X127218906Y-134696594D01*
X127288755Y-134698255D01*
X127346618Y-134737417D01*
X127374123Y-134801645D01*
X127375000Y-134816368D01*
X127375000Y-135704999D01*
X127774960Y-135704999D01*
X127774972Y-135704999D01*
X127774986Y-135704998D01*
X127877697Y-135694505D01*
X128044119Y-135639358D01*
X128044124Y-135639356D01*
X128193345Y-135547315D01*
X128317315Y-135423345D01*
X128409356Y-135274124D01*
X128409358Y-135274119D01*
X128464505Y-135107697D01*
X128464506Y-135107690D01*
X128474999Y-135004986D01*
X128474999Y-134951354D01*
X128478550Y-134937238D01*
X128477656Y-134925821D01*
X128480015Y-134916442D01*
X128483208Y-134905567D01*
X128488650Y-134897100D01*
X128489765Y-134892669D01*
X128495074Y-134882787D01*
X128503033Y-134874718D01*
X128520981Y-134846791D01*
X128538457Y-134838809D01*
X128544142Y-134833047D01*
X128557787Y-134829981D01*
X128584536Y-134817765D01*
X128601385Y-134820185D01*
X128612312Y-134817731D01*
X128630476Y-134824365D01*
X128653673Y-134827698D01*
X128655797Y-134828668D01*
X128665981Y-134837332D01*
X128677941Y-134841701D01*
X128690395Y-134858105D01*
X128707410Y-134872581D01*
X128809023Y-135024657D01*
X128955336Y-135170970D01*
X128955342Y-135170975D01*
X128955349Y-135170980D01*
X128955348Y-135170980D01*
X128955411Y-135171032D01*
X128955448Y-135171046D01*
X129127402Y-135285941D01*
X129318580Y-135365130D01*
X129509540Y-135403114D01*
X129518559Y-135404908D01*
X129520794Y-135405409D01*
X129521532Y-135405500D01*
X129728466Y-135405500D01*
X129732586Y-135405500D01*
X129740435Y-135403118D01*
X129931420Y-135365130D01*
X130122598Y-135285941D01*
X130294655Y-135170977D01*
X130440977Y-135024655D01*
X130555941Y-134852598D01*
X130635130Y-134661420D01*
X130675499Y-134458471D01*
X131074499Y-134458471D01*
X131109910Y-134636488D01*
X131114868Y-134661412D01*
X131114870Y-134661420D01*
X131188363Y-134838848D01*
X131189545Y-134841701D01*
X131194060Y-134852601D01*
X131215771Y-134885092D01*
X131215772Y-134885095D01*
X131309022Y-135024655D01*
X131309028Y-135024662D01*
X131455336Y-135170970D01*
X131455342Y-135170975D01*
X131455349Y-135170980D01*
X131455348Y-135170980D01*
X131455411Y-135171032D01*
X131455448Y-135171046D01*
X131627402Y-135285941D01*
X131818580Y-135365130D01*
X132009540Y-135403114D01*
X132018559Y-135404908D01*
X132020794Y-135405409D01*
X132021532Y-135405500D01*
X132228466Y-135405500D01*
X132232586Y-135405500D01*
X132240435Y-135403118D01*
X132431420Y-135365130D01*
X132622598Y-135285941D01*
X132794655Y-135170977D01*
X132940977Y-135024655D01*
X133055941Y-134852598D01*
X133135130Y-134661420D01*
X133175499Y-134458471D01*
X133574499Y-134458471D01*
X133609910Y-134636488D01*
X133614868Y-134661412D01*
X133614870Y-134661420D01*
X133688363Y-134838848D01*
X133689545Y-134841701D01*
X133694060Y-134852601D01*
X133715771Y-134885092D01*
X133715772Y-134885095D01*
X133809022Y-135024655D01*
X133809028Y-135024662D01*
X133955336Y-135170970D01*
X133955342Y-135170975D01*
X133955349Y-135170980D01*
X133955348Y-135170980D01*
X133955411Y-135171032D01*
X133955448Y-135171046D01*
X134127402Y-135285941D01*
X134318580Y-135365130D01*
X134509540Y-135403114D01*
X134518559Y-135404908D01*
X134520794Y-135405409D01*
X134521532Y-135405500D01*
X134728466Y-135405500D01*
X134732586Y-135405500D01*
X134740435Y-135403118D01*
X134931420Y-135365130D01*
X135122598Y-135285941D01*
X135294655Y-135170977D01*
X135440977Y-135024655D01*
X135555941Y-134852598D01*
X135635130Y-134661420D01*
X135675500Y-134458465D01*
X135675500Y-134001535D01*
X135662755Y-133937463D01*
X135635131Y-133798584D01*
X135635129Y-133798579D01*
X135635128Y-133798575D01*
X135630489Y-133787374D01*
X135630489Y-133787375D01*
X135630487Y-133787370D01*
X135625080Y-133774316D01*
X135606726Y-133730007D01*
X152900000Y-133730007D01*
X152900000Y-133730012D01*
X152900000Y-133730013D01*
X152900000Y-134255000D01*
X153663631Y-134255000D01*
X153730670Y-134274685D01*
X153776425Y-134327489D01*
X153786369Y-134396647D01*
X153783406Y-134411092D01*
X153775000Y-134442463D01*
X153775000Y-134567536D01*
X153783406Y-134598908D01*
X153781743Y-134668758D01*
X153742579Y-134726620D01*
X153678351Y-134754123D01*
X153663631Y-134755000D01*
X152900001Y-134755000D01*
X152900001Y-135279995D01*
X152910493Y-135382694D01*
X152910493Y-135382695D01*
X152910494Y-135382697D01*
X152923964Y-135423346D01*
X152965042Y-135547313D01*
X152965641Y-135549119D01*
X152965643Y-135549124D01*
X153057684Y-135698345D01*
X153181654Y-135822315D01*
X153330875Y-135914356D01*
X153330880Y-135914358D01*
X153497299Y-135969504D01*
X153497300Y-135969504D01*
X153497302Y-135969505D01*
X153497309Y-135969506D01*
X153600019Y-135979999D01*
X153999999Y-135979999D01*
X154000000Y-135979998D01*
X154000000Y-135091368D01*
X154019685Y-135024329D01*
X154072489Y-134978574D01*
X154141647Y-134968630D01*
X154156086Y-134971592D01*
X154187465Y-134980000D01*
X154312533Y-134980000D01*
X154312535Y-134980000D01*
X154343906Y-134971594D01*
X154413755Y-134973255D01*
X154471618Y-135012417D01*
X154499123Y-135076645D01*
X154500000Y-135091368D01*
X154500000Y-135979999D01*
X154899960Y-135979999D01*
X154899972Y-135979999D01*
X154899986Y-135979998D01*
X155002697Y-135969505D01*
X155169119Y-135914358D01*
X155169124Y-135914356D01*
X155318345Y-135822315D01*
X155442315Y-135698345D01*
X155534356Y-135549124D01*
X155534358Y-135549119D01*
X155589505Y-135382697D01*
X155589506Y-135382690D01*
X155599999Y-135279986D01*
X155599999Y-135226354D01*
X155603550Y-135212238D01*
X155602656Y-135200821D01*
X155605015Y-135191442D01*
X155608208Y-135180567D01*
X155613650Y-135172100D01*
X155614765Y-135167669D01*
X155620074Y-135157787D01*
X155628033Y-135149718D01*
X155645981Y-135121791D01*
X155663457Y-135113809D01*
X155669142Y-135108047D01*
X155682787Y-135104981D01*
X155709536Y-135092765D01*
X155726385Y-135095185D01*
X155737312Y-135092731D01*
X155755476Y-135099365D01*
X155778673Y-135102698D01*
X155780797Y-135103668D01*
X155790981Y-135112332D01*
X155802941Y-135116701D01*
X155815395Y-135133105D01*
X155832410Y-135147581D01*
X155934022Y-135299655D01*
X155934026Y-135299660D01*
X156080336Y-135445970D01*
X156080340Y-135445973D01*
X156080342Y-135445975D01*
X156080345Y-135445977D01*
X156080349Y-135445980D01*
X156080348Y-135445980D01*
X156080411Y-135446032D01*
X156080448Y-135446046D01*
X156252402Y-135560941D01*
X156443580Y-135640130D01*
X156634540Y-135678114D01*
X156643559Y-135679908D01*
X156645794Y-135680409D01*
X156646532Y-135680500D01*
X156853466Y-135680500D01*
X156857586Y-135680500D01*
X156865435Y-135678118D01*
X157056420Y-135640130D01*
X157247598Y-135560941D01*
X157419655Y-135445977D01*
X157565977Y-135299655D01*
X157680941Y-135127598D01*
X157760130Y-134936420D01*
X157800500Y-134733465D01*
X157800500Y-134276535D01*
X157800498Y-134276527D01*
X158199500Y-134276527D01*
X158199500Y-134733471D01*
X158239864Y-134936394D01*
X158239870Y-134936421D01*
X158305857Y-135095729D01*
X158319057Y-135127594D01*
X158319065Y-135127610D01*
X158373133Y-135208528D01*
X158434020Y-135299652D01*
X158434026Y-135299660D01*
X158580336Y-135445970D01*
X158580340Y-135445973D01*
X158580342Y-135445975D01*
X158580345Y-135445977D01*
X158580349Y-135445980D01*
X158580348Y-135445980D01*
X158580411Y-135446032D01*
X158580448Y-135446046D01*
X158752402Y-135560941D01*
X158943580Y-135640130D01*
X159134540Y-135678114D01*
X159143559Y-135679908D01*
X159145794Y-135680409D01*
X159146532Y-135680500D01*
X159353466Y-135680500D01*
X159357586Y-135680500D01*
X159365435Y-135678118D01*
X159556420Y-135640130D01*
X159747598Y-135560941D01*
X159919655Y-135445977D01*
X160065977Y-135299655D01*
X160180941Y-135127598D01*
X160260130Y-134936420D01*
X160300500Y-134733465D01*
X160300500Y-134276535D01*
X160300498Y-134276527D01*
X160699500Y-134276527D01*
X160699500Y-134733471D01*
X160739864Y-134936394D01*
X160739870Y-134936421D01*
X160805857Y-135095729D01*
X160819057Y-135127594D01*
X160819065Y-135127610D01*
X160873133Y-135208528D01*
X160934020Y-135299652D01*
X160934026Y-135299660D01*
X161080336Y-135445970D01*
X161080340Y-135445973D01*
X161080342Y-135445975D01*
X161080345Y-135445977D01*
X161080349Y-135445980D01*
X161080348Y-135445980D01*
X161080411Y-135446032D01*
X161080448Y-135446046D01*
X161252402Y-135560941D01*
X161443580Y-135640130D01*
X161634540Y-135678114D01*
X161643559Y-135679908D01*
X161645794Y-135680409D01*
X161646532Y-135680500D01*
X161853466Y-135680500D01*
X161857586Y-135680500D01*
X161865435Y-135678118D01*
X162056420Y-135640130D01*
X162247598Y-135560941D01*
X162419655Y-135445977D01*
X162565977Y-135299655D01*
X162680941Y-135127598D01*
X162760130Y-134936420D01*
X162800500Y-134733465D01*
X162800500Y-134276535D01*
X162800500Y-134276530D01*
X162764173Y-134093908D01*
X162760130Y-134073580D01*
X162680941Y-133882402D01*
X162675352Y-133874038D01*
X172399500Y-133874038D01*
X172399500Y-134125962D01*
X172415736Y-134228469D01*
X172423349Y-134276535D01*
X172423349Y-134276536D01*
X172438909Y-134374785D01*
X172513077Y-134603047D01*
X172516760Y-134614383D01*
X172577436Y-134733465D01*
X172616834Y-134810788D01*
X172631132Y-134838848D01*
X172631135Y-134838853D01*
X172751837Y-135004986D01*
X172779201Y-135042649D01*
X172779205Y-135042654D01*
X172779210Y-135042660D01*
X172957338Y-135220788D01*
X172957342Y-135220791D01*
X172957345Y-135220794D01*
X172957350Y-135220798D01*
X173065888Y-135299655D01*
X173161155Y-135368870D01*
X173304184Y-135441747D01*
X173304183Y-135441747D01*
X173340752Y-135460379D01*
X173382775Y-135481791D01*
X173386488Y-135483684D01*
X173390243Y-135484743D01*
X173600780Y-135553150D01*
X173625215Y-135561090D01*
X173874038Y-135600500D01*
X173874039Y-135600500D01*
X174125961Y-135600500D01*
X174125962Y-135600500D01*
X174374785Y-135561090D01*
X174614379Y-135483241D01*
X174838845Y-135368870D01*
X175042656Y-135220793D01*
X175220793Y-135042656D01*
X175368870Y-134838845D01*
X175483241Y-134614379D01*
X175561090Y-134374785D01*
X175600500Y-134125962D01*
X175600500Y-133874038D01*
X175561090Y-133625215D01*
X175561089Y-133625211D01*
X175561089Y-133625210D01*
X175485853Y-133393659D01*
X175485851Y-133393654D01*
X175483241Y-133385621D01*
X175483239Y-133385618D01*
X175483239Y-133385616D01*
X175481000Y-133381222D01*
X175480690Y-133380427D01*
X175479956Y-133379173D01*
X175434022Y-133289023D01*
X175368870Y-133161155D01*
X175321273Y-133095643D01*
X175220798Y-132957350D01*
X175220794Y-132957345D01*
X175220790Y-132957341D01*
X175220788Y-132957338D01*
X175042660Y-132779210D01*
X175042655Y-132779206D01*
X175042654Y-132779205D01*
X175042649Y-132779201D01*
X174838848Y-132631132D01*
X174838847Y-132631131D01*
X174838845Y-132631130D01*
X174759381Y-132590641D01*
X174614383Y-132516760D01*
X174614380Y-132516759D01*
X174374787Y-132438910D01*
X174208903Y-132412636D01*
X174125962Y-132399500D01*
X174125961Y-132399500D01*
X173874039Y-132399500D01*
X173874038Y-132399500D01*
X173791096Y-132412636D01*
X173625212Y-132438910D01*
X173625209Y-132438910D01*
X173385619Y-132516759D01*
X173385616Y-132516760D01*
X173176248Y-132623439D01*
X173161147Y-132631134D01*
X172957367Y-132779188D01*
X172957338Y-132779210D01*
X172779210Y-132957338D01*
X172779188Y-132957367D01*
X172631134Y-133161147D01*
X172631132Y-133161151D01*
X172516760Y-133385616D01*
X172516759Y-133385618D01*
X172516759Y-133385619D01*
X172438910Y-133625209D01*
X172438910Y-133625212D01*
X172415295Y-133774316D01*
X172413227Y-133787370D01*
X172399500Y-133874038D01*
X162675352Y-133874038D01*
X162566046Y-133710449D01*
X162566036Y-133710417D01*
X162565980Y-133710348D01*
X162565980Y-133710349D01*
X162565977Y-133710345D01*
X162565975Y-133710342D01*
X162565972Y-133710339D01*
X162565970Y-133710336D01*
X162419659Y-133564025D01*
X162326043Y-133501474D01*
X162326044Y-133501474D01*
X162322815Y-133499317D01*
X162247598Y-133449059D01*
X162214482Y-133435342D01*
X162206803Y-133432161D01*
X162206801Y-133432160D01*
X162101937Y-133388724D01*
X162056420Y-133369870D01*
X162056412Y-133369868D01*
X162056404Y-133369866D01*
X162056394Y-133369864D01*
X161853471Y-133329500D01*
X161853469Y-133329500D01*
X161853465Y-133329500D01*
X161646535Y-133329500D01*
X161646530Y-133329500D01*
X161646528Y-133329500D01*
X161443604Y-133369864D01*
X161443579Y-133369870D01*
X161252404Y-133449057D01*
X161080337Y-133564027D01*
X160934027Y-133710337D01*
X160819057Y-133882404D01*
X160739870Y-134073579D01*
X160739864Y-134073604D01*
X160699500Y-134276527D01*
X160300498Y-134276527D01*
X160264173Y-134093908D01*
X160260130Y-134073580D01*
X160180941Y-133882402D01*
X160066046Y-133710449D01*
X160066036Y-133710417D01*
X160065980Y-133710348D01*
X160065980Y-133710349D01*
X160065977Y-133710345D01*
X160065975Y-133710342D01*
X160065972Y-133710339D01*
X160065970Y-133710336D01*
X159919659Y-133564025D01*
X159826043Y-133501474D01*
X159826044Y-133501474D01*
X159822815Y-133499317D01*
X159747598Y-133449059D01*
X159714482Y-133435342D01*
X159706803Y-133432161D01*
X159706801Y-133432160D01*
X159601937Y-133388724D01*
X159556420Y-133369870D01*
X159556412Y-133369868D01*
X159556404Y-133369866D01*
X159556394Y-133369864D01*
X159353471Y-133329500D01*
X159353469Y-133329500D01*
X159353465Y-133329500D01*
X159146535Y-133329500D01*
X159146530Y-133329500D01*
X159146528Y-133329500D01*
X158943604Y-133369864D01*
X158943579Y-133369870D01*
X158752404Y-133449057D01*
X158580337Y-133564027D01*
X158434027Y-133710337D01*
X158319057Y-133882404D01*
X158239870Y-134073579D01*
X158239864Y-134073604D01*
X158199500Y-134276527D01*
X157800498Y-134276527D01*
X157764173Y-134093908D01*
X157760130Y-134073580D01*
X157680941Y-133882402D01*
X157566046Y-133710449D01*
X157566036Y-133710417D01*
X157565980Y-133710348D01*
X157565980Y-133710349D01*
X157565977Y-133710345D01*
X157565975Y-133710342D01*
X157565972Y-133710339D01*
X157565970Y-133710336D01*
X157419659Y-133564025D01*
X157326043Y-133501474D01*
X157326044Y-133501474D01*
X157322815Y-133499317D01*
X157247598Y-133449059D01*
X157214482Y-133435342D01*
X157206803Y-133432161D01*
X157206801Y-133432160D01*
X157101937Y-133388724D01*
X157056420Y-133369870D01*
X157056412Y-133369868D01*
X157056404Y-133369866D01*
X157056394Y-133369864D01*
X156853471Y-133329500D01*
X156853469Y-133329500D01*
X156853465Y-133329500D01*
X156646535Y-133329500D01*
X156646530Y-133329500D01*
X156646528Y-133329500D01*
X156443604Y-133369864D01*
X156443579Y-133369870D01*
X156252404Y-133449057D01*
X156080337Y-133564027D01*
X155934025Y-133710339D01*
X155837004Y-133855543D01*
X155826202Y-133865310D01*
X155820600Y-133875305D01*
X155813421Y-133881798D01*
X155804745Y-133889049D01*
X155795505Y-133893070D01*
X155792112Y-133896140D01*
X155782209Y-133901405D01*
X155771111Y-133903689D01*
X155740682Y-133916936D01*
X155721707Y-133913861D01*
X155713775Y-133915495D01*
X155700728Y-133910462D01*
X155671711Y-133905761D01*
X155659043Y-133894383D01*
X155648587Y-133890350D01*
X155637166Y-133874734D01*
X155619735Y-133859078D01*
X155618508Y-133857092D01*
X155614854Y-133844226D01*
X155607341Y-133833953D01*
X155606101Y-133813405D01*
X155599999Y-133791917D01*
X155599999Y-133730036D01*
X155599999Y-133730028D01*
X155599998Y-133730012D01*
X155589505Y-133627302D01*
X155534358Y-133460880D01*
X155534356Y-133460875D01*
X155442315Y-133311654D01*
X155318345Y-133187684D01*
X155169124Y-133095643D01*
X155169119Y-133095641D01*
X155166774Y-133094864D01*
X155002699Y-133040494D01*
X155002694Y-133040493D01*
X154899991Y-133030000D01*
X154899986Y-133030000D01*
X154500000Y-133030000D01*
X154500000Y-133918631D01*
X154480315Y-133985670D01*
X154427511Y-134031425D01*
X154358353Y-134041369D01*
X154343908Y-134038406D01*
X154312536Y-134030000D01*
X154312535Y-134030000D01*
X154187465Y-134030000D01*
X154187463Y-134030000D01*
X154156092Y-134038406D01*
X154086242Y-134036743D01*
X154028380Y-133997579D01*
X154000877Y-133933351D01*
X154000000Y-133918631D01*
X154000000Y-133030000D01*
X153600028Y-133030000D01*
X153600012Y-133030001D01*
X153600002Y-133030001D01*
X153600002Y-133030002D01*
X153497304Y-133040493D01*
X153497302Y-133040494D01*
X153330887Y-133095638D01*
X153330879Y-133095641D01*
X153330877Y-133095642D01*
X153330875Y-133095643D01*
X153287651Y-133122304D01*
X153181652Y-133187685D01*
X153057685Y-133311652D01*
X153057684Y-133311654D01*
X152969250Y-133455028D01*
X152965641Y-133460879D01*
X152965638Y-133460888D01*
X152910494Y-133627299D01*
X152910493Y-133627304D01*
X152900000Y-133730007D01*
X135606726Y-133730007D01*
X135568972Y-133638861D01*
X135555943Y-133607405D01*
X135555938Y-133607396D01*
X135440975Y-133435342D01*
X135440972Y-133435338D01*
X135294659Y-133289025D01*
X135169421Y-133205345D01*
X135169408Y-133205336D01*
X135122598Y-133174059D01*
X135122595Y-133174057D01*
X135122594Y-133174057D01*
X135091446Y-133161155D01*
X135091445Y-133161155D01*
X134931420Y-133094870D01*
X134931412Y-133094868D01*
X134931404Y-133094866D01*
X134931394Y-133094864D01*
X134728471Y-133054500D01*
X134728469Y-133054500D01*
X134728465Y-133054500D01*
X134521535Y-133054500D01*
X134521530Y-133054500D01*
X134521528Y-133054500D01*
X134318604Y-133094864D01*
X134318579Y-133094870D01*
X134127404Y-133174057D01*
X133955337Y-133289027D01*
X133809027Y-133435337D01*
X133694057Y-133607404D01*
X133614870Y-133798579D01*
X133614864Y-133798604D01*
X133574500Y-134001527D01*
X133574500Y-134001528D01*
X133574500Y-134001530D01*
X133574500Y-134458469D01*
X133574500Y-134458471D01*
X133574499Y-134458471D01*
X133175499Y-134458471D01*
X133175500Y-134458465D01*
X133175500Y-134001535D01*
X133175498Y-134001527D01*
X133153125Y-133889049D01*
X133135130Y-133798580D01*
X133055941Y-133607402D01*
X132941046Y-133435449D01*
X132941036Y-133435417D01*
X132940980Y-133435348D01*
X132940980Y-133435349D01*
X132940975Y-133435342D01*
X132940970Y-133435336D01*
X132794659Y-133289025D01*
X132669421Y-133205345D01*
X132669408Y-133205336D01*
X132622598Y-133174059D01*
X132622595Y-133174057D01*
X132622594Y-133174057D01*
X132591446Y-133161155D01*
X132591445Y-133161155D01*
X132431420Y-133094870D01*
X132431412Y-133094868D01*
X132431404Y-133094866D01*
X132431394Y-133094864D01*
X132228471Y-133054500D01*
X132228469Y-133054500D01*
X132228465Y-133054500D01*
X132021535Y-133054500D01*
X132021530Y-133054500D01*
X132021528Y-133054500D01*
X131818604Y-133094864D01*
X131818579Y-133094870D01*
X131627404Y-133174057D01*
X131455337Y-133289027D01*
X131309027Y-133435337D01*
X131194057Y-133607404D01*
X131114870Y-133798579D01*
X131114864Y-133798604D01*
X131074500Y-134001527D01*
X131074500Y-134001528D01*
X131074500Y-134001530D01*
X131074500Y-134458469D01*
X131074500Y-134458471D01*
X131074499Y-134458471D01*
X130675499Y-134458471D01*
X130675500Y-134458465D01*
X130675500Y-134001535D01*
X130675498Y-134001527D01*
X130653125Y-133889049D01*
X130635130Y-133798580D01*
X130555941Y-133607402D01*
X130441046Y-133435449D01*
X130441036Y-133435417D01*
X130440980Y-133435348D01*
X130440980Y-133435349D01*
X130440975Y-133435342D01*
X130440970Y-133435336D01*
X130294659Y-133289025D01*
X130169421Y-133205345D01*
X130169408Y-133205336D01*
X130122598Y-133174059D01*
X130122595Y-133174057D01*
X130122594Y-133174057D01*
X130091446Y-133161155D01*
X130091445Y-133161155D01*
X129931420Y-133094870D01*
X129931412Y-133094868D01*
X129931404Y-133094866D01*
X129931394Y-133094864D01*
X129728471Y-133054500D01*
X129728469Y-133054500D01*
X129728465Y-133054500D01*
X129521535Y-133054500D01*
X129521530Y-133054500D01*
X129521528Y-133054500D01*
X129318604Y-133094864D01*
X129318579Y-133094870D01*
X129127404Y-133174057D01*
X128955337Y-133289027D01*
X128809025Y-133435339D01*
X128712004Y-133580543D01*
X128701202Y-133590310D01*
X128695600Y-133600305D01*
X128688421Y-133606798D01*
X128679745Y-133614049D01*
X128670505Y-133618070D01*
X128667112Y-133621140D01*
X128657209Y-133626405D01*
X128646111Y-133628689D01*
X128615682Y-133641936D01*
X128596707Y-133638861D01*
X128588775Y-133640495D01*
X128575728Y-133635462D01*
X128546711Y-133630761D01*
X128534043Y-133619383D01*
X128523587Y-133615350D01*
X128512166Y-133599734D01*
X128494735Y-133584078D01*
X128493508Y-133582092D01*
X128489854Y-133569226D01*
X128482341Y-133558953D01*
X128481101Y-133538405D01*
X128474999Y-133516917D01*
X128474999Y-133455036D01*
X128474999Y-133455028D01*
X128474998Y-133455012D01*
X128464505Y-133352302D01*
X128409358Y-133185880D01*
X128409356Y-133185875D01*
X128317315Y-133036654D01*
X128193345Y-132912684D01*
X128044124Y-132820643D01*
X128044119Y-132820641D01*
X128044110Y-132820638D01*
X127877699Y-132765494D01*
X127877694Y-132765493D01*
X127774991Y-132755000D01*
X127774986Y-132755000D01*
X127375000Y-132755000D01*
X127375000Y-133643631D01*
X127355315Y-133710670D01*
X127302511Y-133756425D01*
X127233353Y-133766369D01*
X127218908Y-133763406D01*
X127187536Y-133755000D01*
X127187535Y-133755000D01*
X127062465Y-133755000D01*
X127062463Y-133755000D01*
X127031092Y-133763406D01*
X126961242Y-133761743D01*
X126903380Y-133722579D01*
X126875877Y-133658351D01*
X126875000Y-133643631D01*
X126875000Y-132755000D01*
X126475028Y-132755000D01*
X126475012Y-132755001D01*
X126475002Y-132755001D01*
X126475002Y-132755002D01*
X126372304Y-132765493D01*
X126372302Y-132765494D01*
X126205887Y-132820638D01*
X126205879Y-132820641D01*
X126205877Y-132820642D01*
X126205875Y-132820643D01*
X126134172Y-132864870D01*
X126056652Y-132912685D01*
X125932685Y-133036652D01*
X125932684Y-133036654D01*
X125847932Y-133174059D01*
X125840641Y-133185879D01*
X125840638Y-133185888D01*
X125785494Y-133352299D01*
X125785493Y-133352304D01*
X125775000Y-133455007D01*
X108463086Y-133455007D01*
X108460622Y-133449059D01*
X108430941Y-133377402D01*
X108419517Y-133360305D01*
X108316046Y-133205449D01*
X108316036Y-133205417D01*
X108315980Y-133205348D01*
X108315980Y-133205349D01*
X108315977Y-133205345D01*
X108315975Y-133205342D01*
X108315973Y-133205340D01*
X108315970Y-133205336D01*
X108169659Y-133059025D01*
X108081320Y-133000000D01*
X108017515Y-132957367D01*
X107997603Y-132944062D01*
X107997595Y-132944057D01*
X107874010Y-132892867D01*
X107806420Y-132864870D01*
X107806412Y-132864868D01*
X107806404Y-132864866D01*
X107806394Y-132864864D01*
X107603471Y-132824500D01*
X107603469Y-132824500D01*
X107603465Y-132824500D01*
X107396535Y-132824500D01*
X107396530Y-132824500D01*
X107396528Y-132824500D01*
X107193604Y-132864864D01*
X107193579Y-132864870D01*
X107002404Y-132944057D01*
X106830337Y-133059027D01*
X106684027Y-133205337D01*
X106569057Y-133377404D01*
X106489870Y-133568579D01*
X106489864Y-133568604D01*
X106449500Y-133771527D01*
X106449500Y-133771528D01*
X106449500Y-133771530D01*
X106449500Y-134228469D01*
X106449500Y-134228471D01*
X106449499Y-134228471D01*
X106050499Y-134228471D01*
X106050500Y-134228465D01*
X106050500Y-133771535D01*
X106050498Y-133771527D01*
X106024110Y-133638861D01*
X106010130Y-133568580D01*
X105930941Y-133377402D01*
X105816046Y-133205449D01*
X105816036Y-133205417D01*
X105815980Y-133205348D01*
X105815980Y-133205349D01*
X105815977Y-133205345D01*
X105815975Y-133205342D01*
X105815973Y-133205340D01*
X105815970Y-133205336D01*
X105669659Y-133059025D01*
X105581320Y-133000000D01*
X105517515Y-132957367D01*
X105497603Y-132944062D01*
X105497595Y-132944057D01*
X105374010Y-132892867D01*
X105306420Y-132864870D01*
X105306412Y-132864868D01*
X105306404Y-132864866D01*
X105306394Y-132864864D01*
X105103471Y-132824500D01*
X105103469Y-132824500D01*
X105103465Y-132824500D01*
X104896535Y-132824500D01*
X104896530Y-132824500D01*
X104896528Y-132824500D01*
X104693604Y-132864864D01*
X104693579Y-132864870D01*
X104502404Y-132944057D01*
X104330337Y-133059027D01*
X104184027Y-133205337D01*
X104069057Y-133377404D01*
X103989870Y-133568579D01*
X103989864Y-133568604D01*
X103949500Y-133771527D01*
X103949500Y-133771528D01*
X103949500Y-133771530D01*
X103949500Y-134228469D01*
X103949500Y-134228471D01*
X103949499Y-134228471D01*
X103550499Y-134228471D01*
X103550500Y-134228465D01*
X103550500Y-133771535D01*
X103550498Y-133771527D01*
X103524110Y-133638861D01*
X103510130Y-133568580D01*
X103430941Y-133377402D01*
X103316046Y-133205449D01*
X103316036Y-133205417D01*
X103315980Y-133205348D01*
X103315980Y-133205349D01*
X103315977Y-133205345D01*
X103315975Y-133205342D01*
X103315973Y-133205340D01*
X103315970Y-133205336D01*
X103169659Y-133059025D01*
X103081320Y-133000000D01*
X103017515Y-132957367D01*
X102997603Y-132944062D01*
X102997595Y-132944057D01*
X102874010Y-132892867D01*
X102806420Y-132864870D01*
X102806412Y-132864868D01*
X102806404Y-132864866D01*
X102806394Y-132864864D01*
X102603471Y-132824500D01*
X102603469Y-132824500D01*
X102603465Y-132824500D01*
X102396535Y-132824500D01*
X102396530Y-132824500D01*
X102396528Y-132824500D01*
X102193604Y-132864864D01*
X102193579Y-132864870D01*
X102002404Y-132944057D01*
X101830337Y-133059027D01*
X101684027Y-133205337D01*
X101569057Y-133377404D01*
X101489870Y-133568579D01*
X101489864Y-133568604D01*
X101449500Y-133771527D01*
X101449500Y-133771528D01*
X101449500Y-133771530D01*
X101449500Y-134228469D01*
X101449500Y-134228471D01*
X101449499Y-134228471D01*
X101050499Y-134228471D01*
X101050500Y-134228465D01*
X101050500Y-133771535D01*
X101050498Y-133771527D01*
X101024110Y-133638861D01*
X101010130Y-133568580D01*
X100930941Y-133377402D01*
X100816046Y-133205449D01*
X100816036Y-133205417D01*
X100815980Y-133205348D01*
X100815980Y-133205349D01*
X100815977Y-133205345D01*
X100815975Y-133205342D01*
X100815973Y-133205340D01*
X100815970Y-133205336D01*
X100669659Y-133059025D01*
X100581320Y-133000000D01*
X100517515Y-132957367D01*
X100497603Y-132944062D01*
X100497595Y-132944057D01*
X100374010Y-132892867D01*
X100306420Y-132864870D01*
X100306412Y-132864868D01*
X100306404Y-132864866D01*
X100306394Y-132864864D01*
X100103471Y-132824500D01*
X100103469Y-132824500D01*
X100103465Y-132824500D01*
X99896535Y-132824500D01*
X99896530Y-132824500D01*
X99896528Y-132824500D01*
X99693604Y-132864864D01*
X99693579Y-132864870D01*
X99502404Y-132944057D01*
X99330337Y-133059027D01*
X99184027Y-133205337D01*
X99069057Y-133377404D01*
X98989870Y-133568579D01*
X98989864Y-133568604D01*
X98949500Y-133771527D01*
X98949500Y-133771528D01*
X98949500Y-133771530D01*
X98949500Y-134228469D01*
X98949500Y-134228471D01*
X98949499Y-134228471D01*
X98550499Y-134228471D01*
X98550500Y-134228465D01*
X98550500Y-133771535D01*
X98550498Y-133771527D01*
X98524110Y-133638861D01*
X98510130Y-133568580D01*
X98430941Y-133377402D01*
X98316046Y-133205449D01*
X98316036Y-133205417D01*
X98315980Y-133205348D01*
X98315980Y-133205349D01*
X98315977Y-133205345D01*
X98315975Y-133205342D01*
X98315973Y-133205340D01*
X98315970Y-133205336D01*
X98169659Y-133059025D01*
X98081320Y-133000000D01*
X98017515Y-132957367D01*
X97997603Y-132944062D01*
X97997595Y-132944057D01*
X97874010Y-132892867D01*
X97806420Y-132864870D01*
X97806412Y-132864868D01*
X97806404Y-132864866D01*
X97806394Y-132864864D01*
X97603471Y-132824500D01*
X97603469Y-132824500D01*
X97603465Y-132824500D01*
X97396535Y-132824500D01*
X97396530Y-132824500D01*
X97396528Y-132824500D01*
X97193604Y-132864864D01*
X97193579Y-132864870D01*
X97002404Y-132944057D01*
X96830337Y-133059027D01*
X96684028Y-133205336D01*
X96684022Y-133205343D01*
X96623131Y-133296473D01*
X96623132Y-133296474D01*
X96587008Y-133350539D01*
X96576208Y-133360305D01*
X96570606Y-133370300D01*
X96563420Y-133376799D01*
X96554741Y-133384052D01*
X96545506Y-133388071D01*
X96542118Y-133391136D01*
X96532212Y-133396403D01*
X96521115Y-133398687D01*
X96490677Y-133411937D01*
X96471706Y-133408862D01*
X96463779Y-133410495D01*
X96450733Y-133405463D01*
X96421707Y-133400759D01*
X96409041Y-133389383D01*
X96398590Y-133385352D01*
X96387170Y-133369738D01*
X96369735Y-133354078D01*
X96368508Y-133352092D01*
X96364854Y-133339225D01*
X96357343Y-133328956D01*
X96356102Y-133308409D01*
X96349999Y-133286917D01*
X96349999Y-133225036D01*
X96349999Y-133225028D01*
X96349998Y-133225012D01*
X96339505Y-133122302D01*
X96284358Y-132955880D01*
X96284356Y-132955875D01*
X96192315Y-132806654D01*
X96068345Y-132682684D01*
X95919124Y-132590643D01*
X95919119Y-132590641D01*
X95919110Y-132590638D01*
X95752699Y-132535494D01*
X95752694Y-132535493D01*
X95649991Y-132525000D01*
X95649986Y-132525000D01*
X95250000Y-132525000D01*
X95250000Y-133413631D01*
X95230315Y-133480670D01*
X95177511Y-133526425D01*
X95108353Y-133536369D01*
X95093908Y-133533406D01*
X95062536Y-133525000D01*
X95062535Y-133525000D01*
X94937465Y-133525000D01*
X94937463Y-133525000D01*
X94906092Y-133533406D01*
X94836242Y-133531743D01*
X94778380Y-133492579D01*
X94750877Y-133428351D01*
X94750000Y-133413631D01*
X94750000Y-132525000D01*
X94350028Y-132525000D01*
X94350012Y-132525001D01*
X94350002Y-132525001D01*
X94350002Y-132525002D01*
X94247304Y-132535493D01*
X94247302Y-132535494D01*
X94080887Y-132590638D01*
X94080879Y-132590641D01*
X94080877Y-132590642D01*
X94080875Y-132590643D01*
X93981394Y-132652003D01*
X93931652Y-132682685D01*
X93807685Y-132806652D01*
X93799057Y-132820641D01*
X93722930Y-132944062D01*
X93715641Y-132955879D01*
X93715638Y-132955888D01*
X93660494Y-133122299D01*
X93660493Y-133122304D01*
X93650000Y-133225007D01*
X88100000Y-133225007D01*
X88100000Y-133000000D01*
X86100000Y-133000000D01*
X86100000Y-135000000D01*
X83251784Y-135000000D01*
X83368870Y-134838845D01*
X83483241Y-134614379D01*
X83561090Y-134374785D01*
X83600500Y-134125962D01*
X83600500Y-133874038D01*
X83561090Y-133625215D01*
X83561089Y-133625211D01*
X83561089Y-133625210D01*
X83485853Y-133393659D01*
X83485851Y-133393654D01*
X83483241Y-133385621D01*
X83483239Y-133385618D01*
X83483239Y-133385616D01*
X83481000Y-133381222D01*
X83480690Y-133380427D01*
X83479956Y-133379173D01*
X83434022Y-133289023D01*
X83368870Y-133161155D01*
X83321273Y-133095643D01*
X83267425Y-133021526D01*
X83267423Y-133021524D01*
X83220794Y-132957345D01*
X83176133Y-132912684D01*
X83042662Y-132779212D01*
X83042660Y-132779210D01*
X83042655Y-132779206D01*
X83042654Y-132779205D01*
X83042649Y-132779201D01*
X82838848Y-132631132D01*
X82838847Y-132631131D01*
X82838845Y-132631130D01*
X82759381Y-132590641D01*
X82614383Y-132516760D01*
X82614380Y-132516759D01*
X82374787Y-132438910D01*
X82208903Y-132412636D01*
X82125962Y-132399500D01*
X82125961Y-132399500D01*
X81874039Y-132399500D01*
X81874038Y-132399500D01*
X81791096Y-132412636D01*
X81625212Y-132438910D01*
X81625209Y-132438910D01*
X81385619Y-132516759D01*
X81385616Y-132516760D01*
X81176248Y-132623439D01*
X81161147Y-132631134D01*
X80957367Y-132779188D01*
X80957338Y-132779210D01*
X80779210Y-132957338D01*
X80779188Y-132957367D01*
X80631134Y-133161147D01*
X80631132Y-133161151D01*
X80516760Y-133385616D01*
X80516759Y-133385618D01*
X80516759Y-133385619D01*
X80438910Y-133625209D01*
X80438910Y-133625212D01*
X80415295Y-133774316D01*
X80413227Y-133787370D01*
X80399500Y-133874038D01*
X78500500Y-133874038D01*
X78500500Y-117140691D01*
X161949500Y-117140691D01*
X161949500Y-117259309D01*
X161980201Y-117373886D01*
X162039511Y-117476613D01*
X162123387Y-117560489D01*
X162226114Y-117619799D01*
X162340691Y-117650500D01*
X162340694Y-117650500D01*
X162459306Y-117650500D01*
X162459307Y-117650500D01*
X162459309Y-117650500D01*
X162573886Y-117619799D01*
X162651010Y-117575269D01*
X162680904Y-117562888D01*
X162711375Y-117554723D01*
X162743463Y-117550500D01*
X163856535Y-117550500D01*
X163888623Y-117554723D01*
X163919091Y-117562887D01*
X163948995Y-117575273D01*
X164026114Y-117619799D01*
X164140691Y-117650500D01*
X164140694Y-117650500D01*
X164259306Y-117650500D01*
X164259309Y-117650500D01*
X164373886Y-117619799D01*
X164476613Y-117560489D01*
X164560489Y-117476613D01*
X164619799Y-117373886D01*
X164650500Y-117259309D01*
X164650500Y-117140691D01*
X164619799Y-117026114D01*
X164560489Y-116923387D01*
X164476613Y-116839511D01*
X164373886Y-116780201D01*
X164259309Y-116749500D01*
X164259306Y-116749500D01*
X164140694Y-116749500D01*
X164140691Y-116749500D01*
X164071944Y-116767920D01*
X164026112Y-116780201D01*
X163948996Y-116824724D01*
X163919096Y-116837109D01*
X163888633Y-116845273D01*
X163856534Y-116849500D01*
X162743466Y-116849500D01*
X162711369Y-116845274D01*
X162680904Y-116837110D01*
X162651001Y-116824723D01*
X162573889Y-116780202D01*
X162573890Y-116780202D01*
X162564494Y-116777684D01*
X162459309Y-116749500D01*
X162459306Y-116749500D01*
X162340691Y-116749500D01*
X162249728Y-116773873D01*
X162249723Y-116773874D01*
X162226114Y-116780201D01*
X162226112Y-116780201D01*
X162226112Y-116780202D01*
X162204947Y-116792421D01*
X162204939Y-116792425D01*
X162123386Y-116839511D01*
X162123378Y-116839517D01*
X162039517Y-116923378D01*
X162039513Y-116923383D01*
X162039511Y-116923387D01*
X161980201Y-117026114D01*
X161949500Y-117140691D01*
X78500500Y-117140691D01*
X78500500Y-112640691D01*
X103149500Y-112640691D01*
X103149500Y-112759309D01*
X103180201Y-112873886D01*
X103239511Y-112976613D01*
X103323387Y-113060489D01*
X103426114Y-113119799D01*
X103540691Y-113150500D01*
X103540694Y-113150500D01*
X103659306Y-113150500D01*
X103659309Y-113150500D01*
X103773886Y-113119799D01*
X103876613Y-113060489D01*
X103887683Y-113049418D01*
X103915928Y-113028275D01*
X103939020Y-113015667D01*
X103998445Y-113000500D01*
X105994206Y-113000500D01*
X106029138Y-113005521D01*
X106054382Y-113012934D01*
X106107128Y-113044230D01*
X106123387Y-113060489D01*
X106226114Y-113119799D01*
X106340691Y-113150500D01*
X106340694Y-113150500D01*
X106459306Y-113150500D01*
X106459309Y-113150500D01*
X106573886Y-113119799D01*
X106676613Y-113060489D01*
X106760489Y-112976613D01*
X106819799Y-112873886D01*
X106850500Y-112759309D01*
X106850500Y-112740691D01*
X160649500Y-112740691D01*
X160649500Y-112859309D01*
X160680201Y-112973886D01*
X160739511Y-113076613D01*
X160823387Y-113160489D01*
X160926114Y-113219799D01*
X161040691Y-113250500D01*
X161040694Y-113250500D01*
X161159306Y-113250500D01*
X161159309Y-113250500D01*
X161273886Y-113219799D01*
X161376613Y-113160489D01*
X161460489Y-113076613D01*
X161519799Y-112973886D01*
X161550500Y-112859309D01*
X161550500Y-112843662D01*
X161555522Y-112808729D01*
X161562934Y-112783484D01*
X161594228Y-112730742D01*
X162425547Y-111899423D01*
X162453797Y-111878275D01*
X162476889Y-111865667D01*
X162536314Y-111850500D01*
X162559306Y-111850500D01*
X162559309Y-111850500D01*
X162673886Y-111819799D01*
X162776613Y-111760489D01*
X162860489Y-111676613D01*
X162919799Y-111573886D01*
X162950500Y-111459309D01*
X162950500Y-111340691D01*
X162919799Y-111226114D01*
X162860489Y-111123387D01*
X162776613Y-111039511D01*
X162673886Y-110980201D01*
X162559309Y-110949500D01*
X162559306Y-110949500D01*
X162440691Y-110949500D01*
X162349728Y-110973873D01*
X162349723Y-110973874D01*
X162326114Y-110980201D01*
X162326112Y-110980201D01*
X162326112Y-110980202D01*
X162304947Y-110992421D01*
X162304939Y-110992425D01*
X162223386Y-111039511D01*
X162223378Y-111039517D01*
X162139517Y-111123378D01*
X162139513Y-111123383D01*
X162139511Y-111123387D01*
X162080201Y-111226114D01*
X162049500Y-111340691D01*
X162049500Y-111340693D01*
X162049500Y-111356337D01*
X162049499Y-111356339D01*
X162049500Y-111356340D01*
X162044476Y-111391274D01*
X162037064Y-111416515D01*
X162005769Y-111469259D01*
X161174455Y-112300573D01*
X161146204Y-112321722D01*
X161123116Y-112334330D01*
X161063686Y-112349500D01*
X161040691Y-112349500D01*
X160949728Y-112373873D01*
X160949723Y-112373874D01*
X160926114Y-112380201D01*
X160926112Y-112380201D01*
X160926112Y-112380202D01*
X160904947Y-112392421D01*
X160904939Y-112392425D01*
X160823386Y-112439511D01*
X160823378Y-112439517D01*
X160739517Y-112523378D01*
X160739513Y-112523383D01*
X160680202Y-112626112D01*
X160680201Y-112626114D01*
X160649500Y-112740691D01*
X106850500Y-112740691D01*
X106850500Y-112640691D01*
X106819799Y-112526114D01*
X106760489Y-112423387D01*
X106676613Y-112339511D01*
X106573886Y-112280201D01*
X106459309Y-112249500D01*
X106459306Y-112249500D01*
X106340691Y-112249500D01*
X106249728Y-112273873D01*
X106249723Y-112273874D01*
X106226114Y-112280201D01*
X106226112Y-112280201D01*
X106226112Y-112280202D01*
X106204947Y-112292421D01*
X106204939Y-112292425D01*
X106123386Y-112339511D01*
X106123383Y-112339513D01*
X106112326Y-112350570D01*
X106112325Y-112350572D01*
X106112322Y-112350574D01*
X106084071Y-112371724D01*
X106060984Y-112384331D01*
X106001555Y-112399500D01*
X104005794Y-112399500D01*
X103970858Y-112394477D01*
X103945616Y-112387065D01*
X103892871Y-112355769D01*
X103876615Y-112339513D01*
X103876613Y-112339511D01*
X103773886Y-112280201D01*
X103659309Y-112249500D01*
X103659306Y-112249500D01*
X103540691Y-112249500D01*
X103449728Y-112273873D01*
X103449723Y-112273874D01*
X103426114Y-112280201D01*
X103426112Y-112280201D01*
X103426112Y-112280202D01*
X103404947Y-112292421D01*
X103404939Y-112292425D01*
X103323386Y-112339511D01*
X103323378Y-112339517D01*
X103239517Y-112423378D01*
X103239513Y-112423383D01*
X103181778Y-112523383D01*
X103180201Y-112526114D01*
X103149500Y-112640691D01*
X78500500Y-112640691D01*
X78500500Y-109540691D01*
X130849500Y-109540691D01*
X130849500Y-109659309D01*
X130880201Y-109773886D01*
X130939511Y-109876613D01*
X131023387Y-109960489D01*
X131126114Y-110019799D01*
X131240691Y-110050500D01*
X131240694Y-110050500D01*
X131359306Y-110050500D01*
X131359309Y-110050500D01*
X131473886Y-110019799D01*
X131576613Y-109960489D01*
X131587683Y-109949418D01*
X131615928Y-109928275D01*
X131639020Y-109915667D01*
X131698445Y-109900500D01*
X134794206Y-109900500D01*
X134829138Y-109905521D01*
X134854382Y-109912934D01*
X134907128Y-109944230D01*
X134923387Y-109960489D01*
X135026114Y-110019799D01*
X135140691Y-110050500D01*
X135140694Y-110050500D01*
X135259306Y-110050500D01*
X135259309Y-110050500D01*
X135373886Y-110019799D01*
X135476613Y-109960489D01*
X135560489Y-109876613D01*
X135619799Y-109773886D01*
X135650500Y-109659309D01*
X135650500Y-109540691D01*
X135619799Y-109426114D01*
X135560489Y-109323387D01*
X135476613Y-109239511D01*
X135373886Y-109180201D01*
X135259309Y-109149500D01*
X135259306Y-109149500D01*
X135140691Y-109149500D01*
X135049728Y-109173873D01*
X135049723Y-109173874D01*
X135026114Y-109180201D01*
X135026112Y-109180201D01*
X135026112Y-109180202D01*
X135004947Y-109192421D01*
X135004939Y-109192425D01*
X134923386Y-109239511D01*
X134923383Y-109239513D01*
X134912326Y-109250570D01*
X134912325Y-109250572D01*
X134912322Y-109250574D01*
X134884071Y-109271724D01*
X134860984Y-109284331D01*
X134801555Y-109299500D01*
X131705794Y-109299500D01*
X131670858Y-109294477D01*
X131645616Y-109287065D01*
X131592871Y-109255769D01*
X131576615Y-109239513D01*
X131576613Y-109239511D01*
X131473886Y-109180201D01*
X131359309Y-109149500D01*
X131359306Y-109149500D01*
X131240691Y-109149500D01*
X131149728Y-109173873D01*
X131149723Y-109173874D01*
X131126114Y-109180201D01*
X131126112Y-109180201D01*
X131126112Y-109180202D01*
X131104947Y-109192421D01*
X131104939Y-109192425D01*
X131023386Y-109239511D01*
X131023378Y-109239517D01*
X130939517Y-109323378D01*
X130939513Y-109323383D01*
X130884091Y-109419376D01*
X130880201Y-109426114D01*
X130849500Y-109540691D01*
X78500500Y-109540691D01*
X78500500Y-108040691D01*
X168049500Y-108040691D01*
X168049500Y-108159309D01*
X168080201Y-108273886D01*
X168139511Y-108376613D01*
X168223387Y-108460489D01*
X168326114Y-108519799D01*
X168440691Y-108550500D01*
X168456337Y-108550500D01*
X168491269Y-108555521D01*
X168516513Y-108562934D01*
X168569259Y-108594230D01*
X174095541Y-114120512D01*
X174096056Y-114120890D01*
X174098666Y-114122295D01*
X174164004Y-114160017D01*
X174164011Y-114160021D01*
X174240438Y-114180500D01*
X174319562Y-114180500D01*
X174707671Y-114180500D01*
X174742606Y-114185523D01*
X174757604Y-114189927D01*
X174816355Y-114227672D01*
X174816379Y-114227700D01*
X174816382Y-114227702D01*
X174816383Y-114227704D01*
X174817542Y-114229041D01*
X174845018Y-114283902D01*
X174846663Y-114291460D01*
X174849500Y-114317831D01*
X174849500Y-114749752D01*
X174861131Y-114808229D01*
X174861132Y-114808230D01*
X174861132Y-114808231D01*
X174861134Y-114808233D01*
X174905447Y-114874552D01*
X174971765Y-114918864D01*
X174971767Y-114918866D01*
X174971770Y-114918868D01*
X175022612Y-114928981D01*
X175025337Y-114929703D01*
X175030249Y-114930500D01*
X176769750Y-114930500D01*
X176773873Y-114930500D01*
X176781732Y-114928116D01*
X176801381Y-114924208D01*
X176816258Y-114921249D01*
X176822354Y-114920648D01*
X176822386Y-114920639D01*
X176833311Y-114917902D01*
X176843515Y-114908654D01*
X176894552Y-114874552D01*
X176938867Y-114808231D01*
X176938867Y-114808229D01*
X176938868Y-114808229D01*
X176941030Y-114797355D01*
X176941166Y-114797090D01*
X176941249Y-114796256D01*
X176950068Y-114751917D01*
X176950500Y-114749931D01*
X176950500Y-113012295D01*
X176950500Y-113010249D01*
X176950499Y-113010247D01*
X176938868Y-112951770D01*
X176938867Y-112951769D01*
X176894552Y-112885447D01*
X176855429Y-112859306D01*
X176838385Y-112847917D01*
X176833641Y-112844024D01*
X176828230Y-112841132D01*
X176828229Y-112841131D01*
X176769752Y-112829500D01*
X176769750Y-112829500D01*
X175030249Y-112829500D01*
X175030247Y-112829500D01*
X174971770Y-112841131D01*
X174971769Y-112841131D01*
X174971768Y-112841132D01*
X174971765Y-112841133D01*
X174971759Y-112841138D01*
X174905447Y-112885447D01*
X174861138Y-112951759D01*
X174861133Y-112951765D01*
X174861132Y-112951768D01*
X174861132Y-112951769D01*
X174861131Y-112951770D01*
X174851439Y-113000500D01*
X174849500Y-113010249D01*
X174849500Y-113437670D01*
X174849499Y-113437676D01*
X174849500Y-113437679D01*
X174844475Y-113472614D01*
X174840070Y-113487612D01*
X174802327Y-113546355D01*
X174802292Y-113546385D01*
X174802291Y-113546387D01*
X174802289Y-113546387D01*
X174800958Y-113547542D01*
X174746097Y-113575018D01*
X174738539Y-113576663D01*
X174712168Y-113579500D01*
X174473663Y-113579500D01*
X174473662Y-113579499D01*
X174473662Y-113579500D01*
X174438727Y-113574477D01*
X174413485Y-113567065D01*
X174360740Y-113535769D01*
X168999426Y-108174455D01*
X168978274Y-108146199D01*
X168965667Y-108123110D01*
X168950500Y-108063685D01*
X168950500Y-108040693D01*
X168950500Y-108040691D01*
X168919799Y-107926114D01*
X168860489Y-107823387D01*
X168776613Y-107739511D01*
X168673886Y-107680201D01*
X168559309Y-107649500D01*
X168559306Y-107649500D01*
X168440691Y-107649500D01*
X168349728Y-107673873D01*
X168349723Y-107673874D01*
X168326114Y-107680201D01*
X168326112Y-107680201D01*
X168326112Y-107680202D01*
X168304947Y-107692421D01*
X168304939Y-107692425D01*
X168223386Y-107739511D01*
X168223378Y-107739517D01*
X168139517Y-107823378D01*
X168139513Y-107823383D01*
X168139511Y-107823387D01*
X168080201Y-107926114D01*
X168049500Y-108040691D01*
X78500500Y-108040691D01*
X78500500Y-104740691D01*
X134249500Y-104740691D01*
X134249500Y-104859309D01*
X134280201Y-104973886D01*
X134339511Y-105076613D01*
X134339513Y-105076615D01*
X134350574Y-105087676D01*
X134371723Y-105115927D01*
X134384331Y-105139016D01*
X134399500Y-105198445D01*
X134399500Y-106594206D01*
X134394476Y-106629143D01*
X134387064Y-106654384D01*
X134355769Y-106707128D01*
X134339513Y-106723383D01*
X134339507Y-106723392D01*
X134295694Y-106799280D01*
X134295693Y-106799281D01*
X134280201Y-106826111D01*
X134280201Y-106826112D01*
X134271307Y-106859306D01*
X134249500Y-106940691D01*
X134249500Y-107059309D01*
X134280201Y-107173886D01*
X134339511Y-107276613D01*
X134423387Y-107360489D01*
X134526114Y-107419799D01*
X134640691Y-107450500D01*
X134640694Y-107450500D01*
X134759306Y-107450500D01*
X134759309Y-107450500D01*
X134873886Y-107419799D01*
X134976613Y-107360489D01*
X135060489Y-107276613D01*
X135119799Y-107173886D01*
X135150500Y-107059309D01*
X135150500Y-106940691D01*
X135119799Y-106826114D01*
X135119797Y-106826110D01*
X135103860Y-106798506D01*
X135103855Y-106798499D01*
X135070479Y-106740691D01*
X168049500Y-106740691D01*
X168049500Y-106859309D01*
X168080201Y-106973886D01*
X168139511Y-107076613D01*
X168223387Y-107160489D01*
X168326114Y-107219799D01*
X168440691Y-107250500D01*
X168440694Y-107250500D01*
X168559306Y-107250500D01*
X168559309Y-107250500D01*
X168673886Y-107219799D01*
X168776613Y-107160489D01*
X168787683Y-107149418D01*
X168815928Y-107128275D01*
X168839020Y-107115667D01*
X168898445Y-107100500D01*
X171166337Y-107100500D01*
X171201269Y-107105521D01*
X171226513Y-107112934D01*
X171279259Y-107144230D01*
X174900317Y-110765288D01*
X174921468Y-110793543D01*
X174928960Y-110807264D01*
X174943811Y-110875533D01*
X174942840Y-110889113D01*
X174933717Y-110927721D01*
X174889871Y-111033575D01*
X174889870Y-111033578D01*
X174889864Y-111033604D01*
X174849500Y-111236527D01*
X174849500Y-111236530D01*
X174849500Y-111443469D01*
X174849500Y-111443471D01*
X174849499Y-111443471D01*
X174889864Y-111646394D01*
X174889868Y-111646412D01*
X174889870Y-111646420D01*
X174961685Y-111819797D01*
X174969059Y-111837598D01*
X174969058Y-111837598D01*
X175001946Y-111886818D01*
X175084025Y-112009659D01*
X175230336Y-112155970D01*
X175230340Y-112155973D01*
X175230342Y-112155975D01*
X175230345Y-112155977D01*
X175230349Y-112155980D01*
X175230348Y-112155980D01*
X175230411Y-112156032D01*
X175230448Y-112156046D01*
X175402402Y-112270941D01*
X175593580Y-112350130D01*
X175779266Y-112387065D01*
X175793559Y-112389908D01*
X175795794Y-112390409D01*
X175796532Y-112390500D01*
X176003466Y-112390500D01*
X176007586Y-112390500D01*
X176015435Y-112388118D01*
X176206420Y-112350130D01*
X176397598Y-112270941D01*
X176569655Y-112155977D01*
X176715977Y-112009655D01*
X176830941Y-111837598D01*
X176910130Y-111646420D01*
X176950500Y-111443465D01*
X176950500Y-111236535D01*
X176910130Y-111033580D01*
X176830941Y-110842402D01*
X176716046Y-110670449D01*
X176716036Y-110670417D01*
X176715980Y-110670348D01*
X176715980Y-110670349D01*
X176715977Y-110670345D01*
X176715975Y-110670342D01*
X176715973Y-110670340D01*
X176715970Y-110670336D01*
X176569662Y-110524028D01*
X176569655Y-110524022D01*
X176411801Y-110418548D01*
X176411796Y-110418545D01*
X176402616Y-110412412D01*
X176397598Y-110409059D01*
X176248344Y-110347235D01*
X176247227Y-110346748D01*
X176245761Y-110345520D01*
X176219011Y-110329649D01*
X176210207Y-110322555D01*
X176198932Y-110306318D01*
X176193652Y-110301898D01*
X176191845Y-110296112D01*
X176170356Y-110265165D01*
X176167858Y-110195340D01*
X176203506Y-110135251D01*
X176207181Y-110131830D01*
X176253347Y-110104664D01*
X176418217Y-110051095D01*
X176607554Y-109954622D01*
X176609976Y-109952862D01*
X176629121Y-109938953D01*
X176655858Y-109929412D01*
X176661717Y-109915269D01*
X176156149Y-109409702D01*
X176122664Y-109348379D01*
X176127648Y-109278688D01*
X176169519Y-109222754D01*
X176181822Y-109214639D01*
X176207007Y-109200099D01*
X176300099Y-109107007D01*
X176314634Y-109081830D01*
X176365199Y-109033616D01*
X176433805Y-109020391D01*
X176498671Y-109046358D01*
X176509702Y-109056149D01*
X177015269Y-109561717D01*
X177015269Y-109561716D01*
X177015270Y-109561717D01*
X177015270Y-109561716D01*
X177028738Y-109556137D01*
X177034955Y-109534967D01*
X177038954Y-109529118D01*
X177054621Y-109507555D01*
X177054622Y-109507554D01*
X177151095Y-109318217D01*
X177216757Y-109116130D01*
X177216757Y-109116127D01*
X177250000Y-108906246D01*
X177250000Y-108693753D01*
X177233063Y-108586819D01*
X177218284Y-108493511D01*
X177218283Y-108493505D01*
X177218283Y-108493506D01*
X177216756Y-108483865D01*
X177189473Y-108399898D01*
X177151095Y-108281782D01*
X177054624Y-108092449D01*
X177015270Y-108038282D01*
X177015269Y-108038282D01*
X177015268Y-108038282D01*
X176509702Y-108543849D01*
X176448379Y-108577334D01*
X176378687Y-108572350D01*
X176322754Y-108530478D01*
X176314634Y-108518169D01*
X176300099Y-108492993D01*
X176207007Y-108399901D01*
X176207004Y-108399899D01*
X176207000Y-108399896D01*
X176181828Y-108385363D01*
X176133613Y-108334796D01*
X176120391Y-108266189D01*
X176146359Y-108201324D01*
X176156135Y-108190310D01*
X176661716Y-107684728D01*
X176655486Y-107680202D01*
X176607550Y-107645375D01*
X176607548Y-107645374D01*
X176418220Y-107548905D01*
X176334904Y-107521834D01*
X176258978Y-107497164D01*
X176227306Y-107481591D01*
X176217970Y-107475207D01*
X176173743Y-107421118D01*
X176165779Y-107351703D01*
X176196605Y-107289008D01*
X176199997Y-107285312D01*
X176243888Y-107254608D01*
X176397598Y-107190941D01*
X176569655Y-107075977D01*
X176715977Y-106929655D01*
X176830941Y-106757598D01*
X176910130Y-106566420D01*
X176950500Y-106363465D01*
X176950500Y-106156535D01*
X176910130Y-105953580D01*
X176830941Y-105762402D01*
X176716046Y-105590449D01*
X176716036Y-105590417D01*
X176715980Y-105590348D01*
X176715980Y-105590349D01*
X176715977Y-105590345D01*
X176715975Y-105590342D01*
X176715973Y-105590340D01*
X176715970Y-105590336D01*
X176569662Y-105444028D01*
X176569655Y-105444022D01*
X176477499Y-105382446D01*
X176397600Y-105329059D01*
X176397596Y-105329057D01*
X176364838Y-105315489D01*
X176364837Y-105315489D01*
X176206420Y-105249870D01*
X176206412Y-105249868D01*
X176206404Y-105249866D01*
X176206394Y-105249864D01*
X176003471Y-105209500D01*
X176003469Y-105209500D01*
X176003465Y-105209500D01*
X175796535Y-105209500D01*
X175796530Y-105209500D01*
X175796528Y-105209500D01*
X175593604Y-105249864D01*
X175593579Y-105249870D01*
X175402404Y-105329057D01*
X175230337Y-105444027D01*
X175084027Y-105590337D01*
X174969057Y-105762404D01*
X174889870Y-105953579D01*
X174889864Y-105953604D01*
X174849500Y-106156527D01*
X174849500Y-106156530D01*
X174849500Y-106363469D01*
X174849500Y-106363471D01*
X174849499Y-106363471D01*
X174889864Y-106566394D01*
X174889868Y-106566412D01*
X174889870Y-106566420D01*
X174969058Y-106757596D01*
X175014840Y-106826114D01*
X175084027Y-106929661D01*
X175230339Y-107075973D01*
X175230342Y-107075975D01*
X175402405Y-107190943D01*
X175505043Y-107233456D01*
X175550636Y-107252341D01*
X175580986Y-107270348D01*
X175589795Y-107277446D01*
X175599963Y-107292091D01*
X175605040Y-107296182D01*
X175607098Y-107302366D01*
X175629644Y-107334836D01*
X175632139Y-107404661D01*
X175596488Y-107464751D01*
X175596477Y-107464761D01*
X175592818Y-107468167D01*
X175546650Y-107495335D01*
X175381776Y-107548906D01*
X175192438Y-107645380D01*
X175138282Y-107684727D01*
X175138282Y-107684728D01*
X175643850Y-108190296D01*
X175677335Y-108251619D01*
X175672351Y-108321311D01*
X175630479Y-108377244D01*
X175618173Y-108385362D01*
X175592996Y-108399898D01*
X175592990Y-108399903D01*
X175499903Y-108492990D01*
X175499898Y-108492996D01*
X175485362Y-108518173D01*
X175434793Y-108566387D01*
X175366185Y-108579607D01*
X175301322Y-108553637D01*
X175290296Y-108543850D01*
X174784728Y-108038282D01*
X174784727Y-108038282D01*
X174745380Y-108092438D01*
X174648903Y-108281784D01*
X174583242Y-108483865D01*
X174581716Y-108493506D01*
X174581715Y-108493513D01*
X174550000Y-108693753D01*
X174550000Y-108906245D01*
X174580297Y-109097538D01*
X174580298Y-109097543D01*
X174583242Y-109116127D01*
X174583242Y-109116130D01*
X174648904Y-109318217D01*
X174649848Y-109320069D01*
X174652055Y-109327131D01*
X174652096Y-109329553D01*
X174655571Y-109341234D01*
X174657190Y-109349855D01*
X174653146Y-109390165D01*
X174653265Y-109396990D01*
X174652306Y-109398539D01*
X174650217Y-109419376D01*
X174606765Y-109474091D01*
X174540630Y-109496628D01*
X174474336Y-109480709D01*
X174469177Y-109477795D01*
X174442480Y-109457509D01*
X171544520Y-106559548D01*
X171544514Y-106559543D01*
X171544512Y-106559541D01*
X171544507Y-106559537D01*
X171544504Y-106559535D01*
X171540628Y-106556888D01*
X171541794Y-106555179D01*
X171519318Y-106531589D01*
X171475990Y-106519979D01*
X171475991Y-106519979D01*
X171437775Y-106509739D01*
X171437774Y-106509738D01*
X171399563Y-106499500D01*
X171399562Y-106499500D01*
X171399560Y-106499500D01*
X168905794Y-106499500D01*
X168905793Y-106499499D01*
X168905793Y-106499500D01*
X168870858Y-106494477D01*
X168845616Y-106487065D01*
X168792871Y-106455769D01*
X168776615Y-106439513D01*
X168776613Y-106439511D01*
X168673886Y-106380201D01*
X168559309Y-106349500D01*
X168559306Y-106349500D01*
X168440691Y-106349500D01*
X168349728Y-106373873D01*
X168349723Y-106373874D01*
X168326114Y-106380201D01*
X168326112Y-106380201D01*
X168326112Y-106380202D01*
X168304947Y-106392421D01*
X168304939Y-106392425D01*
X168223386Y-106439511D01*
X168223378Y-106439517D01*
X168139517Y-106523378D01*
X168139513Y-106523383D01*
X168139507Y-106523392D01*
X168088329Y-106612036D01*
X168085460Y-106617006D01*
X168082830Y-106621560D01*
X168080200Y-106626115D01*
X168080200Y-106626116D01*
X168062531Y-106692060D01*
X168049500Y-106740691D01*
X135070479Y-106740691D01*
X135060489Y-106723387D01*
X135036530Y-106699428D01*
X135029943Y-106689735D01*
X135025945Y-106677308D01*
X135018025Y-106664550D01*
X135017264Y-106664884D01*
X135012932Y-106654991D01*
X135014016Y-106654516D01*
X135000500Y-106601555D01*
X135000500Y-105205793D01*
X135005522Y-105170860D01*
X135012934Y-105145615D01*
X135044230Y-105092871D01*
X135060489Y-105076613D01*
X135119799Y-104973886D01*
X135150500Y-104859309D01*
X135150500Y-104740691D01*
X135119799Y-104626114D01*
X135060489Y-104523387D01*
X134976613Y-104439511D01*
X134873886Y-104380201D01*
X134759309Y-104349500D01*
X134759306Y-104349500D01*
X134640691Y-104349500D01*
X134549728Y-104373873D01*
X134549723Y-104373874D01*
X134526114Y-104380201D01*
X134526112Y-104380201D01*
X134526112Y-104380202D01*
X134504947Y-104392421D01*
X134504939Y-104392425D01*
X134423386Y-104439511D01*
X134423378Y-104439517D01*
X134339517Y-104523378D01*
X134339513Y-104523383D01*
X134339511Y-104523387D01*
X134280201Y-104626114D01*
X134249500Y-104740691D01*
X78500500Y-104740691D01*
X78500500Y-96468519D01*
X108239500Y-96468519D01*
X108239500Y-99658024D01*
X108251131Y-99716501D01*
X108251132Y-99716502D01*
X108251132Y-99716503D01*
X108251134Y-99716505D01*
X108295447Y-99782824D01*
X108361765Y-99827136D01*
X108361767Y-99827138D01*
X108361770Y-99827140D01*
X108412612Y-99837253D01*
X108415337Y-99837975D01*
X108420249Y-99838772D01*
X109459750Y-99838772D01*
X109463873Y-99838772D01*
X109471732Y-99836388D01*
X109491381Y-99832480D01*
X109506258Y-99829521D01*
X109512354Y-99828920D01*
X109512386Y-99828911D01*
X109523311Y-99826174D01*
X109533515Y-99816926D01*
X109584552Y-99782824D01*
X109628867Y-99716503D01*
X109628867Y-99716501D01*
X109628868Y-99716501D01*
X109631030Y-99705627D01*
X109631166Y-99705362D01*
X109631249Y-99704528D01*
X109640068Y-99660189D01*
X109640500Y-99658203D01*
X109640500Y-98325916D01*
X109644737Y-98310244D01*
X109644129Y-98296137D01*
X109645521Y-98290989D01*
X109648707Y-98280136D01*
X109655907Y-98268930D01*
X109657394Y-98263431D01*
X109662567Y-98254564D01*
X109669112Y-98248379D01*
X109686477Y-98221355D01*
X109708225Y-98211421D01*
X109713352Y-98206577D01*
X109722664Y-98204825D01*
X109750031Y-98192326D01*
X109772214Y-98195508D01*
X109782018Y-98193665D01*
X109794416Y-98198693D01*
X109819132Y-98202239D01*
X109819695Y-98202496D01*
X109837547Y-98216187D01*
X109846765Y-98219926D01*
X109851881Y-98227180D01*
X109863863Y-98236369D01*
X109865293Y-98238101D01*
X109877059Y-98255048D01*
X109889506Y-98276607D01*
X109889510Y-98276612D01*
X109889511Y-98276613D01*
X109973387Y-98360489D01*
X110076114Y-98419799D01*
X110190691Y-98450500D01*
X110190694Y-98450500D01*
X110309306Y-98450500D01*
X110309309Y-98450500D01*
X110423886Y-98419799D01*
X110478021Y-98388543D01*
X110497044Y-98379617D01*
X110502400Y-98377638D01*
X110507641Y-98376234D01*
X110509587Y-98374983D01*
X110518559Y-98371669D01*
X110522468Y-98371401D01*
X110543950Y-98365238D01*
X110545452Y-98365022D01*
X110563023Y-98363772D01*
X110637670Y-98363772D01*
X110672606Y-98368795D01*
X110687604Y-98373199D01*
X110702594Y-98382829D01*
X110719675Y-98387839D01*
X110746355Y-98410944D01*
X110747542Y-98412313D01*
X110775018Y-98467174D01*
X110776663Y-98474732D01*
X110779500Y-98501103D01*
X110779500Y-99658024D01*
X110791131Y-99716501D01*
X110791132Y-99716502D01*
X110791132Y-99716503D01*
X110791134Y-99716505D01*
X110835447Y-99782824D01*
X110901765Y-99827136D01*
X110901767Y-99827138D01*
X110901770Y-99827140D01*
X110952612Y-99837253D01*
X110955337Y-99837975D01*
X110960249Y-99838772D01*
X111999750Y-99838772D01*
X112003873Y-99838772D01*
X112011732Y-99836388D01*
X112031381Y-99832480D01*
X112046258Y-99829521D01*
X112052354Y-99828920D01*
X112052386Y-99828911D01*
X112063311Y-99826174D01*
X112073515Y-99816926D01*
X112124552Y-99782824D01*
X112168867Y-99716503D01*
X112168867Y-99716501D01*
X112168868Y-99716501D01*
X112171030Y-99705627D01*
X112171166Y-99705362D01*
X112171249Y-99704528D01*
X112180068Y-99660189D01*
X112180500Y-99658203D01*
X112180500Y-98384793D01*
X112185521Y-98349866D01*
X112188082Y-98341142D01*
X112188707Y-98339011D01*
X112226477Y-98280232D01*
X112290031Y-98251203D01*
X112359186Y-98261141D01*
X112366172Y-98264331D01*
X112402342Y-98289444D01*
X112473387Y-98360489D01*
X112576114Y-98419799D01*
X112690691Y-98450500D01*
X112690694Y-98450500D01*
X112809306Y-98450500D01*
X112809309Y-98450500D01*
X112923886Y-98419799D01*
X112978021Y-98388543D01*
X112997044Y-98379617D01*
X113002400Y-98377638D01*
X113007641Y-98376234D01*
X113009587Y-98374983D01*
X113018559Y-98371669D01*
X113022468Y-98371401D01*
X113043950Y-98365238D01*
X113045452Y-98365022D01*
X113063023Y-98363772D01*
X113177670Y-98363772D01*
X113212606Y-98368795D01*
X113227604Y-98373199D01*
X113242594Y-98382829D01*
X113259675Y-98387839D01*
X113286355Y-98410944D01*
X113287542Y-98412313D01*
X113315018Y-98467174D01*
X113316663Y-98474732D01*
X113319500Y-98501103D01*
X113319500Y-99658024D01*
X113331131Y-99716501D01*
X113331132Y-99716502D01*
X113331132Y-99716503D01*
X113331134Y-99716505D01*
X113375447Y-99782824D01*
X113441765Y-99827136D01*
X113441767Y-99827138D01*
X113441770Y-99827140D01*
X113492612Y-99837253D01*
X113495337Y-99837975D01*
X113500249Y-99838772D01*
X114539750Y-99838772D01*
X114543873Y-99838772D01*
X114551732Y-99836388D01*
X114571381Y-99832480D01*
X114586258Y-99829521D01*
X114592354Y-99828920D01*
X114592386Y-99828911D01*
X114603311Y-99826174D01*
X114613515Y-99816926D01*
X114664552Y-99782824D01*
X114708867Y-99716503D01*
X114708867Y-99716501D01*
X114708868Y-99716501D01*
X114711030Y-99705627D01*
X114711166Y-99705362D01*
X114711249Y-99704528D01*
X114720068Y-99660189D01*
X114720500Y-99658203D01*
X114720500Y-98424793D01*
X114725521Y-98389866D01*
X114728305Y-98380384D01*
X114728707Y-98379011D01*
X114766477Y-98320232D01*
X114830031Y-98291203D01*
X114899186Y-98301141D01*
X114906172Y-98304331D01*
X114942342Y-98329444D01*
X114973387Y-98360489D01*
X115076114Y-98419799D01*
X115190691Y-98450500D01*
X115190694Y-98450500D01*
X115309306Y-98450500D01*
X115309309Y-98450500D01*
X115423886Y-98419799D01*
X115478021Y-98388543D01*
X115497044Y-98379617D01*
X115502400Y-98377638D01*
X115507641Y-98376234D01*
X115509587Y-98374983D01*
X115518559Y-98371669D01*
X115522468Y-98371401D01*
X115543950Y-98365238D01*
X115545452Y-98365022D01*
X115563023Y-98363772D01*
X115717670Y-98363772D01*
X115752606Y-98368795D01*
X115767604Y-98373199D01*
X115782594Y-98382829D01*
X115799675Y-98387839D01*
X115826355Y-98410944D01*
X115827542Y-98412313D01*
X115855018Y-98467174D01*
X115856663Y-98474732D01*
X115859500Y-98501103D01*
X115859500Y-99658024D01*
X115871131Y-99716501D01*
X115871132Y-99716502D01*
X115871132Y-99716503D01*
X115871134Y-99716505D01*
X115915447Y-99782824D01*
X115981765Y-99827136D01*
X115981767Y-99827138D01*
X115981770Y-99827140D01*
X116032612Y-99837253D01*
X116035337Y-99837975D01*
X116040249Y-99838772D01*
X117079750Y-99838772D01*
X117083873Y-99838772D01*
X117091732Y-99836388D01*
X117111381Y-99832480D01*
X117126258Y-99829521D01*
X117132354Y-99828920D01*
X117132386Y-99828911D01*
X117143311Y-99826174D01*
X117153515Y-99816926D01*
X117204552Y-99782824D01*
X117248867Y-99716503D01*
X117248867Y-99716501D01*
X117248868Y-99716501D01*
X117251030Y-99705627D01*
X117251166Y-99705362D01*
X117251249Y-99704528D01*
X117260068Y-99660189D01*
X117260500Y-99658203D01*
X117260500Y-98464793D01*
X117265521Y-98429866D01*
X117267313Y-98423761D01*
X117268707Y-98419011D01*
X117306477Y-98360232D01*
X117370031Y-98331203D01*
X117439186Y-98341141D01*
X117448579Y-98345431D01*
X117472549Y-98359846D01*
X117473384Y-98360486D01*
X117473387Y-98360489D01*
X117576114Y-98419799D01*
X117690691Y-98450500D01*
X117690694Y-98450500D01*
X117809306Y-98450500D01*
X117809309Y-98450500D01*
X117923886Y-98419799D01*
X117978021Y-98388543D01*
X117997044Y-98379617D01*
X118002400Y-98377638D01*
X118007641Y-98376234D01*
X118009587Y-98374983D01*
X118018559Y-98371669D01*
X118022468Y-98371401D01*
X118043950Y-98365238D01*
X118045452Y-98365022D01*
X118063023Y-98363772D01*
X118257670Y-98363772D01*
X118292606Y-98368795D01*
X118307604Y-98373199D01*
X118322594Y-98382829D01*
X118339675Y-98387839D01*
X118366355Y-98410944D01*
X118367542Y-98412313D01*
X118395018Y-98467174D01*
X118396663Y-98474732D01*
X118399500Y-98501103D01*
X118399500Y-99658024D01*
X118411131Y-99716501D01*
X118411132Y-99716502D01*
X118411132Y-99716503D01*
X118411134Y-99716505D01*
X118455447Y-99782824D01*
X118521765Y-99827136D01*
X118521767Y-99827138D01*
X118521770Y-99827140D01*
X118572612Y-99837253D01*
X118575337Y-99837975D01*
X118580249Y-99838772D01*
X119619750Y-99838772D01*
X119623873Y-99838772D01*
X119631732Y-99836388D01*
X119651381Y-99832480D01*
X119666258Y-99829521D01*
X119672354Y-99828920D01*
X119672386Y-99828911D01*
X119683311Y-99826174D01*
X119693515Y-99816926D01*
X119744552Y-99782824D01*
X119788867Y-99716503D01*
X119788867Y-99716501D01*
X119788868Y-99716501D01*
X119791030Y-99705627D01*
X119791166Y-99705362D01*
X119791249Y-99704528D01*
X119800068Y-99660189D01*
X119800500Y-99658203D01*
X119800500Y-98493275D01*
X119805522Y-98458342D01*
X119807198Y-98452634D01*
X119809433Y-98445023D01*
X119847206Y-98386246D01*
X119910758Y-98357221D01*
X119912386Y-98356987D01*
X119970565Y-98362544D01*
X119973013Y-98363391D01*
X119975297Y-98364181D01*
X119996744Y-98373974D01*
X120076114Y-98419799D01*
X120190691Y-98450500D01*
X120190694Y-98450500D01*
X120309306Y-98450500D01*
X120309309Y-98450500D01*
X120423886Y-98419799D01*
X120478021Y-98388543D01*
X120507917Y-98376160D01*
X120538388Y-98367995D01*
X120570476Y-98363772D01*
X120797670Y-98363772D01*
X120832606Y-98368795D01*
X120847604Y-98373199D01*
X120906355Y-98410944D01*
X120907542Y-98412313D01*
X120935018Y-98467174D01*
X120936663Y-98474732D01*
X120939500Y-98501103D01*
X120939500Y-99658024D01*
X120951131Y-99716501D01*
X120951132Y-99716502D01*
X120951132Y-99716503D01*
X120951134Y-99716505D01*
X120995447Y-99782824D01*
X121061765Y-99827136D01*
X121061767Y-99827138D01*
X121061770Y-99827140D01*
X121112612Y-99837253D01*
X121115337Y-99837975D01*
X121120249Y-99838772D01*
X122159750Y-99838772D01*
X122163873Y-99838772D01*
X122171732Y-99836388D01*
X122191381Y-99832480D01*
X122206258Y-99829521D01*
X122212354Y-99828920D01*
X122212386Y-99828911D01*
X122223311Y-99826174D01*
X122233515Y-99816926D01*
X122284552Y-99782824D01*
X122328867Y-99716503D01*
X122328867Y-99716501D01*
X122328868Y-99716501D01*
X122331030Y-99705627D01*
X122331166Y-99705362D01*
X122331249Y-99704528D01*
X122340068Y-99660189D01*
X122340500Y-99658203D01*
X122340500Y-96470567D01*
X122340500Y-96468521D01*
X122340499Y-96468519D01*
X122328868Y-96410042D01*
X122328867Y-96410041D01*
X122284552Y-96343719D01*
X122248146Y-96319393D01*
X122228385Y-96306189D01*
X122223641Y-96302296D01*
X122218230Y-96299404D01*
X122218229Y-96299403D01*
X122159752Y-96287772D01*
X122159750Y-96287772D01*
X121120249Y-96287772D01*
X121120247Y-96287772D01*
X121061770Y-96299403D01*
X121061769Y-96299403D01*
X121061768Y-96299404D01*
X121061765Y-96299405D01*
X121061759Y-96299410D01*
X120995447Y-96343719D01*
X120951138Y-96410031D01*
X120951133Y-96410037D01*
X120951132Y-96410040D01*
X120951132Y-96410041D01*
X120951131Y-96410042D01*
X120945408Y-96438817D01*
X120939500Y-96468521D01*
X120939500Y-97620938D01*
X120937631Y-97642384D01*
X120935993Y-97651712D01*
X120934592Y-97654543D01*
X120934476Y-97655876D01*
X120933193Y-97660245D01*
X120932225Y-97659960D01*
X120928111Y-97676079D01*
X120928797Y-97676335D01*
X120927734Y-97679183D01*
X120927105Y-97680022D01*
X120926659Y-97681772D01*
X120925422Y-97684481D01*
X120924189Y-97683918D01*
X120915252Y-97695859D01*
X120912406Y-97705566D01*
X120907054Y-97710206D01*
X120905011Y-97714337D01*
X120898499Y-97718241D01*
X120889399Y-97730399D01*
X120890273Y-97731409D01*
X120889217Y-97732323D01*
X120887307Y-97733194D01*
X120885910Y-97735062D01*
X120883470Y-97736890D01*
X120882385Y-97735442D01*
X120873025Y-97739715D01*
X120859619Y-97751341D01*
X120825758Y-97761296D01*
X120824322Y-97761503D01*
X120806630Y-97762772D01*
X120719066Y-97762772D01*
X120684130Y-97757749D01*
X120658888Y-97750337D01*
X120606143Y-97719041D01*
X120526615Y-97639513D01*
X120526613Y-97639511D01*
X120423886Y-97580201D01*
X120309309Y-97549500D01*
X120309306Y-97549500D01*
X120190694Y-97549500D01*
X120190691Y-97549500D01*
X120121944Y-97567920D01*
X120076112Y-97580201D01*
X120076111Y-97580202D01*
X120001938Y-97623026D01*
X120001934Y-97623027D01*
X120001933Y-97623029D01*
X119969166Y-97636145D01*
X119955680Y-97639416D01*
X119885890Y-97636088D01*
X119829002Y-97595587D01*
X119827998Y-97594311D01*
X119803686Y-97541083D01*
X119802737Y-97536158D01*
X119800500Y-97512711D01*
X119800500Y-96470567D01*
X119800500Y-96468521D01*
X119800499Y-96468519D01*
X119788868Y-96410042D01*
X119788867Y-96410041D01*
X119744552Y-96343719D01*
X119708146Y-96319393D01*
X119688385Y-96306189D01*
X119683641Y-96302296D01*
X119678230Y-96299404D01*
X119678229Y-96299403D01*
X119619752Y-96287772D01*
X119619750Y-96287772D01*
X118580249Y-96287772D01*
X118580247Y-96287772D01*
X118521770Y-96299403D01*
X118521769Y-96299403D01*
X118521768Y-96299404D01*
X118521765Y-96299405D01*
X118521759Y-96299410D01*
X118455447Y-96343719D01*
X118411138Y-96410031D01*
X118411133Y-96410037D01*
X118411132Y-96410040D01*
X118411132Y-96410041D01*
X118411131Y-96410042D01*
X118405408Y-96438817D01*
X118399500Y-96468521D01*
X118399500Y-97620938D01*
X118397631Y-97642384D01*
X118395993Y-97651712D01*
X118394592Y-97654543D01*
X118394476Y-97655876D01*
X118393193Y-97660245D01*
X118392225Y-97659960D01*
X118388111Y-97676079D01*
X118388797Y-97676335D01*
X118387734Y-97679183D01*
X118387105Y-97680022D01*
X118386659Y-97681772D01*
X118385422Y-97684481D01*
X118384189Y-97683918D01*
X118375252Y-97695859D01*
X118372406Y-97705566D01*
X118367054Y-97710206D01*
X118365011Y-97714337D01*
X118358499Y-97718241D01*
X118349399Y-97730399D01*
X118350273Y-97731409D01*
X118349217Y-97732323D01*
X118347307Y-97733194D01*
X118345910Y-97735062D01*
X118343470Y-97736890D01*
X118342385Y-97735442D01*
X118333025Y-97739715D01*
X118319619Y-97751341D01*
X118285758Y-97761296D01*
X118284322Y-97761503D01*
X118266630Y-97762772D01*
X118219066Y-97762772D01*
X118184130Y-97757749D01*
X118158888Y-97750337D01*
X118106143Y-97719041D01*
X118026615Y-97639513D01*
X118026613Y-97639511D01*
X117923886Y-97580201D01*
X117809309Y-97549500D01*
X117809306Y-97549500D01*
X117690691Y-97549500D01*
X117599728Y-97573873D01*
X117599723Y-97573874D01*
X117576114Y-97580201D01*
X117576112Y-97580201D01*
X117576112Y-97580202D01*
X117554947Y-97592421D01*
X117554939Y-97592425D01*
X117473378Y-97639515D01*
X117471694Y-97640562D01*
X117471681Y-97640541D01*
X117464039Y-97645162D01*
X117446603Y-97654682D01*
X117378330Y-97669532D01*
X117312866Y-97645113D01*
X117270997Y-97589178D01*
X117270995Y-97589173D01*
X117268315Y-97581986D01*
X117260500Y-97538661D01*
X117260500Y-96470567D01*
X117260500Y-96468521D01*
X117260499Y-96468519D01*
X117248868Y-96410042D01*
X117248867Y-96410041D01*
X117204552Y-96343719D01*
X117168146Y-96319393D01*
X117148385Y-96306189D01*
X117143641Y-96302296D01*
X117138230Y-96299404D01*
X117138229Y-96299403D01*
X117079752Y-96287772D01*
X117079750Y-96287772D01*
X116040249Y-96287772D01*
X116040247Y-96287772D01*
X115981770Y-96299403D01*
X115981769Y-96299403D01*
X115981768Y-96299404D01*
X115981765Y-96299405D01*
X115981759Y-96299410D01*
X115915447Y-96343719D01*
X115871138Y-96410031D01*
X115871133Y-96410037D01*
X115871132Y-96410040D01*
X115871132Y-96410041D01*
X115871131Y-96410042D01*
X115865408Y-96438817D01*
X115859500Y-96468521D01*
X115859500Y-97620938D01*
X115857631Y-97642384D01*
X115855993Y-97651712D01*
X115854592Y-97654543D01*
X115854476Y-97655876D01*
X115853193Y-97660245D01*
X115852225Y-97659960D01*
X115848111Y-97676079D01*
X115848797Y-97676335D01*
X115847734Y-97679183D01*
X115847105Y-97680022D01*
X115846659Y-97681772D01*
X115845422Y-97684481D01*
X115844189Y-97683918D01*
X115835252Y-97695859D01*
X115832406Y-97705566D01*
X115827054Y-97710206D01*
X115825011Y-97714337D01*
X115818499Y-97718241D01*
X115809399Y-97730399D01*
X115810273Y-97731409D01*
X115809217Y-97732323D01*
X115807307Y-97733194D01*
X115805910Y-97735062D01*
X115803470Y-97736890D01*
X115802385Y-97735442D01*
X115793025Y-97739715D01*
X115779619Y-97751341D01*
X115745758Y-97761296D01*
X115744322Y-97761503D01*
X115726630Y-97762772D01*
X115719066Y-97762772D01*
X115684130Y-97757749D01*
X115658888Y-97750337D01*
X115606143Y-97719041D01*
X115526615Y-97639513D01*
X115526613Y-97639511D01*
X115423886Y-97580201D01*
X115309309Y-97549500D01*
X115309306Y-97549500D01*
X115190691Y-97549500D01*
X115099728Y-97573873D01*
X115099723Y-97573874D01*
X115076114Y-97580201D01*
X115076112Y-97580201D01*
X115076112Y-97580202D01*
X115054947Y-97592421D01*
X115054939Y-97592425D01*
X114973384Y-97639512D01*
X114973380Y-97639515D01*
X114944791Y-97668104D01*
X114944790Y-97668107D01*
X114916536Y-97689259D01*
X114906611Y-97694679D01*
X114838339Y-97709533D01*
X114772874Y-97685119D01*
X114731000Y-97629187D01*
X114728914Y-97623593D01*
X114728313Y-97621981D01*
X114720500Y-97578661D01*
X114720500Y-96470567D01*
X114720500Y-96468521D01*
X114720499Y-96468519D01*
X114708868Y-96410042D01*
X114708867Y-96410041D01*
X114664552Y-96343719D01*
X114628146Y-96319393D01*
X114608385Y-96306189D01*
X114603641Y-96302296D01*
X114598230Y-96299404D01*
X114598229Y-96299403D01*
X114539752Y-96287772D01*
X114539750Y-96287772D01*
X113500249Y-96287772D01*
X113500247Y-96287772D01*
X113441770Y-96299403D01*
X113441769Y-96299403D01*
X113441768Y-96299404D01*
X113441765Y-96299405D01*
X113441759Y-96299410D01*
X113375447Y-96343719D01*
X113331138Y-96410031D01*
X113331133Y-96410037D01*
X113331132Y-96410040D01*
X113331132Y-96410041D01*
X113331131Y-96410042D01*
X113325408Y-96438817D01*
X113319500Y-96468521D01*
X113319500Y-97615206D01*
X113319499Y-97615208D01*
X113319500Y-97615209D01*
X113314489Y-97650056D01*
X113314476Y-97650144D01*
X113311289Y-97660997D01*
X113273514Y-97719774D01*
X113209957Y-97748797D01*
X113140807Y-97738856D01*
X113133829Y-97735669D01*
X113097657Y-97710555D01*
X113026615Y-97639513D01*
X113026613Y-97639511D01*
X112923886Y-97580201D01*
X112809309Y-97549500D01*
X112809306Y-97549500D01*
X112690691Y-97549500D01*
X112599728Y-97573873D01*
X112599723Y-97573874D01*
X112576114Y-97580201D01*
X112576112Y-97580201D01*
X112576112Y-97580202D01*
X112554947Y-97592421D01*
X112554939Y-97592425D01*
X112473387Y-97639510D01*
X112404785Y-97708112D01*
X112382069Y-97725117D01*
X112376532Y-97729262D01*
X112366608Y-97734681D01*
X112298335Y-97749533D01*
X112232870Y-97725117D01*
X112190999Y-97669183D01*
X112190997Y-97669179D01*
X112188313Y-97661981D01*
X112180500Y-97618661D01*
X112180500Y-96470567D01*
X112180500Y-96468521D01*
X112180499Y-96468519D01*
X112168868Y-96410042D01*
X112168867Y-96410041D01*
X112124552Y-96343719D01*
X112088146Y-96319393D01*
X112068385Y-96306189D01*
X112063641Y-96302296D01*
X112058230Y-96299404D01*
X112058229Y-96299403D01*
X111999752Y-96287772D01*
X111999750Y-96287772D01*
X111457662Y-96287772D01*
X111424388Y-96283224D01*
X111423560Y-96282993D01*
X111418587Y-96281533D01*
X111418224Y-96281507D01*
X111412254Y-96279844D01*
X111387311Y-96264301D01*
X111361028Y-96251143D01*
X111357996Y-96246033D01*
X111352955Y-96242892D01*
X111340374Y-96216329D01*
X111325378Y-96191052D01*
X111325590Y-96185114D01*
X111323048Y-96179747D01*
X111326824Y-96150604D01*
X111327452Y-96133053D01*
X111324877Y-96132494D01*
X111325232Y-96130861D01*
X111327691Y-96126355D01*
X111327875Y-96121227D01*
X111327891Y-96121180D01*
X111328410Y-96119623D01*
X111330738Y-96120399D01*
X111332027Y-96110457D01*
X111344364Y-96095811D01*
X111358707Y-96069535D01*
X111398824Y-96029418D01*
X111427069Y-96008275D01*
X111450161Y-95995667D01*
X111509586Y-95980500D01*
X126986337Y-95980500D01*
X127021269Y-95985521D01*
X127046513Y-95992934D01*
X127099259Y-96024230D01*
X127138512Y-96063483D01*
X127158923Y-96090747D01*
X127159661Y-96091733D01*
X127165082Y-96101660D01*
X127179936Y-96169933D01*
X127155522Y-96235398D01*
X127099590Y-96277271D01*
X127099586Y-96277273D01*
X127092398Y-96279954D01*
X127049064Y-96287772D01*
X126200247Y-96287772D01*
X126141770Y-96299403D01*
X126141769Y-96299403D01*
X126141768Y-96299404D01*
X126141765Y-96299405D01*
X126141759Y-96299410D01*
X126075447Y-96343719D01*
X126031138Y-96410031D01*
X126031133Y-96410037D01*
X126031132Y-96410040D01*
X126031132Y-96410041D01*
X126031131Y-96410042D01*
X126025408Y-96438817D01*
X126019500Y-96468521D01*
X126019500Y-97573879D01*
X126019499Y-97573883D01*
X126019500Y-97573886D01*
X126014475Y-97608820D01*
X126010564Y-97622137D01*
X125972787Y-97680913D01*
X125909229Y-97709935D01*
X125909221Y-97709936D01*
X125907613Y-97710167D01*
X125849435Y-97704611D01*
X125846917Y-97703740D01*
X125844698Y-97702972D01*
X125823245Y-97693175D01*
X125808913Y-97684900D01*
X125780481Y-97655081D01*
X125707977Y-97635654D01*
X125707976Y-97635653D01*
X125644559Y-97618661D01*
X125622581Y-97612772D01*
X125622580Y-97612772D01*
X125503963Y-97612772D01*
X125413000Y-97637145D01*
X125412995Y-97637146D01*
X125389386Y-97643473D01*
X125389384Y-97643473D01*
X125389384Y-97643474D01*
X125368219Y-97655693D01*
X125368211Y-97655697D01*
X125286658Y-97702783D01*
X125286650Y-97702789D01*
X125202789Y-97786650D01*
X125202785Y-97786655D01*
X125143474Y-97889384D01*
X125143473Y-97889386D01*
X125132084Y-97931891D01*
X125128889Y-97943815D01*
X125119787Y-97958745D01*
X125114993Y-97976263D01*
X125111814Y-97981478D01*
X125098621Y-97993469D01*
X125092523Y-98003475D01*
X125081981Y-98008595D01*
X125060112Y-98028475D01*
X125030974Y-98033373D01*
X125029676Y-98034004D01*
X125028362Y-98034218D01*
X125023748Y-98034943D01*
X125022559Y-98034787D01*
X124991209Y-98040058D01*
X124959774Y-98026595D01*
X124954466Y-98025903D01*
X124950662Y-98022693D01*
X124926982Y-98012552D01*
X124911450Y-97989602D01*
X124901069Y-97980842D01*
X124897353Y-97968773D01*
X124887823Y-97954691D01*
X124886386Y-97950195D01*
X124881000Y-97915654D01*
X124880511Y-97914065D01*
X124880665Y-97913510D01*
X124880500Y-97912446D01*
X124880500Y-96468335D01*
X124880069Y-96466353D01*
X124868868Y-96410042D01*
X124865975Y-96404630D01*
X124862081Y-96399885D01*
X124860956Y-96398202D01*
X124824552Y-96343719D01*
X124788146Y-96319393D01*
X124768385Y-96306189D01*
X124763641Y-96302296D01*
X124758230Y-96299404D01*
X124758229Y-96299403D01*
X124699752Y-96287772D01*
X124699750Y-96287772D01*
X123660249Y-96287772D01*
X123660247Y-96287772D01*
X123601770Y-96299403D01*
X123601769Y-96299403D01*
X123601768Y-96299404D01*
X123601765Y-96299405D01*
X123601759Y-96299410D01*
X123535447Y-96343719D01*
X123491138Y-96410031D01*
X123491133Y-96410037D01*
X123491132Y-96410040D01*
X123491132Y-96410041D01*
X123491131Y-96410042D01*
X123485408Y-96438817D01*
X123479500Y-96468521D01*
X123479500Y-97550785D01*
X123479499Y-97550789D01*
X123479500Y-97550792D01*
X123474475Y-97585726D01*
X123470564Y-97599043D01*
X123432787Y-97657819D01*
X123369229Y-97686841D01*
X123369211Y-97686844D01*
X123367602Y-97687075D01*
X123309426Y-97681514D01*
X123304693Y-97679876D01*
X123283247Y-97670082D01*
X123237161Y-97643474D01*
X123237162Y-97643474D01*
X123226216Y-97640541D01*
X123122581Y-97612772D01*
X123122578Y-97612772D01*
X123003963Y-97612772D01*
X122913000Y-97637145D01*
X122912995Y-97637146D01*
X122889386Y-97643473D01*
X122889384Y-97643473D01*
X122889384Y-97643474D01*
X122868219Y-97655693D01*
X122868211Y-97655697D01*
X122786658Y-97702783D01*
X122786650Y-97702789D01*
X122702789Y-97786650D01*
X122702785Y-97786655D01*
X122643474Y-97889384D01*
X122643473Y-97889386D01*
X122612772Y-98003963D01*
X122612772Y-98122581D01*
X122643473Y-98237158D01*
X122702783Y-98339885D01*
X122786659Y-98423761D01*
X122889386Y-98483071D01*
X123003963Y-98513772D01*
X123003966Y-98513772D01*
X123122578Y-98513772D01*
X123122579Y-98513772D01*
X123122581Y-98513772D01*
X123237158Y-98483071D01*
X123278066Y-98459451D01*
X123278738Y-98459183D01*
X123310815Y-98446340D01*
X123324313Y-98443065D01*
X123394100Y-98446388D01*
X123451015Y-98486915D01*
X123451018Y-98486919D01*
X123452023Y-98488197D01*
X123476308Y-98541367D01*
X123476636Y-98543071D01*
X123477257Y-98546288D01*
X123479500Y-98569768D01*
X123479500Y-99658024D01*
X123491131Y-99716501D01*
X123491132Y-99716502D01*
X123491132Y-99716503D01*
X123491134Y-99716505D01*
X123535447Y-99782824D01*
X123601765Y-99827136D01*
X123601767Y-99827138D01*
X123601770Y-99827140D01*
X123652612Y-99837253D01*
X123655337Y-99837975D01*
X123660249Y-99838772D01*
X124699750Y-99838772D01*
X124703873Y-99838772D01*
X124711732Y-99836388D01*
X124731381Y-99832480D01*
X124746258Y-99829521D01*
X124752354Y-99828920D01*
X124752386Y-99828911D01*
X124763311Y-99826174D01*
X124773515Y-99816926D01*
X124824552Y-99782824D01*
X124868867Y-99716503D01*
X124868867Y-99716501D01*
X124868868Y-99716501D01*
X124871030Y-99705627D01*
X124871166Y-99705362D01*
X124871249Y-99704528D01*
X124880068Y-99660189D01*
X124880500Y-99658203D01*
X124880500Y-98215431D01*
X124885427Y-98198651D01*
X124885518Y-98180514D01*
X124886156Y-98178340D01*
X124887239Y-98174651D01*
X124896881Y-98159642D01*
X124900185Y-98148392D01*
X124909036Y-98140722D01*
X124925003Y-98115869D01*
X124951899Y-98103581D01*
X124952989Y-98102637D01*
X124954136Y-98102119D01*
X124958404Y-98100222D01*
X124959602Y-98100062D01*
X124988555Y-98086835D01*
X125022356Y-98091689D01*
X125027660Y-98090982D01*
X125032175Y-98093099D01*
X125057715Y-98096768D01*
X125078632Y-98114888D01*
X125090918Y-98120650D01*
X125097648Y-98131360D01*
X125110525Y-98142515D01*
X125110530Y-98142521D01*
X125113078Y-98146485D01*
X125127171Y-98178340D01*
X125128094Y-98179809D01*
X125128087Y-98180412D01*
X125128542Y-98181439D01*
X125143472Y-98237156D01*
X125143472Y-98237157D01*
X125151582Y-98251203D01*
X125202783Y-98339885D01*
X125286659Y-98423761D01*
X125389386Y-98483071D01*
X125503963Y-98513772D01*
X125503966Y-98513772D01*
X125622578Y-98513772D01*
X125622579Y-98513772D01*
X125622581Y-98513772D01*
X125737158Y-98483071D01*
X125737159Y-98483069D01*
X125739789Y-98482365D01*
X125744674Y-98479957D01*
X125744769Y-98479917D01*
X125751302Y-98474904D01*
X125760146Y-98469799D01*
X125818064Y-98436359D01*
X125850820Y-98423245D01*
X125864312Y-98419972D01*
X125934101Y-98423295D01*
X125990997Y-98463799D01*
X125991013Y-98463820D01*
X125991014Y-98463821D01*
X125991016Y-98463822D01*
X125991016Y-98463824D01*
X125992001Y-98465075D01*
X126016309Y-98518281D01*
X126017258Y-98523204D01*
X126019500Y-98546675D01*
X126019500Y-99658024D01*
X126031131Y-99716501D01*
X126031132Y-99716502D01*
X126031132Y-99716503D01*
X126031134Y-99716505D01*
X126075447Y-99782824D01*
X126141765Y-99827136D01*
X126141767Y-99827138D01*
X126141770Y-99827140D01*
X126192612Y-99837253D01*
X126195337Y-99837975D01*
X126200249Y-99838772D01*
X127239750Y-99838772D01*
X127243873Y-99838772D01*
X127251732Y-99836388D01*
X127271381Y-99832480D01*
X127286258Y-99829521D01*
X127292354Y-99828920D01*
X127292386Y-99828911D01*
X127303311Y-99826174D01*
X127313515Y-99816926D01*
X127364552Y-99782824D01*
X127408867Y-99716503D01*
X127408867Y-99716501D01*
X127408868Y-99716501D01*
X127411030Y-99705627D01*
X127411166Y-99705362D01*
X127411249Y-99704528D01*
X127420068Y-99660189D01*
X127420500Y-99658203D01*
X127420500Y-96662660D01*
X127425047Y-96629390D01*
X127425283Y-96628541D01*
X127426738Y-96623587D01*
X127426763Y-96623225D01*
X127428426Y-96617258D01*
X127443959Y-96592328D01*
X127457105Y-96566053D01*
X127462226Y-96563012D01*
X127465376Y-96557958D01*
X127491925Y-96545382D01*
X127517186Y-96530387D01*
X127523138Y-96530598D01*
X127528520Y-96528049D01*
X127557654Y-96531823D01*
X127575235Y-96532447D01*
X127575794Y-96529880D01*
X127577426Y-96530235D01*
X127581911Y-96532684D01*
X127587011Y-96532865D01*
X127587069Y-96532884D01*
X127588627Y-96533403D01*
X127587850Y-96535734D01*
X127597810Y-96537025D01*
X127612459Y-96549364D01*
X127638749Y-96563720D01*
X127790574Y-96715545D01*
X127811723Y-96743796D01*
X127824331Y-96766885D01*
X127839500Y-96826314D01*
X127839500Y-100809563D01*
X127853150Y-100860509D01*
X127853151Y-100860509D01*
X127853152Y-100860513D01*
X127859979Y-100885990D01*
X127859980Y-100885991D01*
X127859981Y-100885995D01*
X127860003Y-100886048D01*
X127860489Y-100886873D01*
X127897689Y-100951307D01*
X127899074Y-100953882D01*
X127899458Y-100954429D01*
X128734492Y-101789463D01*
X128735172Y-101789953D01*
X128737667Y-101791295D01*
X128803004Y-101829017D01*
X128803011Y-101829021D01*
X128879438Y-101849500D01*
X135755337Y-101849500D01*
X135787070Y-101854062D01*
X135790269Y-101854521D01*
X135815513Y-101861934D01*
X135868259Y-101893230D01*
X140215489Y-106240460D01*
X140284012Y-106280022D01*
X140316620Y-106288759D01*
X140346523Y-106301145D01*
X140373838Y-106316915D01*
X140399520Y-106336622D01*
X140423387Y-106360489D01*
X140526114Y-106419799D01*
X140640691Y-106450500D01*
X140656337Y-106450500D01*
X140684112Y-106454493D01*
X140691269Y-106455521D01*
X140716513Y-106462934D01*
X140769259Y-106494230D01*
X140815541Y-106540512D01*
X140816058Y-106540892D01*
X140818678Y-106542302D01*
X140848538Y-106559541D01*
X140884011Y-106580021D01*
X140960438Y-106600500D01*
X140960440Y-106600500D01*
X144246667Y-106600500D01*
X144246669Y-106600500D01*
X144323096Y-106580021D01*
X144391618Y-106540460D01*
X144447567Y-106484511D01*
X144732659Y-106199418D01*
X144760904Y-106178275D01*
X144783996Y-106165667D01*
X144843421Y-106150500D01*
X144859306Y-106150500D01*
X144859309Y-106150500D01*
X144973886Y-106119799D01*
X145076613Y-106060489D01*
X145160489Y-105976613D01*
X145219799Y-105873886D01*
X145250500Y-105759309D01*
X145250500Y-105640691D01*
X145219799Y-105526114D01*
X145160489Y-105423387D01*
X145076613Y-105339511D01*
X144973886Y-105280201D01*
X144859309Y-105249500D01*
X144859306Y-105249500D01*
X144740691Y-105249500D01*
X144649728Y-105273873D01*
X144649723Y-105273874D01*
X144626114Y-105280201D01*
X144626112Y-105280201D01*
X144626112Y-105280202D01*
X144604946Y-105292422D01*
X144604937Y-105292426D01*
X144523390Y-105339509D01*
X144523383Y-105339514D01*
X144479684Y-105383213D01*
X144451430Y-105404363D01*
X144439249Y-105411014D01*
X144370975Y-105425865D01*
X144305512Y-105401447D01*
X144305510Y-105401445D01*
X144298707Y-105396352D01*
X144265631Y-105359085D01*
X144240472Y-105315509D01*
X144240464Y-105315495D01*
X144240458Y-105315487D01*
X144240456Y-105315485D01*
X144240453Y-105315481D01*
X141365663Y-102440691D01*
X147449500Y-102440691D01*
X147449500Y-102559309D01*
X147480201Y-102673886D01*
X147539511Y-102776613D01*
X147623387Y-102860489D01*
X147726114Y-102919799D01*
X147840691Y-102950500D01*
X147840694Y-102950500D01*
X147959306Y-102950500D01*
X147959309Y-102950500D01*
X148073886Y-102919799D01*
X148176613Y-102860489D01*
X148260489Y-102776613D01*
X148260490Y-102776610D01*
X148265442Y-102770159D01*
X148265690Y-102770349D01*
X148281540Y-102750195D01*
X148295161Y-102737208D01*
X148351496Y-102706450D01*
X148361622Y-102703993D01*
X148390849Y-102700500D01*
X151794206Y-102700500D01*
X151829138Y-102705521D01*
X151854382Y-102712934D01*
X151907128Y-102744230D01*
X151923387Y-102760489D01*
X152026114Y-102819799D01*
X152140691Y-102850500D01*
X152140694Y-102850500D01*
X152259306Y-102850500D01*
X152259309Y-102850500D01*
X152373886Y-102819799D01*
X152476613Y-102760489D01*
X152560489Y-102676613D01*
X152619799Y-102573886D01*
X152650500Y-102459309D01*
X152650500Y-102340691D01*
X152619799Y-102226114D01*
X152560489Y-102123387D01*
X152476613Y-102039511D01*
X152373886Y-101980201D01*
X152259309Y-101949500D01*
X152259306Y-101949500D01*
X152140691Y-101949500D01*
X152049728Y-101973873D01*
X152049723Y-101973874D01*
X152026114Y-101980201D01*
X152026112Y-101980201D01*
X152026112Y-101980202D01*
X152004947Y-101992421D01*
X152004939Y-101992425D01*
X151923386Y-102039511D01*
X151923383Y-102039513D01*
X151912326Y-102050570D01*
X151912325Y-102050572D01*
X151912322Y-102050574D01*
X151884071Y-102071724D01*
X151860984Y-102084331D01*
X151801555Y-102099500D01*
X148156862Y-102099500D01*
X148124768Y-102095274D01*
X148091474Y-102086352D01*
X148075406Y-102080608D01*
X148045238Y-102072524D01*
X148045238Y-102072523D01*
X147959310Y-102049500D01*
X147959309Y-102049500D01*
X147840691Y-102049500D01*
X147749728Y-102073873D01*
X147749723Y-102073874D01*
X147726114Y-102080201D01*
X147726112Y-102080201D01*
X147726112Y-102080202D01*
X147704947Y-102092421D01*
X147704939Y-102092425D01*
X147623386Y-102139511D01*
X147623378Y-102139517D01*
X147539517Y-102223378D01*
X147539513Y-102223383D01*
X147480202Y-102326112D01*
X147480201Y-102326114D01*
X147449500Y-102440691D01*
X141365663Y-102440691D01*
X140465663Y-101540691D01*
X161049500Y-101540691D01*
X161049500Y-101659309D01*
X161080201Y-101773886D01*
X161139511Y-101876613D01*
X161223387Y-101960489D01*
X161326114Y-102019799D01*
X161440691Y-102050500D01*
X161440694Y-102050500D01*
X161559306Y-102050500D01*
X161559309Y-102050500D01*
X161673886Y-102019799D01*
X161776613Y-101960489D01*
X161787683Y-101949418D01*
X161815928Y-101928275D01*
X161839020Y-101915667D01*
X161898445Y-101900500D01*
X163594206Y-101900500D01*
X163629138Y-101905521D01*
X163654382Y-101912934D01*
X163707128Y-101944230D01*
X163723387Y-101960489D01*
X163826114Y-102019799D01*
X163940691Y-102050500D01*
X163940694Y-102050500D01*
X164059306Y-102050500D01*
X164059309Y-102050500D01*
X164173886Y-102019799D01*
X164276613Y-101960489D01*
X164360489Y-101876613D01*
X164419799Y-101773886D01*
X164450500Y-101659309D01*
X164450500Y-101540691D01*
X164419799Y-101426114D01*
X164360489Y-101323387D01*
X164276613Y-101239511D01*
X164173886Y-101180201D01*
X164059309Y-101149500D01*
X164059306Y-101149500D01*
X163940691Y-101149500D01*
X163849728Y-101173873D01*
X163849723Y-101173874D01*
X163826114Y-101180201D01*
X163826112Y-101180201D01*
X163826112Y-101180202D01*
X163804947Y-101192421D01*
X163804939Y-101192425D01*
X163723386Y-101239511D01*
X163723383Y-101239513D01*
X163712326Y-101250570D01*
X163712325Y-101250572D01*
X163712322Y-101250574D01*
X163684071Y-101271724D01*
X163660984Y-101284331D01*
X163601555Y-101299500D01*
X161905794Y-101299500D01*
X161870858Y-101294477D01*
X161845616Y-101287065D01*
X161792871Y-101255769D01*
X161776615Y-101239513D01*
X161776613Y-101239511D01*
X161673886Y-101180201D01*
X161559309Y-101149500D01*
X161559306Y-101149500D01*
X161440691Y-101149500D01*
X161349728Y-101173873D01*
X161349723Y-101173874D01*
X161326114Y-101180201D01*
X161326112Y-101180201D01*
X161326112Y-101180202D01*
X161304947Y-101192421D01*
X161304939Y-101192425D01*
X161223386Y-101239511D01*
X161223378Y-101239517D01*
X161139517Y-101323378D01*
X161139513Y-101323383D01*
X161084207Y-101419176D01*
X161080201Y-101426114D01*
X161049500Y-101540691D01*
X140465663Y-101540691D01*
X139184517Y-100259545D01*
X139184515Y-100259544D01*
X139184512Y-100259541D01*
X139184504Y-100259535D01*
X139159164Y-100244905D01*
X139116872Y-100220488D01*
X139116050Y-100220004D01*
X139115995Y-100219981D01*
X139115991Y-100219980D01*
X139115990Y-100219979D01*
X139090513Y-100213152D01*
X139090509Y-100213150D01*
X139039563Y-100199500D01*
X139039562Y-100199500D01*
X139039560Y-100199500D01*
X134430391Y-100199500D01*
X134398151Y-100195235D01*
X134396769Y-100194863D01*
X134383120Y-100190855D01*
X134376687Y-100189455D01*
X134373751Y-100188665D01*
X134346427Y-100171964D01*
X134318311Y-100156612D01*
X134224759Y-100063060D01*
X134203610Y-100034810D01*
X134198188Y-100024880D01*
X134183335Y-99956610D01*
X134207749Y-99891145D01*
X134263679Y-99849273D01*
X134267558Y-99847826D01*
X134270894Y-99846583D01*
X134314208Y-99838772D01*
X134863873Y-99838772D01*
X134871732Y-99836388D01*
X134891381Y-99832480D01*
X134906258Y-99829521D01*
X134912354Y-99828920D01*
X134912386Y-99828911D01*
X134923311Y-99826174D01*
X134933515Y-99816926D01*
X134984552Y-99782824D01*
X135028867Y-99716503D01*
X135028867Y-99716501D01*
X135028868Y-99716501D01*
X135031030Y-99705627D01*
X135031166Y-99705362D01*
X135031249Y-99704528D01*
X135040068Y-99660189D01*
X135040500Y-99658203D01*
X135040500Y-98595238D01*
X135045522Y-98560305D01*
X135046220Y-98557928D01*
X135049433Y-98546986D01*
X135087206Y-98488209D01*
X135150758Y-98459184D01*
X135152374Y-98458952D01*
X135210575Y-98464510D01*
X135218382Y-98467213D01*
X135218382Y-98467212D01*
X135221587Y-98468322D01*
X135228631Y-98471128D01*
X135233530Y-98472456D01*
X135244791Y-98476354D01*
X135246592Y-98476106D01*
X135260302Y-98478959D01*
X135340691Y-98500500D01*
X135340694Y-98500500D01*
X135459306Y-98500500D01*
X135459309Y-98500500D01*
X135573886Y-98469799D01*
X135676613Y-98410489D01*
X135760489Y-98326613D01*
X135819799Y-98223886D01*
X135850500Y-98109309D01*
X135850500Y-97990691D01*
X135819799Y-97876114D01*
X135760489Y-97773387D01*
X135676613Y-97689511D01*
X135573886Y-97630201D01*
X135459309Y-97599500D01*
X135459306Y-97599500D01*
X135340689Y-97599500D01*
X135260150Y-97621079D01*
X135260151Y-97621080D01*
X135232609Y-97628460D01*
X135229745Y-97629191D01*
X135209399Y-97634126D01*
X135195682Y-97637452D01*
X135125892Y-97634126D01*
X135068981Y-97593597D01*
X135067976Y-97592319D01*
X135043687Y-97539126D01*
X135042739Y-97534205D01*
X135040500Y-97510748D01*
X135040500Y-96470998D01*
X135040500Y-96468521D01*
X135040499Y-96468519D01*
X136179500Y-96468519D01*
X136179500Y-99658024D01*
X136191131Y-99716501D01*
X136191132Y-99716502D01*
X136191132Y-99716503D01*
X136191134Y-99716505D01*
X136235447Y-99782824D01*
X136301765Y-99827136D01*
X136301767Y-99827138D01*
X136301770Y-99827140D01*
X136352612Y-99837253D01*
X136355337Y-99837975D01*
X136360249Y-99838772D01*
X137399750Y-99838772D01*
X137403873Y-99838772D01*
X137411732Y-99836388D01*
X137431381Y-99832480D01*
X137446258Y-99829521D01*
X137452354Y-99828920D01*
X137452386Y-99828911D01*
X137463311Y-99826174D01*
X137473515Y-99816926D01*
X137524552Y-99782824D01*
X137568867Y-99716503D01*
X137568867Y-99716501D01*
X137568868Y-99716501D01*
X137571030Y-99705627D01*
X137571166Y-99705362D01*
X137571249Y-99704528D01*
X137580068Y-99660189D01*
X137580500Y-99658203D01*
X137580500Y-98623608D01*
X137585522Y-98588675D01*
X137589433Y-98575356D01*
X137627206Y-98516579D01*
X137690758Y-98487554D01*
X137696436Y-98486737D01*
X137699183Y-98486343D01*
X137748919Y-98489306D01*
X137790691Y-98500500D01*
X137790694Y-98500500D01*
X137909306Y-98500500D01*
X137909309Y-98500500D01*
X138023886Y-98469799D01*
X138126613Y-98410489D01*
X138210489Y-98326613D01*
X138269799Y-98223886D01*
X138300500Y-98109309D01*
X138300500Y-97990691D01*
X138269799Y-97876114D01*
X138210489Y-97773387D01*
X138126613Y-97689511D01*
X138023886Y-97630201D01*
X137909309Y-97599500D01*
X137909306Y-97599500D01*
X137790689Y-97599500D01*
X137753810Y-97609381D01*
X137718771Y-97613570D01*
X137704897Y-97613240D01*
X137638345Y-97591967D01*
X137593860Y-97538091D01*
X137590508Y-97530264D01*
X137580500Y-97481460D01*
X137580500Y-96470998D01*
X137580500Y-96468521D01*
X137580499Y-96468519D01*
X138719500Y-96468519D01*
X138719500Y-99658024D01*
X138731131Y-99716501D01*
X138731132Y-99716502D01*
X138731132Y-99716503D01*
X138731134Y-99716505D01*
X138775447Y-99782824D01*
X138841765Y-99827136D01*
X138841767Y-99827138D01*
X138841770Y-99827140D01*
X138892612Y-99837253D01*
X138895337Y-99837975D01*
X138900249Y-99838772D01*
X139939750Y-99838772D01*
X139943873Y-99838772D01*
X139951732Y-99836388D01*
X139971381Y-99832480D01*
X139986258Y-99829521D01*
X139992354Y-99828920D01*
X139992386Y-99828911D01*
X140003311Y-99826174D01*
X140013515Y-99816926D01*
X140064552Y-99782824D01*
X140108867Y-99716503D01*
X140108867Y-99716501D01*
X140108868Y-99716501D01*
X140111030Y-99705627D01*
X140111166Y-99705362D01*
X140111249Y-99704528D01*
X140120068Y-99660189D01*
X140120500Y-99658203D01*
X140120500Y-98557531D01*
X140125522Y-98522598D01*
X140126978Y-98517640D01*
X140129433Y-98509279D01*
X140167206Y-98450502D01*
X140230758Y-98421477D01*
X140239180Y-98420266D01*
X140288917Y-98423228D01*
X140390691Y-98450500D01*
X140390694Y-98450500D01*
X140509306Y-98450500D01*
X140509309Y-98450500D01*
X140623886Y-98419799D01*
X140726613Y-98360489D01*
X140810489Y-98276613D01*
X140869799Y-98173886D01*
X140900500Y-98059309D01*
X140900500Y-97940691D01*
X140869799Y-97826114D01*
X140810489Y-97723387D01*
X140726613Y-97639511D01*
X140623886Y-97580201D01*
X140509309Y-97549500D01*
X140509306Y-97549500D01*
X140390689Y-97549500D01*
X140293813Y-97575457D01*
X140258772Y-97579647D01*
X140244898Y-97579317D01*
X140178346Y-97558044D01*
X140133860Y-97504167D01*
X140133856Y-97504159D01*
X140130509Y-97496342D01*
X140120500Y-97447535D01*
X140120500Y-96470998D01*
X140120500Y-96468521D01*
X140120499Y-96468519D01*
X141259500Y-96468519D01*
X141259500Y-99658024D01*
X141271131Y-99716501D01*
X141271132Y-99716502D01*
X141271132Y-99716503D01*
X141271134Y-99716505D01*
X141315447Y-99782824D01*
X141381765Y-99827136D01*
X141381767Y-99827138D01*
X141381770Y-99827140D01*
X141432612Y-99837253D01*
X141435337Y-99837975D01*
X141440249Y-99838772D01*
X142479750Y-99838772D01*
X142483873Y-99838772D01*
X142491732Y-99836388D01*
X142511381Y-99832480D01*
X142526258Y-99829521D01*
X142532354Y-99828920D01*
X142532386Y-99828911D01*
X142543311Y-99826174D01*
X142553515Y-99816926D01*
X142604552Y-99782824D01*
X142648867Y-99716503D01*
X142648867Y-99716501D01*
X142648868Y-99716501D01*
X142651030Y-99705627D01*
X142651166Y-99705362D01*
X142651249Y-99704528D01*
X142660068Y-99660189D01*
X142660500Y-99658203D01*
X142660500Y-98554607D01*
X142665522Y-98519674D01*
X142669433Y-98506355D01*
X142707206Y-98447578D01*
X142770758Y-98418553D01*
X142776600Y-98417713D01*
X142827048Y-98420871D01*
X142859070Y-98429656D01*
X142868344Y-98431114D01*
X142940691Y-98450500D01*
X142940694Y-98450500D01*
X143059306Y-98450500D01*
X143059309Y-98450500D01*
X143173886Y-98419799D01*
X143276613Y-98360489D01*
X143360489Y-98276613D01*
X143419799Y-98173886D01*
X143450500Y-98059309D01*
X143450500Y-97940691D01*
X143419799Y-97826114D01*
X143360489Y-97723387D01*
X143276613Y-97639511D01*
X143173886Y-97580201D01*
X143059309Y-97549500D01*
X143059306Y-97549500D01*
X142940691Y-97549500D01*
X142846492Y-97574740D01*
X142827609Y-97578259D01*
X142800383Y-97581176D01*
X142731628Y-97568746D01*
X142680509Y-97521117D01*
X142678284Y-97517363D01*
X142677822Y-97516583D01*
X142660500Y-97453371D01*
X142660500Y-96470998D01*
X142660500Y-96468521D01*
X142660499Y-96468519D01*
X143799500Y-96468519D01*
X143799500Y-99658024D01*
X143811131Y-99716501D01*
X143811132Y-99716502D01*
X143811132Y-99716503D01*
X143811134Y-99716505D01*
X143855447Y-99782824D01*
X143921765Y-99827136D01*
X143921767Y-99827138D01*
X143921770Y-99827140D01*
X143972612Y-99837253D01*
X143975337Y-99837975D01*
X143980249Y-99838772D01*
X145019750Y-99838772D01*
X145023873Y-99838772D01*
X145031732Y-99836388D01*
X145051381Y-99832480D01*
X145066258Y-99829521D01*
X145072354Y-99828920D01*
X145072386Y-99828911D01*
X145083311Y-99826174D01*
X145093515Y-99816926D01*
X145144552Y-99782824D01*
X145188867Y-99716503D01*
X145188867Y-99716501D01*
X145188868Y-99716501D01*
X145191030Y-99705627D01*
X145191166Y-99705362D01*
X145191249Y-99704528D01*
X145200068Y-99660189D01*
X145200500Y-99658203D01*
X145200500Y-98505596D01*
X145202369Y-98484147D01*
X145204006Y-98474826D01*
X145205405Y-98471996D01*
X145205522Y-98470665D01*
X145206805Y-98466295D01*
X145207776Y-98466580D01*
X145211879Y-98450507D01*
X145211187Y-98450249D01*
X145212248Y-98447403D01*
X145212891Y-98446543D01*
X145213349Y-98444750D01*
X145214587Y-98442040D01*
X145215834Y-98442610D01*
X145224777Y-98430660D01*
X145227657Y-98420875D01*
X145232976Y-98416270D01*
X145234990Y-98412202D01*
X145241520Y-98408286D01*
X145250520Y-98396259D01*
X145249623Y-98395224D01*
X145250679Y-98394308D01*
X145252658Y-98393402D01*
X145254110Y-98391463D01*
X145254147Y-98391436D01*
X145256586Y-98389611D01*
X145257698Y-98391097D01*
X145266954Y-98386864D01*
X145280488Y-98375152D01*
X145314093Y-98365306D01*
X145314216Y-98365250D01*
X145315800Y-98365022D01*
X145333370Y-98363772D01*
X145429173Y-98363772D01*
X145445346Y-98364831D01*
X145461333Y-98366936D01*
X145477220Y-98370095D01*
X145590691Y-98400500D01*
X145590694Y-98400500D01*
X145709306Y-98400500D01*
X145709309Y-98400500D01*
X145823886Y-98369799D01*
X145926613Y-98310489D01*
X146010489Y-98226613D01*
X146069799Y-98123886D01*
X146100500Y-98009309D01*
X146100500Y-97890691D01*
X146069799Y-97776114D01*
X146010489Y-97673387D01*
X145926613Y-97589511D01*
X145823886Y-97530201D01*
X145709309Y-97499500D01*
X145709306Y-97499500D01*
X145590694Y-97499500D01*
X145590691Y-97499500D01*
X145526937Y-97516583D01*
X145476112Y-97530201D01*
X145476111Y-97530202D01*
X145401938Y-97573026D01*
X145401934Y-97573027D01*
X145401933Y-97573029D01*
X145369166Y-97586145D01*
X145355680Y-97589416D01*
X145285890Y-97586088D01*
X145229002Y-97545587D01*
X145228682Y-97545180D01*
X145227997Y-97544309D01*
X145203686Y-97491083D01*
X145202737Y-97486158D01*
X145200500Y-97462711D01*
X145200500Y-96470567D01*
X145200500Y-96468521D01*
X145200499Y-96468519D01*
X146339500Y-96468519D01*
X146339500Y-99658024D01*
X146351131Y-99716501D01*
X146351132Y-99716502D01*
X146351132Y-99716503D01*
X146351134Y-99716505D01*
X146395447Y-99782824D01*
X146461765Y-99827136D01*
X146461767Y-99827138D01*
X146461770Y-99827140D01*
X146512612Y-99837253D01*
X146515337Y-99837975D01*
X146520249Y-99838772D01*
X147559750Y-99838772D01*
X147563873Y-99838772D01*
X147571732Y-99836388D01*
X147591381Y-99832480D01*
X147606258Y-99829521D01*
X147612354Y-99828920D01*
X147612386Y-99828911D01*
X147623311Y-99826174D01*
X147633515Y-99816926D01*
X147684552Y-99782824D01*
X147728867Y-99716503D01*
X147728867Y-99716501D01*
X147728868Y-99716501D01*
X147731030Y-99705627D01*
X147731166Y-99705362D01*
X147731249Y-99704528D01*
X147740068Y-99660189D01*
X147740500Y-99658203D01*
X147740500Y-98537502D01*
X147745522Y-98502569D01*
X147749433Y-98489250D01*
X147787206Y-98430473D01*
X147850758Y-98401448D01*
X147852399Y-98401212D01*
X147910581Y-98406776D01*
X147915313Y-98408414D01*
X147936751Y-98418205D01*
X147983205Y-98445025D01*
X148026114Y-98469799D01*
X148140691Y-98500500D01*
X148140694Y-98500500D01*
X148259306Y-98500500D01*
X148259309Y-98500500D01*
X148373886Y-98469799D01*
X148476613Y-98410489D01*
X148560489Y-98326613D01*
X148619799Y-98223886D01*
X148650500Y-98109309D01*
X148650500Y-97990691D01*
X148619799Y-97876114D01*
X148560489Y-97773387D01*
X148476613Y-97689511D01*
X148373886Y-97630201D01*
X148259309Y-97599500D01*
X148259306Y-97599500D01*
X148140691Y-97599500D01*
X148043430Y-97625561D01*
X148043429Y-97625560D01*
X148026110Y-97630201D01*
X147941937Y-97678800D01*
X147910332Y-97691453D01*
X147909176Y-97691915D01*
X147895685Y-97695188D01*
X147825897Y-97691864D01*
X147768983Y-97651336D01*
X147768981Y-97651334D01*
X147768045Y-97650144D01*
X147767975Y-97650054D01*
X147743685Y-97596855D01*
X147742737Y-97591930D01*
X147740500Y-97568483D01*
X147740500Y-96470567D01*
X147740500Y-96468521D01*
X147740499Y-96468519D01*
X147728868Y-96410042D01*
X147728867Y-96410041D01*
X147684552Y-96343719D01*
X147648146Y-96319393D01*
X147628385Y-96306189D01*
X147623641Y-96302296D01*
X147618230Y-96299404D01*
X147618229Y-96299403D01*
X147559752Y-96287772D01*
X147559750Y-96287772D01*
X146520249Y-96287772D01*
X146520247Y-96287772D01*
X146461770Y-96299403D01*
X146461769Y-96299403D01*
X146461768Y-96299404D01*
X146461765Y-96299405D01*
X146461759Y-96299410D01*
X146395447Y-96343719D01*
X146351138Y-96410031D01*
X146351133Y-96410037D01*
X146351132Y-96410040D01*
X146351132Y-96410041D01*
X146351131Y-96410042D01*
X146339500Y-96468519D01*
X145200499Y-96468519D01*
X145188868Y-96410042D01*
X145188867Y-96410041D01*
X145144552Y-96343719D01*
X145108146Y-96319393D01*
X145088385Y-96306189D01*
X145083641Y-96302296D01*
X145078230Y-96299404D01*
X145078229Y-96299403D01*
X145019752Y-96287772D01*
X145019750Y-96287772D01*
X143980249Y-96287772D01*
X143980247Y-96287772D01*
X143921770Y-96299403D01*
X143921769Y-96299403D01*
X143921768Y-96299404D01*
X143921765Y-96299405D01*
X143921759Y-96299410D01*
X143855447Y-96343719D01*
X143811138Y-96410031D01*
X143811133Y-96410037D01*
X143811132Y-96410040D01*
X143811132Y-96410041D01*
X143811131Y-96410042D01*
X143799500Y-96468519D01*
X142660499Y-96468519D01*
X142659361Y-96462800D01*
X142659360Y-96462789D01*
X142648868Y-96410042D01*
X142645975Y-96404630D01*
X142642081Y-96399885D01*
X142640956Y-96398202D01*
X142604552Y-96343719D01*
X142568146Y-96319393D01*
X142548385Y-96306189D01*
X142543641Y-96302296D01*
X142538230Y-96299404D01*
X142538229Y-96299403D01*
X142479752Y-96287772D01*
X142479750Y-96287772D01*
X141440249Y-96287772D01*
X141440247Y-96287772D01*
X141381770Y-96299403D01*
X141381769Y-96299403D01*
X141381768Y-96299404D01*
X141381765Y-96299405D01*
X141381759Y-96299410D01*
X141315447Y-96343719D01*
X141271138Y-96410031D01*
X141271133Y-96410037D01*
X141271132Y-96410040D01*
X141271132Y-96410041D01*
X141271131Y-96410042D01*
X141259500Y-96468519D01*
X140120499Y-96468519D01*
X140119361Y-96462800D01*
X140119360Y-96462789D01*
X140108868Y-96410042D01*
X140105975Y-96404630D01*
X140102081Y-96399885D01*
X140100956Y-96398202D01*
X140064552Y-96343719D01*
X140028146Y-96319393D01*
X140008385Y-96306189D01*
X140003641Y-96302296D01*
X139998230Y-96299404D01*
X139998229Y-96299403D01*
X139939752Y-96287772D01*
X139939750Y-96287772D01*
X138900249Y-96287772D01*
X138900247Y-96287772D01*
X138841770Y-96299403D01*
X138841769Y-96299403D01*
X138841768Y-96299404D01*
X138841765Y-96299405D01*
X138841759Y-96299410D01*
X138775447Y-96343719D01*
X138731138Y-96410031D01*
X138731133Y-96410037D01*
X138731132Y-96410040D01*
X138731132Y-96410041D01*
X138731131Y-96410042D01*
X138719500Y-96468519D01*
X137580499Y-96468519D01*
X137579361Y-96462800D01*
X137579360Y-96462789D01*
X137568868Y-96410042D01*
X137565975Y-96404630D01*
X137562081Y-96399885D01*
X137560956Y-96398202D01*
X137524552Y-96343719D01*
X137488146Y-96319393D01*
X137468385Y-96306189D01*
X137463641Y-96302296D01*
X137458230Y-96299404D01*
X137458229Y-96299403D01*
X137399752Y-96287772D01*
X137399750Y-96287772D01*
X136360249Y-96287772D01*
X136360247Y-96287772D01*
X136301770Y-96299403D01*
X136301769Y-96299403D01*
X136301768Y-96299404D01*
X136301765Y-96299405D01*
X136301759Y-96299410D01*
X136235447Y-96343719D01*
X136191138Y-96410031D01*
X136191133Y-96410037D01*
X136191132Y-96410040D01*
X136191132Y-96410041D01*
X136191131Y-96410042D01*
X136179500Y-96468519D01*
X135040499Y-96468519D01*
X135039361Y-96462800D01*
X135039360Y-96462789D01*
X135028868Y-96410042D01*
X135025975Y-96404630D01*
X135022081Y-96399885D01*
X135020956Y-96398202D01*
X134984552Y-96343719D01*
X134948146Y-96319393D01*
X134928385Y-96306189D01*
X134923641Y-96302296D01*
X134918230Y-96299404D01*
X134918229Y-96299403D01*
X134859752Y-96287772D01*
X134859750Y-96287772D01*
X133820249Y-96287772D01*
X133820247Y-96287772D01*
X133761770Y-96299403D01*
X133761769Y-96299403D01*
X133761768Y-96299404D01*
X133761765Y-96299405D01*
X133761759Y-96299410D01*
X133695447Y-96343719D01*
X133651138Y-96410031D01*
X133651133Y-96410037D01*
X133651132Y-96410040D01*
X133651132Y-96410041D01*
X133651131Y-96410042D01*
X133645408Y-96438817D01*
X133639500Y-96468521D01*
X133639500Y-99160609D01*
X133639499Y-99160611D01*
X133639500Y-99160612D01*
X133634476Y-99195547D01*
X133631289Y-99206400D01*
X133593514Y-99265177D01*
X133529957Y-99294200D01*
X133460807Y-99284259D01*
X133453829Y-99281072D01*
X133417657Y-99255958D01*
X132878894Y-98717195D01*
X132857745Y-98688945D01*
X132851090Y-98676757D01*
X132847295Y-98659312D01*
X132838746Y-98643640D01*
X132840023Y-98625883D01*
X132836239Y-98608487D01*
X132842478Y-98591758D01*
X132843759Y-98573951D01*
X132860636Y-98543071D01*
X132860653Y-98543026D01*
X132861661Y-98541679D01*
X132906702Y-98504502D01*
X132911217Y-98502308D01*
X132917366Y-98500015D01*
X132917611Y-98499832D01*
X132917915Y-98499810D01*
X132933300Y-98494071D01*
X133023886Y-98469799D01*
X133126613Y-98410489D01*
X133210489Y-98326613D01*
X133269799Y-98223886D01*
X133300500Y-98109309D01*
X133300500Y-97990691D01*
X133269799Y-97876114D01*
X133210489Y-97773387D01*
X133126613Y-97689511D01*
X133023886Y-97630201D01*
X132909309Y-97599500D01*
X132909306Y-97599500D01*
X132790691Y-97599500D01*
X132700774Y-97623593D01*
X132677437Y-97629846D01*
X132658595Y-97633361D01*
X132648064Y-97634492D01*
X132640423Y-97635313D01*
X132571665Y-97622906D01*
X132520529Y-97575294D01*
X132520526Y-97575288D01*
X132517853Y-97570782D01*
X132500500Y-97507518D01*
X132500500Y-96470567D01*
X132500500Y-96468521D01*
X132500499Y-96468519D01*
X132488868Y-96410042D01*
X132488867Y-96410041D01*
X132444552Y-96343719D01*
X132408146Y-96319393D01*
X132388385Y-96306189D01*
X132383641Y-96302296D01*
X132378230Y-96299404D01*
X132378229Y-96299403D01*
X132319752Y-96287772D01*
X132319750Y-96287772D01*
X131280249Y-96287772D01*
X131280247Y-96287772D01*
X131221770Y-96299403D01*
X131221769Y-96299403D01*
X131221768Y-96299404D01*
X131221765Y-96299405D01*
X131221759Y-96299410D01*
X131155447Y-96343719D01*
X131111138Y-96410031D01*
X131111133Y-96410037D01*
X131111132Y-96410040D01*
X131111132Y-96410041D01*
X131111131Y-96410042D01*
X131105408Y-96438817D01*
X131099500Y-96468521D01*
X131099500Y-99160609D01*
X131099499Y-99160611D01*
X131099500Y-99160612D01*
X131094476Y-99195547D01*
X131091289Y-99206400D01*
X131053514Y-99265177D01*
X130989957Y-99294200D01*
X130920807Y-99284259D01*
X130913829Y-99281072D01*
X130877657Y-99255958D01*
X130376214Y-98754515D01*
X130355065Y-98726265D01*
X130348410Y-98714077D01*
X130344615Y-98696632D01*
X130336066Y-98680960D01*
X130337343Y-98663203D01*
X130333559Y-98645807D01*
X130339798Y-98629078D01*
X130341079Y-98611271D01*
X130357956Y-98580391D01*
X130357973Y-98580346D01*
X130358981Y-98578999D01*
X130404022Y-98541822D01*
X130408537Y-98539628D01*
X130414685Y-98537335D01*
X130414931Y-98537152D01*
X130415235Y-98537130D01*
X130430623Y-98531390D01*
X130473886Y-98519799D01*
X130576613Y-98460489D01*
X130660489Y-98376613D01*
X130719799Y-98273886D01*
X130750500Y-98159309D01*
X130750500Y-98040691D01*
X130719799Y-97926114D01*
X130660489Y-97823387D01*
X130576613Y-97739511D01*
X130473886Y-97680201D01*
X130359309Y-97649500D01*
X130359306Y-97649500D01*
X130240691Y-97649500D01*
X130146492Y-97674740D01*
X130127609Y-97678259D01*
X130100383Y-97681176D01*
X130031628Y-97668746D01*
X129980509Y-97621117D01*
X129979021Y-97618607D01*
X129977822Y-97616583D01*
X129960500Y-97553371D01*
X129960500Y-96470567D01*
X129960500Y-96468521D01*
X129960499Y-96468519D01*
X129948868Y-96410042D01*
X129948867Y-96410041D01*
X129904552Y-96343719D01*
X129868146Y-96319393D01*
X129848385Y-96306189D01*
X129843641Y-96302296D01*
X129838230Y-96299404D01*
X129838229Y-96299403D01*
X129779752Y-96287772D01*
X129779750Y-96287772D01*
X128740249Y-96287772D01*
X128740247Y-96287772D01*
X128681770Y-96299403D01*
X128681769Y-96299403D01*
X128681768Y-96299404D01*
X128681411Y-96299594D01*
X128681253Y-96299748D01*
X128615447Y-96343719D01*
X128575605Y-96403347D01*
X128571617Y-96407258D01*
X128553089Y-96430247D01*
X128495693Y-96470090D01*
X128425869Y-96472577D01*
X128420792Y-96471281D01*
X128363788Y-96438817D01*
X127620705Y-95695733D01*
X157729500Y-95695733D01*
X157729500Y-98904265D01*
X157731812Y-98928929D01*
X157731978Y-98932499D01*
X157732353Y-98934699D01*
X157732353Y-98934701D01*
X157777206Y-99062880D01*
X157777207Y-99062882D01*
X157857850Y-99172150D01*
X157967118Y-99252793D01*
X158005205Y-99266120D01*
X158095299Y-99297646D01*
X158095304Y-99297646D01*
X158095307Y-99297647D01*
X158106892Y-99298733D01*
X158125730Y-99300500D01*
X158125734Y-99300500D01*
X158125739Y-99300500D01*
X160074270Y-99300500D01*
X160074271Y-99300500D01*
X160075364Y-99300397D01*
X160104699Y-99297646D01*
X160104701Y-99297646D01*
X160194795Y-99266120D01*
X160232882Y-99252793D01*
X160342150Y-99172150D01*
X160422793Y-99062882D01*
X160445219Y-98998790D01*
X160467646Y-98934701D01*
X160467646Y-98934699D01*
X160470500Y-98904269D01*
X160470500Y-95695730D01*
X160468187Y-95671078D01*
X160468020Y-95667502D01*
X160467646Y-95665300D01*
X160467646Y-95665298D01*
X160422793Y-95537119D01*
X160422792Y-95537117D01*
X160383030Y-95483241D01*
X160342150Y-95427850D01*
X160321038Y-95412269D01*
X160295134Y-95393151D01*
X160232882Y-95347207D01*
X160232880Y-95347206D01*
X160104704Y-95302354D01*
X160104702Y-95302353D01*
X160104700Y-95302353D01*
X160074270Y-95299500D01*
X160074266Y-95299500D01*
X160074264Y-95299500D01*
X158125734Y-95299500D01*
X158125730Y-95299500D01*
X158107074Y-95301249D01*
X158101069Y-95301812D01*
X158097499Y-95301978D01*
X158095297Y-95302353D01*
X157967118Y-95347206D01*
X157857849Y-95427849D01*
X157777206Y-95537118D01*
X157732353Y-95665297D01*
X157731978Y-95667499D01*
X157731812Y-95671069D01*
X157729500Y-95695733D01*
X127620705Y-95695733D01*
X127364520Y-95439548D01*
X127364513Y-95439542D01*
X127364508Y-95439537D01*
X127364505Y-95439535D01*
X127330136Y-95419692D01*
X127330124Y-95419687D01*
X127317273Y-95412267D01*
X127295990Y-95399979D01*
X127295989Y-95399978D01*
X127295988Y-95399978D01*
X127295984Y-95399976D01*
X127270515Y-95393151D01*
X127270515Y-95393152D01*
X127219563Y-95379500D01*
X127219562Y-95379500D01*
X111362834Y-95379500D01*
X111283710Y-95379500D01*
X111283708Y-95379500D01*
X111207283Y-95399977D01*
X111207280Y-95399978D01*
X111138771Y-95439533D01*
X111138756Y-95439543D01*
X111138754Y-95439544D01*
X109864788Y-96713512D01*
X109844212Y-96728916D01*
X109836538Y-96734661D01*
X109826611Y-96740082D01*
X109758338Y-96754936D01*
X109692873Y-96730522D01*
X109651000Y-96674590D01*
X109648313Y-96667384D01*
X109640500Y-96624064D01*
X109640500Y-96470567D01*
X109640500Y-96468521D01*
X109640499Y-96468519D01*
X109628868Y-96410042D01*
X109628867Y-96410041D01*
X109584552Y-96343719D01*
X109548146Y-96319393D01*
X109528385Y-96306189D01*
X109523641Y-96302296D01*
X109518230Y-96299404D01*
X109518229Y-96299403D01*
X109459752Y-96287772D01*
X109459750Y-96287772D01*
X108420249Y-96287772D01*
X108420247Y-96287772D01*
X108361770Y-96299403D01*
X108361769Y-96299403D01*
X108361768Y-96299404D01*
X108356355Y-96302296D01*
X108351614Y-96306188D01*
X108295447Y-96343718D01*
X108295446Y-96343719D01*
X108268272Y-96384386D01*
X108268270Y-96384391D01*
X108251132Y-96410041D01*
X108251131Y-96410042D01*
X108239500Y-96468519D01*
X78500500Y-96468519D01*
X78500500Y-93874038D01*
X101399500Y-93874038D01*
X101399500Y-93878667D01*
X101399500Y-94125966D01*
X101417982Y-94242653D01*
X101417982Y-94242654D01*
X101438910Y-94374786D01*
X101438910Y-94374789D01*
X101500712Y-94564993D01*
X101516760Y-94614383D01*
X101558164Y-94695642D01*
X101586116Y-94750500D01*
X101626808Y-94830363D01*
X101631128Y-94838841D01*
X101631137Y-94838856D01*
X101766267Y-95024847D01*
X101779201Y-95042649D01*
X101779205Y-95042654D01*
X101779210Y-95042660D01*
X101957338Y-95220788D01*
X101957342Y-95220791D01*
X101957345Y-95220794D01*
X101957350Y-95220798D01*
X102065675Y-95299500D01*
X102161155Y-95368870D01*
X102276908Y-95427849D01*
X102379173Y-95479956D01*
X102386488Y-95483684D01*
X102390243Y-95484743D01*
X102551434Y-95537117D01*
X102625215Y-95561090D01*
X102874038Y-95600500D01*
X102874039Y-95600500D01*
X103125961Y-95600500D01*
X103125962Y-95600500D01*
X103374785Y-95561090D01*
X103614379Y-95483241D01*
X103838845Y-95368870D01*
X104042656Y-95220793D01*
X104220793Y-95042656D01*
X104368870Y-94838845D01*
X104483241Y-94614379D01*
X104561090Y-94374785D01*
X104600500Y-94125962D01*
X104600500Y-93874038D01*
X104561090Y-93625215D01*
X104483241Y-93385621D01*
X104483239Y-93385618D01*
X104483239Y-93385616D01*
X104435851Y-93292613D01*
X104435850Y-93292611D01*
X104423414Y-93268203D01*
X104402222Y-93226613D01*
X104402222Y-93226612D01*
X104402220Y-93226610D01*
X104400833Y-93223887D01*
X104368870Y-93161155D01*
X104282776Y-93042656D01*
X104220798Y-92957350D01*
X104220794Y-92957345D01*
X104220791Y-92957342D01*
X104220788Y-92957338D01*
X104042660Y-92779210D01*
X104042655Y-92779206D01*
X104042654Y-92779205D01*
X104042649Y-92779201D01*
X103882397Y-92662772D01*
X103849445Y-92638831D01*
X103849443Y-92638830D01*
X103838848Y-92631132D01*
X103838847Y-92631131D01*
X103838845Y-92631130D01*
X103776767Y-92599500D01*
X103744455Y-92583036D01*
X103614383Y-92516760D01*
X103538761Y-92492189D01*
X103374787Y-92438910D01*
X103286961Y-92425000D01*
X103201884Y-92411525D01*
X103125962Y-92399500D01*
X103125961Y-92399500D01*
X102874039Y-92399500D01*
X102874038Y-92399500D01*
X102798116Y-92411525D01*
X102625212Y-92438910D01*
X102625209Y-92438910D01*
X102385619Y-92516759D01*
X102385616Y-92516760D01*
X102194030Y-92614379D01*
X102161147Y-92631134D01*
X101957367Y-92779188D01*
X101957338Y-92779210D01*
X101779210Y-92957338D01*
X101779188Y-92957367D01*
X101631134Y-93161147D01*
X101516759Y-93385618D01*
X101438910Y-93625210D01*
X101438909Y-93625214D01*
X101426291Y-93704884D01*
X101426255Y-93705111D01*
X101426237Y-93705231D01*
X101399500Y-93874038D01*
X78500500Y-93874038D01*
X78500500Y-91390418D01*
X107940000Y-91390418D01*
X107940000Y-91390427D01*
X107940000Y-92763272D01*
X108300000Y-92763272D01*
X108300000Y-93263272D01*
X107940000Y-93263272D01*
X107940000Y-94636124D01*
X107946400Y-94695642D01*
X107946402Y-94695649D01*
X107966860Y-94750500D01*
X107996645Y-94830358D01*
X107996649Y-94830365D01*
X108039487Y-94887589D01*
X108082807Y-94945457D01*
X108082809Y-94945459D01*
X108082812Y-94945462D01*
X108197906Y-95031622D01*
X108197913Y-95031626D01*
X108332620Y-95081868D01*
X108332627Y-95081870D01*
X108339468Y-95082605D01*
X108392138Y-95088270D01*
X108392155Y-95088271D01*
X108392172Y-95088272D01*
X108690000Y-95088272D01*
X108690000Y-94600000D01*
X109190000Y-94600000D01*
X109190000Y-95088272D01*
X109487828Y-95088272D01*
X109487836Y-95088272D01*
X109487847Y-95088271D01*
X109523560Y-95084430D01*
X109547372Y-95081870D01*
X109547379Y-95081868D01*
X109682086Y-95031626D01*
X109682093Y-95031622D01*
X109797187Y-94945462D01*
X109797190Y-94945459D01*
X109883350Y-94830365D01*
X109883354Y-94830358D01*
X109933596Y-94695651D01*
X109933598Y-94695644D01*
X109937915Y-94655500D01*
X109939998Y-94636132D01*
X109940000Y-94636099D01*
X109940000Y-94600000D01*
X110350000Y-94600000D01*
X110350000Y-91450000D01*
X109940000Y-91450000D01*
X109940000Y-91418519D01*
X110779500Y-91418519D01*
X110779500Y-94608024D01*
X110791131Y-94666501D01*
X110791132Y-94666502D01*
X110791132Y-94666503D01*
X110791134Y-94666505D01*
X110835447Y-94732824D01*
X110901765Y-94777136D01*
X110901767Y-94777138D01*
X110901770Y-94777140D01*
X110960247Y-94788771D01*
X110960250Y-94788772D01*
X110960252Y-94788772D01*
X111022312Y-94788772D01*
X111024954Y-94788885D01*
X111028250Y-94790008D01*
X111054593Y-94793796D01*
X111064705Y-94796765D01*
X111066102Y-94797175D01*
X111124000Y-94805500D01*
X114375991Y-94805500D01*
X114376000Y-94805500D01*
X114419684Y-94800803D01*
X114461963Y-94791605D01*
X114481582Y-94788955D01*
X114484945Y-94788772D01*
X114539750Y-94788772D01*
X114539751Y-94788771D01*
X114554568Y-94785824D01*
X114586258Y-94779521D01*
X114592354Y-94778920D01*
X114592386Y-94778911D01*
X114603311Y-94776174D01*
X114613515Y-94766926D01*
X114664552Y-94732824D01*
X114708867Y-94666503D01*
X114708867Y-94666501D01*
X114708868Y-94666501D01*
X114711030Y-94655627D01*
X114711166Y-94655362D01*
X114711249Y-94654528D01*
X114714912Y-94636116D01*
X114720072Y-94610168D01*
X114720500Y-94608203D01*
X114720500Y-91418336D01*
X114720080Y-91416405D01*
X114719066Y-91411310D01*
X114719066Y-91411306D01*
X114719064Y-91411299D01*
X114711250Y-91372019D01*
X114710648Y-91365912D01*
X114708867Y-91360042D01*
X114708867Y-91360041D01*
X114668749Y-91300000D01*
X115250000Y-91300000D01*
X115250000Y-94450000D01*
X115560000Y-94450000D01*
X115560000Y-94636124D01*
X115566400Y-94695642D01*
X115566402Y-94695649D01*
X115586860Y-94750500D01*
X115616645Y-94830358D01*
X115616649Y-94830365D01*
X115659487Y-94887589D01*
X115702807Y-94945457D01*
X115702809Y-94945459D01*
X115702812Y-94945462D01*
X115817906Y-95031622D01*
X115817913Y-95031626D01*
X115952620Y-95081868D01*
X115952627Y-95081870D01*
X115959468Y-95082605D01*
X116012138Y-95088270D01*
X116012155Y-95088271D01*
X116012172Y-95088272D01*
X116310000Y-95088272D01*
X116310000Y-94450000D01*
X116810000Y-94450000D01*
X116810000Y-95088272D01*
X117107828Y-95088272D01*
X117107836Y-95088272D01*
X117107847Y-95088271D01*
X117143560Y-95084430D01*
X117167372Y-95081870D01*
X117167379Y-95081868D01*
X117302086Y-95031626D01*
X117302093Y-95031622D01*
X117417187Y-94945462D01*
X117417190Y-94945459D01*
X117503350Y-94830365D01*
X117503354Y-94830358D01*
X117553596Y-94695651D01*
X117553598Y-94695644D01*
X117557915Y-94655500D01*
X117559998Y-94636132D01*
X117560000Y-94636099D01*
X117560000Y-93263272D01*
X117300000Y-93263272D01*
X117300000Y-92763272D01*
X117560000Y-92763272D01*
X117560000Y-91579491D01*
X118346630Y-91579491D01*
X118346860Y-91593345D01*
X118346860Y-91593349D01*
X118392496Y-94331484D01*
X118392497Y-94331493D01*
X118397537Y-94373428D01*
X118397692Y-94374326D01*
X118397809Y-94375691D01*
X118397917Y-94376590D01*
X118397886Y-94376593D01*
X118399500Y-94395423D01*
X118399500Y-94608024D01*
X118411131Y-94666501D01*
X118411132Y-94666502D01*
X118411132Y-94666503D01*
X118411134Y-94666505D01*
X118455447Y-94732824D01*
X118521765Y-94777136D01*
X118521767Y-94777138D01*
X118521770Y-94777140D01*
X118572612Y-94787253D01*
X118575337Y-94787975D01*
X118580249Y-94788772D01*
X119619750Y-94788772D01*
X119623873Y-94788772D01*
X119631732Y-94786388D01*
X119651381Y-94782480D01*
X119666258Y-94779521D01*
X119672354Y-94778920D01*
X119672386Y-94778911D01*
X119683311Y-94776174D01*
X119693515Y-94766926D01*
X119744552Y-94732824D01*
X119759396Y-94710609D01*
X119813008Y-94665804D01*
X119862498Y-94655500D01*
X120877502Y-94655500D01*
X120944541Y-94675185D01*
X120960092Y-94687007D01*
X120971845Y-94697502D01*
X120995447Y-94732824D01*
X121058836Y-94775179D01*
X121059930Y-94776156D01*
X121061770Y-94777140D01*
X121112612Y-94787253D01*
X121115337Y-94787975D01*
X121120249Y-94788772D01*
X122159750Y-94788772D01*
X122163873Y-94788772D01*
X122171732Y-94786388D01*
X122191381Y-94782480D01*
X122206258Y-94779521D01*
X122212354Y-94778920D01*
X122212386Y-94778911D01*
X122223311Y-94776174D01*
X122233515Y-94766926D01*
X122284552Y-94732824D01*
X122299396Y-94710609D01*
X122353008Y-94665804D01*
X122402498Y-94655500D01*
X123417502Y-94655500D01*
X123484541Y-94675185D01*
X123500092Y-94687007D01*
X123511845Y-94697502D01*
X123535447Y-94732824D01*
X123598836Y-94775179D01*
X123599930Y-94776156D01*
X123601770Y-94777140D01*
X123652612Y-94787253D01*
X123655337Y-94787975D01*
X123660249Y-94788772D01*
X124699750Y-94788772D01*
X124703873Y-94788772D01*
X124711732Y-94786388D01*
X124731381Y-94782480D01*
X124746258Y-94779521D01*
X124752354Y-94778920D01*
X124752386Y-94778911D01*
X124763311Y-94776174D01*
X124773515Y-94766926D01*
X124824552Y-94732824D01*
X124839396Y-94710609D01*
X124893008Y-94665804D01*
X124942498Y-94655500D01*
X125957502Y-94655500D01*
X126024541Y-94675185D01*
X126040092Y-94687007D01*
X126051845Y-94697502D01*
X126075447Y-94732824D01*
X126138836Y-94775179D01*
X126139930Y-94776156D01*
X126141770Y-94777140D01*
X126192612Y-94787253D01*
X126195337Y-94787975D01*
X126200249Y-94788772D01*
X127239750Y-94788772D01*
X127243873Y-94788772D01*
X127251732Y-94786388D01*
X127271381Y-94782480D01*
X127286258Y-94779521D01*
X127292354Y-94778920D01*
X127292386Y-94778911D01*
X127303311Y-94776174D01*
X127313515Y-94766926D01*
X127364552Y-94732824D01*
X127408867Y-94666503D01*
X127408867Y-94666501D01*
X127408868Y-94666501D01*
X127411030Y-94655628D01*
X127411167Y-94655361D01*
X127411249Y-94654532D01*
X127414910Y-94636124D01*
X127416743Y-94626904D01*
X127449125Y-94564993D01*
X127458733Y-94556037D01*
X127463199Y-94552297D01*
X127481447Y-94535005D01*
X127527417Y-94455942D01*
X127548216Y-94389239D01*
X127557503Y-94331491D01*
X127603370Y-91579491D01*
X127599059Y-91534056D01*
X127599058Y-91534051D01*
X127599058Y-91534048D01*
X127587875Y-91480504D01*
X127587870Y-91480479D01*
X127585026Y-91468627D01*
X127543350Y-91390418D01*
X128260000Y-91390418D01*
X128260000Y-91390427D01*
X128260000Y-92763272D01*
X128700000Y-92763272D01*
X128700000Y-93263272D01*
X128260000Y-93263272D01*
X128260000Y-94636124D01*
X128266400Y-94695642D01*
X128266402Y-94695649D01*
X128286860Y-94750500D01*
X128316645Y-94830358D01*
X128316649Y-94830365D01*
X128359487Y-94887589D01*
X128402807Y-94945457D01*
X128402809Y-94945459D01*
X128402812Y-94945462D01*
X128517906Y-95031622D01*
X128517913Y-95031626D01*
X128652620Y-95081868D01*
X128652627Y-95081870D01*
X128659468Y-95082605D01*
X128712138Y-95088270D01*
X128712155Y-95088271D01*
X128712172Y-95088272D01*
X129010000Y-95088272D01*
X129010000Y-94600000D01*
X129510000Y-94600000D01*
X129510000Y-95088272D01*
X129807828Y-95088272D01*
X129807836Y-95088272D01*
X129807847Y-95088271D01*
X129843560Y-95084430D01*
X129867372Y-95081870D01*
X129867379Y-95081868D01*
X130002086Y-95031626D01*
X130002093Y-95031622D01*
X130117187Y-94945462D01*
X130117190Y-94945459D01*
X130203350Y-94830365D01*
X130203354Y-94830358D01*
X130253596Y-94695651D01*
X130253598Y-94695644D01*
X130257915Y-94655500D01*
X130259998Y-94636132D01*
X130260000Y-94636099D01*
X130260000Y-94600000D01*
X130800000Y-94600000D01*
X130800000Y-94636124D01*
X130806400Y-94695642D01*
X130806402Y-94695649D01*
X130826860Y-94750500D01*
X130856645Y-94830358D01*
X130856649Y-94830365D01*
X130899487Y-94887589D01*
X130942807Y-94945457D01*
X130942809Y-94945459D01*
X130942812Y-94945462D01*
X131057906Y-95031622D01*
X131057913Y-95031626D01*
X131192620Y-95081868D01*
X131192627Y-95081870D01*
X131199468Y-95082605D01*
X131252138Y-95088270D01*
X131252155Y-95088271D01*
X131252172Y-95088272D01*
X131550000Y-95088272D01*
X131550000Y-94600000D01*
X132050000Y-94600000D01*
X132050000Y-95088272D01*
X132347828Y-95088272D01*
X132347836Y-95088272D01*
X132347847Y-95088271D01*
X132383560Y-95084430D01*
X132407372Y-95081870D01*
X132407379Y-95081868D01*
X132542086Y-95031626D01*
X132542093Y-95031622D01*
X132657187Y-94945462D01*
X132657190Y-94945459D01*
X132743350Y-94830365D01*
X132743354Y-94830358D01*
X132793596Y-94695651D01*
X132793598Y-94695644D01*
X132797915Y-94655500D01*
X132799998Y-94636132D01*
X132800000Y-94636099D01*
X132800000Y-94600000D01*
X133340000Y-94600000D01*
X133340000Y-94636124D01*
X133346400Y-94695642D01*
X133346402Y-94695649D01*
X133366860Y-94750500D01*
X133396645Y-94830358D01*
X133396649Y-94830365D01*
X133439487Y-94887589D01*
X133482807Y-94945457D01*
X133482809Y-94945459D01*
X133482812Y-94945462D01*
X133597906Y-95031622D01*
X133597913Y-95031626D01*
X133732620Y-95081868D01*
X133732627Y-95081870D01*
X133739468Y-95082605D01*
X133792138Y-95088270D01*
X133792155Y-95088271D01*
X133792172Y-95088272D01*
X134090000Y-95088272D01*
X134090000Y-94600000D01*
X134590000Y-94600000D01*
X134590000Y-95088272D01*
X134887828Y-95088272D01*
X134887836Y-95088272D01*
X134887847Y-95088271D01*
X134923560Y-95084430D01*
X134947372Y-95081870D01*
X134947379Y-95081868D01*
X135082086Y-95031626D01*
X135082093Y-95031622D01*
X135197187Y-94945462D01*
X135197190Y-94945459D01*
X135283350Y-94830365D01*
X135283354Y-94830358D01*
X135333596Y-94695651D01*
X135333598Y-94695644D01*
X135337915Y-94655500D01*
X135339998Y-94636132D01*
X135340000Y-94636099D01*
X135340000Y-94600000D01*
X135880000Y-94600000D01*
X135880000Y-94636124D01*
X135886400Y-94695642D01*
X135886402Y-94695649D01*
X135906860Y-94750500D01*
X135936645Y-94830358D01*
X135936649Y-94830365D01*
X135979487Y-94887589D01*
X136022807Y-94945457D01*
X136022809Y-94945459D01*
X136022812Y-94945462D01*
X136137906Y-95031622D01*
X136137913Y-95031626D01*
X136272620Y-95081868D01*
X136272627Y-95081870D01*
X136279468Y-95082605D01*
X136332138Y-95088270D01*
X136332155Y-95088271D01*
X136332172Y-95088272D01*
X136630000Y-95088272D01*
X136630000Y-94600000D01*
X137130000Y-94600000D01*
X137130000Y-95088272D01*
X137427828Y-95088272D01*
X137427836Y-95088272D01*
X137427847Y-95088271D01*
X137463560Y-95084430D01*
X137487372Y-95081870D01*
X137487379Y-95081868D01*
X137622086Y-95031626D01*
X137622093Y-95031622D01*
X137737187Y-94945462D01*
X137737190Y-94945459D01*
X137823350Y-94830365D01*
X137823354Y-94830358D01*
X137873596Y-94695651D01*
X137873598Y-94695644D01*
X137877915Y-94655500D01*
X137879998Y-94636132D01*
X137880000Y-94636099D01*
X137880000Y-93263272D01*
X137400000Y-93263272D01*
X137400000Y-92763272D01*
X137880000Y-92763272D01*
X137880000Y-91418519D01*
X138719500Y-91418519D01*
X138719500Y-94608024D01*
X138731131Y-94666501D01*
X138731132Y-94666502D01*
X138731132Y-94666503D01*
X138731134Y-94666505D01*
X138775447Y-94732824D01*
X138841765Y-94777136D01*
X138841767Y-94777138D01*
X138841770Y-94777140D01*
X138892612Y-94787253D01*
X138895337Y-94787975D01*
X138900249Y-94788772D01*
X139939750Y-94788772D01*
X139943873Y-94788772D01*
X139951732Y-94786388D01*
X139971381Y-94782480D01*
X139986258Y-94779521D01*
X139992354Y-94778920D01*
X139992386Y-94778911D01*
X140003311Y-94776174D01*
X140013515Y-94766926D01*
X140064552Y-94732824D01*
X140108867Y-94666503D01*
X140108867Y-94666501D01*
X140108868Y-94666501D01*
X140111030Y-94655627D01*
X140111166Y-94655362D01*
X140111249Y-94654528D01*
X140114912Y-94636116D01*
X140120072Y-94610168D01*
X140120500Y-94608203D01*
X140120500Y-91420998D01*
X140120500Y-91418521D01*
X140120499Y-91418519D01*
X141259500Y-91418519D01*
X141259500Y-94608024D01*
X141271131Y-94666501D01*
X141271132Y-94666502D01*
X141271132Y-94666503D01*
X141271134Y-94666505D01*
X141315447Y-94732824D01*
X141381765Y-94777136D01*
X141381767Y-94777138D01*
X141381770Y-94777140D01*
X141432612Y-94787253D01*
X141435337Y-94787975D01*
X141440249Y-94788772D01*
X142479750Y-94788772D01*
X142483873Y-94788772D01*
X142491732Y-94786388D01*
X142511381Y-94782480D01*
X142526258Y-94779521D01*
X142532354Y-94778920D01*
X142532386Y-94778911D01*
X142543311Y-94776174D01*
X142553515Y-94766926D01*
X142604552Y-94732824D01*
X142648867Y-94666503D01*
X142648867Y-94666501D01*
X142648868Y-94666501D01*
X142651030Y-94655627D01*
X142651166Y-94655362D01*
X142651249Y-94654528D01*
X142654912Y-94636116D01*
X142660072Y-94610168D01*
X142660500Y-94608203D01*
X142660500Y-92990691D01*
X142949500Y-92990691D01*
X142949500Y-93109309D01*
X142980201Y-93223886D01*
X143039511Y-93326613D01*
X143123387Y-93410489D01*
X143226114Y-93469799D01*
X143340691Y-93500500D01*
X143340694Y-93500500D01*
X143459306Y-93500500D01*
X143459309Y-93500500D01*
X143573886Y-93469799D01*
X143598065Y-93455838D01*
X143630824Y-93442724D01*
X143644310Y-93439452D01*
X143714100Y-93442773D01*
X143771011Y-93483295D01*
X143772040Y-93484604D01*
X143796308Y-93537755D01*
X143797257Y-93542677D01*
X143799500Y-93566153D01*
X143799500Y-94608024D01*
X143811131Y-94666501D01*
X143811132Y-94666502D01*
X143811132Y-94666503D01*
X143811134Y-94666505D01*
X143855447Y-94732824D01*
X143921765Y-94777136D01*
X143921767Y-94777138D01*
X143921770Y-94777140D01*
X143972612Y-94787253D01*
X143975337Y-94787975D01*
X143980249Y-94788772D01*
X145019750Y-94788772D01*
X145023873Y-94788772D01*
X145031732Y-94786388D01*
X145051381Y-94782480D01*
X145066258Y-94779521D01*
X145072354Y-94778920D01*
X145072386Y-94778911D01*
X145083311Y-94776174D01*
X145093515Y-94766926D01*
X145144552Y-94732824D01*
X145188867Y-94666503D01*
X145188867Y-94666501D01*
X145188868Y-94666501D01*
X145191030Y-94655627D01*
X145191166Y-94655362D01*
X145191249Y-94654528D01*
X145194912Y-94636116D01*
X145200072Y-94610168D01*
X145200500Y-94608203D01*
X145200500Y-91418336D01*
X145200080Y-91416405D01*
X145199066Y-91411310D01*
X145199066Y-91411306D01*
X145199064Y-91411299D01*
X145194910Y-91390418D01*
X146040000Y-91390418D01*
X146040000Y-91390427D01*
X146040000Y-92763272D01*
X146350000Y-92763272D01*
X146350000Y-93263272D01*
X146040000Y-93263272D01*
X146040000Y-94636124D01*
X146046400Y-94695642D01*
X146046402Y-94695649D01*
X146066860Y-94750500D01*
X146096645Y-94830358D01*
X146096649Y-94830365D01*
X146139487Y-94887589D01*
X146182807Y-94945457D01*
X146182809Y-94945459D01*
X146182812Y-94945462D01*
X146297906Y-95031622D01*
X146297913Y-95031626D01*
X146432620Y-95081868D01*
X146432627Y-95081870D01*
X146439468Y-95082605D01*
X146492138Y-95088270D01*
X146492155Y-95088271D01*
X146492172Y-95088272D01*
X146790000Y-95088272D01*
X146790000Y-94600000D01*
X147290000Y-94600000D01*
X147290000Y-95088272D01*
X147587828Y-95088272D01*
X147587836Y-95088272D01*
X147587847Y-95088271D01*
X147623560Y-95084430D01*
X147647372Y-95081870D01*
X147647379Y-95081868D01*
X147782086Y-95031626D01*
X147782093Y-95031622D01*
X147897187Y-94945462D01*
X147897190Y-94945459D01*
X147983350Y-94830365D01*
X147983354Y-94830358D01*
X148033596Y-94695651D01*
X148033598Y-94695644D01*
X148037915Y-94655500D01*
X148039998Y-94636132D01*
X148040000Y-94636099D01*
X148040000Y-94600000D01*
X148400000Y-94600000D01*
X148400000Y-93874038D01*
X151399500Y-93874038D01*
X151399500Y-93878667D01*
X151399500Y-94125966D01*
X151417982Y-94242653D01*
X151417982Y-94242654D01*
X151438910Y-94374786D01*
X151438910Y-94374789D01*
X151500712Y-94564993D01*
X151516760Y-94614383D01*
X151558164Y-94695642D01*
X151586116Y-94750500D01*
X151626808Y-94830363D01*
X151631128Y-94838841D01*
X151631137Y-94838856D01*
X151766267Y-95024847D01*
X151779201Y-95042649D01*
X151779205Y-95042654D01*
X151779210Y-95042660D01*
X151957338Y-95220788D01*
X151957342Y-95220791D01*
X151957345Y-95220794D01*
X151957350Y-95220798D01*
X152065675Y-95299500D01*
X152161155Y-95368870D01*
X152276908Y-95427849D01*
X152379173Y-95479956D01*
X152386488Y-95483684D01*
X152390243Y-95484743D01*
X152551434Y-95537117D01*
X152625215Y-95561090D01*
X152874038Y-95600500D01*
X152874039Y-95600500D01*
X153125961Y-95600500D01*
X153125962Y-95600500D01*
X153241569Y-95582189D01*
X153316245Y-95570362D01*
X153374785Y-95561090D01*
X153374788Y-95561089D01*
X153374791Y-95561087D01*
X153374800Y-95561086D01*
X153375066Y-95560998D01*
X153614379Y-95483241D01*
X153838845Y-95368870D01*
X154042656Y-95220793D01*
X154220793Y-95042656D01*
X154368870Y-94838845D01*
X154483241Y-94614379D01*
X154561090Y-94374785D01*
X154600500Y-94125962D01*
X154600500Y-93874038D01*
X154561090Y-93625215D01*
X154561089Y-93625211D01*
X154561089Y-93625210D01*
X154485851Y-93393652D01*
X154485847Y-93393643D01*
X154483241Y-93385621D01*
X154483239Y-93385618D01*
X154483239Y-93385616D01*
X154481002Y-93381225D01*
X154480688Y-93380421D01*
X154479955Y-93379169D01*
X154430224Y-93281570D01*
X154430223Y-93281569D01*
X154423413Y-93268203D01*
X154368870Y-93161155D01*
X154282776Y-93042656D01*
X154220798Y-92957350D01*
X154220794Y-92957345D01*
X154220791Y-92957342D01*
X154220788Y-92957338D01*
X154042660Y-92779210D01*
X154042655Y-92779206D01*
X154042654Y-92779205D01*
X154042649Y-92779201D01*
X153882397Y-92662772D01*
X153849445Y-92638831D01*
X153849443Y-92638830D01*
X153838848Y-92631132D01*
X153838847Y-92631131D01*
X153838845Y-92631130D01*
X153776767Y-92599500D01*
X153744455Y-92583036D01*
X153614383Y-92516760D01*
X153538761Y-92492189D01*
X153374787Y-92438910D01*
X153286961Y-92425000D01*
X153201884Y-92411525D01*
X153125962Y-92399500D01*
X153125961Y-92399500D01*
X152874039Y-92399500D01*
X152874038Y-92399500D01*
X152798116Y-92411525D01*
X152625212Y-92438910D01*
X152625209Y-92438910D01*
X152385619Y-92516759D01*
X152385616Y-92516760D01*
X152194030Y-92614379D01*
X152161147Y-92631134D01*
X151957367Y-92779188D01*
X151957338Y-92779210D01*
X151779210Y-92957338D01*
X151779188Y-92957367D01*
X151631134Y-93161147D01*
X151516759Y-93385618D01*
X151438910Y-93625210D01*
X151438909Y-93625214D01*
X151426291Y-93704884D01*
X151426255Y-93705111D01*
X151426237Y-93705231D01*
X151399500Y-93874038D01*
X148400000Y-93874038D01*
X148400000Y-91874038D01*
X172399500Y-91874038D01*
X172399500Y-91878664D01*
X172399500Y-92125961D01*
X172414850Y-92222876D01*
X172438910Y-92374786D01*
X172438910Y-92374789D01*
X172502172Y-92569486D01*
X172516760Y-92614383D01*
X172631132Y-92838848D01*
X172779201Y-93042649D01*
X172779205Y-93042654D01*
X172779207Y-93042656D01*
X172779212Y-93042662D01*
X172957338Y-93220788D01*
X172957342Y-93220791D01*
X172957345Y-93220794D01*
X172957350Y-93220798D01*
X173084467Y-93313153D01*
X173161155Y-93368870D01*
X173282021Y-93430454D01*
X173359235Y-93469797D01*
X173379169Y-93479954D01*
X173380763Y-93480887D01*
X173384450Y-93482673D01*
X173386479Y-93483681D01*
X173390245Y-93484744D01*
X173604361Y-93554314D01*
X173625215Y-93561090D01*
X173874038Y-93600500D01*
X173874039Y-93600500D01*
X174125961Y-93600500D01*
X174125962Y-93600500D01*
X174374785Y-93561090D01*
X174614379Y-93483241D01*
X174838845Y-93368870D01*
X175042656Y-93220793D01*
X175220793Y-93042656D01*
X175368870Y-92838845D01*
X175483241Y-92614379D01*
X175561090Y-92374785D01*
X175600500Y-92125962D01*
X175600500Y-91874038D01*
X175561090Y-91625215D01*
X175561089Y-91625211D01*
X175561089Y-91625210D01*
X175485854Y-91393663D01*
X175483241Y-91385621D01*
X175483239Y-91385618D01*
X175483239Y-91385616D01*
X175480998Y-91381218D01*
X175480688Y-91380423D01*
X175479953Y-91379167D01*
X175436415Y-91293719D01*
X175411488Y-91244797D01*
X175368870Y-91161155D01*
X175310693Y-91081081D01*
X175220798Y-90957350D01*
X175220794Y-90957345D01*
X175220791Y-90957342D01*
X175220788Y-90957338D01*
X175042660Y-90779210D01*
X175042655Y-90779206D01*
X175042654Y-90779205D01*
X175042649Y-90779201D01*
X174838848Y-90631132D01*
X174838847Y-90631131D01*
X174838845Y-90631130D01*
X174768747Y-90595413D01*
X174614383Y-90516760D01*
X174530487Y-90489500D01*
X174374787Y-90438910D01*
X174208903Y-90412636D01*
X174125962Y-90399500D01*
X174125961Y-90399500D01*
X173874039Y-90399500D01*
X173874038Y-90399500D01*
X173791096Y-90412636D01*
X173625212Y-90438910D01*
X173625209Y-90438910D01*
X173385619Y-90516759D01*
X173385616Y-90516760D01*
X173231253Y-90595413D01*
X173161147Y-90631134D01*
X172957367Y-90779188D01*
X172957338Y-90779210D01*
X172779210Y-90957338D01*
X172779188Y-90957367D01*
X172631134Y-91161147D01*
X172516759Y-91385618D01*
X172438910Y-91625210D01*
X172438909Y-91625214D01*
X172426194Y-91705500D01*
X172426151Y-91705774D01*
X172399500Y-91874038D01*
X148400000Y-91874038D01*
X148400000Y-91450000D01*
X148040000Y-91450000D01*
X148040000Y-91390444D01*
X148039999Y-91390427D01*
X148039998Y-91390418D01*
X148039998Y-91390410D01*
X148033598Y-91330900D01*
X148033596Y-91330893D01*
X148011821Y-91272510D01*
X147983354Y-91196185D01*
X147983350Y-91196178D01*
X147897190Y-91081084D01*
X147897187Y-91081081D01*
X147897185Y-91081079D01*
X147839317Y-91037759D01*
X147782093Y-90994921D01*
X147782086Y-90994917D01*
X147714732Y-90969796D01*
X147647377Y-90944674D01*
X147647370Y-90944672D01*
X147587852Y-90938272D01*
X147587844Y-90938272D01*
X147290000Y-90938272D01*
X147290000Y-91450000D01*
X146790000Y-91450000D01*
X146790000Y-90938272D01*
X146492146Y-90938272D01*
X146432628Y-90944672D01*
X146432621Y-90944674D01*
X146297910Y-90994918D01*
X146297907Y-90994920D01*
X146182813Y-91081079D01*
X146182812Y-91081081D01*
X146182809Y-91081084D01*
X146125369Y-91157813D01*
X146096648Y-91196179D01*
X146096646Y-91196182D01*
X146046402Y-91330893D01*
X146046400Y-91330900D01*
X146040000Y-91390418D01*
X145194910Y-91390418D01*
X145191250Y-91372019D01*
X145190648Y-91365912D01*
X145188867Y-91360042D01*
X145188867Y-91360041D01*
X145144552Y-91293719D01*
X145108146Y-91269393D01*
X145088385Y-91256189D01*
X145083641Y-91252296D01*
X145078230Y-91249404D01*
X145078229Y-91249403D01*
X145019752Y-91237772D01*
X145019750Y-91237772D01*
X143980249Y-91237772D01*
X143980247Y-91237772D01*
X143921770Y-91249403D01*
X143921769Y-91249403D01*
X143921768Y-91249404D01*
X143921765Y-91249405D01*
X143921759Y-91249410D01*
X143855447Y-91293719D01*
X143811138Y-91360031D01*
X143811133Y-91360037D01*
X143811132Y-91360040D01*
X143811132Y-91360041D01*
X143811131Y-91360042D01*
X143799500Y-91418519D01*
X143799500Y-91418521D01*
X143799500Y-92520938D01*
X143797151Y-92544962D01*
X143795629Y-92552669D01*
X143794595Y-92554650D01*
X143794476Y-92555876D01*
X143793193Y-92560245D01*
X143791880Y-92559859D01*
X143782877Y-92577128D01*
X143773239Y-92602963D01*
X143766957Y-92607664D01*
X143763329Y-92614624D01*
X143739382Y-92628304D01*
X143717303Y-92644830D01*
X143709475Y-92645389D01*
X143702661Y-92649282D01*
X143675119Y-92647843D01*
X143647610Y-92649809D01*
X143641886Y-92648420D01*
X143558384Y-92626047D01*
X143489777Y-92607664D01*
X143459309Y-92599500D01*
X143459308Y-92599500D01*
X143340691Y-92599500D01*
X143249728Y-92623873D01*
X143249723Y-92623874D01*
X143226114Y-92630201D01*
X143226112Y-92630201D01*
X143226112Y-92630202D01*
X143204947Y-92642421D01*
X143204939Y-92642425D01*
X143123386Y-92689511D01*
X143123378Y-92689517D01*
X143039517Y-92773378D01*
X143039513Y-92773383D01*
X143036154Y-92779201D01*
X142980201Y-92876114D01*
X142949500Y-92990691D01*
X142660500Y-92990691D01*
X142660500Y-91418335D01*
X142660069Y-91416353D01*
X142648868Y-91360042D01*
X142645975Y-91354630D01*
X142642081Y-91349885D01*
X142632209Y-91335111D01*
X142604552Y-91293719D01*
X142568146Y-91269393D01*
X142548385Y-91256189D01*
X142543641Y-91252296D01*
X142538230Y-91249404D01*
X142538229Y-91249403D01*
X142479752Y-91237772D01*
X142479750Y-91237772D01*
X141440249Y-91237772D01*
X141440247Y-91237772D01*
X141381770Y-91249403D01*
X141381769Y-91249403D01*
X141381768Y-91249404D01*
X141381765Y-91249405D01*
X141381759Y-91249410D01*
X141315447Y-91293719D01*
X141271138Y-91360031D01*
X141271133Y-91360037D01*
X141271132Y-91360040D01*
X141271132Y-91360041D01*
X141271131Y-91360042D01*
X141259500Y-91418519D01*
X140120499Y-91418519D01*
X140119361Y-91412800D01*
X140119360Y-91412789D01*
X140108868Y-91360042D01*
X140105975Y-91354630D01*
X140102081Y-91349885D01*
X140092209Y-91335111D01*
X140064552Y-91293719D01*
X140028146Y-91269393D01*
X140008385Y-91256189D01*
X140003641Y-91252296D01*
X139998230Y-91249404D01*
X139998229Y-91249403D01*
X139939752Y-91237772D01*
X139939750Y-91237772D01*
X138900249Y-91237772D01*
X138900247Y-91237772D01*
X138841770Y-91249403D01*
X138841769Y-91249403D01*
X138841768Y-91249404D01*
X138836355Y-91252296D01*
X138831614Y-91256188D01*
X138775447Y-91293718D01*
X138775446Y-91293719D01*
X138748272Y-91334386D01*
X138748270Y-91334391D01*
X138731132Y-91360041D01*
X138731131Y-91360042D01*
X138719500Y-91418519D01*
X137880000Y-91418519D01*
X137880000Y-91390444D01*
X137879999Y-91390427D01*
X137879998Y-91390418D01*
X137879998Y-91390410D01*
X137873598Y-91330900D01*
X137873596Y-91330893D01*
X137851821Y-91272510D01*
X137823354Y-91196185D01*
X137823350Y-91196178D01*
X137737190Y-91081084D01*
X137737187Y-91081081D01*
X137737185Y-91081079D01*
X137679317Y-91037759D01*
X137622093Y-90994921D01*
X137622088Y-90994918D01*
X137622089Y-90994918D01*
X137487377Y-90944674D01*
X137487370Y-90944672D01*
X137427852Y-90938272D01*
X137427844Y-90938272D01*
X137130000Y-90938272D01*
X137130000Y-91450000D01*
X136630000Y-91450000D01*
X136630000Y-90938272D01*
X136332146Y-90938272D01*
X136272628Y-90944672D01*
X136272621Y-90944674D01*
X136137910Y-90994918D01*
X136137907Y-90994920D01*
X136022813Y-91081079D01*
X136022812Y-91081081D01*
X136022809Y-91081084D01*
X135965369Y-91157813D01*
X135936648Y-91196179D01*
X135936646Y-91196182D01*
X135886402Y-91330893D01*
X135886400Y-91330900D01*
X135880000Y-91390418D01*
X135880000Y-91390427D01*
X135880000Y-91450000D01*
X135340000Y-91450000D01*
X135340000Y-91390444D01*
X135339999Y-91390427D01*
X135339998Y-91390418D01*
X135339998Y-91390410D01*
X135333598Y-91330900D01*
X135333596Y-91330893D01*
X135311821Y-91272510D01*
X135283354Y-91196185D01*
X135283350Y-91196178D01*
X135197190Y-91081084D01*
X135197187Y-91081081D01*
X135197185Y-91081079D01*
X135139317Y-91037759D01*
X135082093Y-90994921D01*
X135082088Y-90994918D01*
X135082089Y-90994918D01*
X134947377Y-90944674D01*
X134947370Y-90944672D01*
X134887852Y-90938272D01*
X134887844Y-90938272D01*
X134590000Y-90938272D01*
X134590000Y-91450000D01*
X134090000Y-91450000D01*
X134090000Y-90938272D01*
X133792146Y-90938272D01*
X133732628Y-90944672D01*
X133732621Y-90944674D01*
X133597910Y-90994918D01*
X133597907Y-90994920D01*
X133482813Y-91081079D01*
X133482812Y-91081081D01*
X133482809Y-91081084D01*
X133425369Y-91157813D01*
X133396648Y-91196179D01*
X133396646Y-91196182D01*
X133346402Y-91330893D01*
X133346400Y-91330900D01*
X133340000Y-91390418D01*
X133340000Y-91390427D01*
X133340000Y-91450000D01*
X132800000Y-91450000D01*
X132800000Y-91390444D01*
X132799999Y-91390427D01*
X132799998Y-91390418D01*
X132799998Y-91390410D01*
X132793598Y-91330900D01*
X132793596Y-91330893D01*
X132771821Y-91272510D01*
X132743354Y-91196185D01*
X132743350Y-91196178D01*
X132657190Y-91081084D01*
X132657187Y-91081081D01*
X132657185Y-91081079D01*
X132599317Y-91037759D01*
X132542093Y-90994921D01*
X132542088Y-90994918D01*
X132542089Y-90994918D01*
X132407377Y-90944674D01*
X132407370Y-90944672D01*
X132347852Y-90938272D01*
X132347844Y-90938272D01*
X132050000Y-90938272D01*
X132050000Y-91450000D01*
X131550000Y-91450000D01*
X131550000Y-90938272D01*
X131252146Y-90938272D01*
X131192628Y-90944672D01*
X131192621Y-90944674D01*
X131057910Y-90994918D01*
X131057907Y-90994920D01*
X130942813Y-91081079D01*
X130942812Y-91081081D01*
X130942809Y-91081084D01*
X130885369Y-91157813D01*
X130856648Y-91196179D01*
X130856646Y-91196182D01*
X130806402Y-91330893D01*
X130806400Y-91330900D01*
X130800000Y-91390418D01*
X130800000Y-91390427D01*
X130800000Y-91450000D01*
X130260000Y-91450000D01*
X130260000Y-91390444D01*
X130259999Y-91390427D01*
X130259998Y-91390418D01*
X130259998Y-91390410D01*
X130253598Y-91330900D01*
X130253596Y-91330893D01*
X130231821Y-91272510D01*
X130203354Y-91196185D01*
X130203350Y-91196178D01*
X130117190Y-91081084D01*
X130117187Y-91081081D01*
X130117185Y-91081079D01*
X130059317Y-91037759D01*
X130002093Y-90994921D01*
X130002088Y-90994918D01*
X130002089Y-90994918D01*
X129867377Y-90944674D01*
X129867370Y-90944672D01*
X129807852Y-90938272D01*
X129807844Y-90938272D01*
X129510000Y-90938272D01*
X129510000Y-91450000D01*
X129010000Y-91450000D01*
X129010000Y-90938272D01*
X128712146Y-90938272D01*
X128652628Y-90944672D01*
X128652621Y-90944674D01*
X128517910Y-90994918D01*
X128517907Y-90994920D01*
X128402813Y-91081079D01*
X128402812Y-91081081D01*
X128402809Y-91081084D01*
X128345369Y-91157813D01*
X128316648Y-91196179D01*
X128316646Y-91196182D01*
X128266402Y-91330893D01*
X128266400Y-91330900D01*
X128260000Y-91390418D01*
X127543350Y-91390418D01*
X127542016Y-91387915D01*
X127496261Y-91335111D01*
X127496255Y-91335104D01*
X127478673Y-91317160D01*
X127478672Y-91317159D01*
X127478670Y-91317157D01*
X127478668Y-91317156D01*
X127478666Y-91317154D01*
X127398856Y-91272511D01*
X127398851Y-91272509D01*
X127331813Y-91252824D01*
X127275988Y-91244797D01*
X127269451Y-91243678D01*
X127239755Y-91237772D01*
X127239752Y-91237772D01*
X127239748Y-91237772D01*
X126200252Y-91237772D01*
X126200247Y-91237772D01*
X126178397Y-91242118D01*
X126154208Y-91244500D01*
X124745791Y-91244500D01*
X124721602Y-91242118D01*
X124699752Y-91237772D01*
X124699751Y-91237772D01*
X123660248Y-91237772D01*
X123660247Y-91237772D01*
X123638397Y-91242118D01*
X123614208Y-91244500D01*
X122205791Y-91244500D01*
X122181602Y-91242118D01*
X122159752Y-91237772D01*
X122159751Y-91237772D01*
X121120248Y-91237772D01*
X121120247Y-91237772D01*
X121098397Y-91242118D01*
X121074208Y-91244500D01*
X119665791Y-91244500D01*
X119641602Y-91242118D01*
X119619752Y-91237772D01*
X119619751Y-91237772D01*
X118580249Y-91237772D01*
X118580247Y-91237772D01*
X118521770Y-91249403D01*
X118521769Y-91249403D01*
X118521768Y-91249404D01*
X118521767Y-91249404D01*
X118521762Y-91249408D01*
X118455447Y-91293719D01*
X118411134Y-91360037D01*
X118411132Y-91360040D01*
X118411131Y-91360042D01*
X118408749Y-91372019D01*
X118407705Y-91377265D01*
X118406066Y-91381825D01*
X118405387Y-91386889D01*
X118401700Y-91399894D01*
X118372553Y-91454105D01*
X118353988Y-91521463D01*
X118346630Y-91579491D01*
X117560000Y-91579491D01*
X117560000Y-91390444D01*
X117559999Y-91390427D01*
X117559998Y-91390418D01*
X117559998Y-91390410D01*
X117553598Y-91330900D01*
X117553596Y-91330893D01*
X117531821Y-91272510D01*
X117503354Y-91196185D01*
X117503350Y-91196178D01*
X117417190Y-91081084D01*
X117417187Y-91081081D01*
X117417185Y-91081079D01*
X117359317Y-91037759D01*
X117302093Y-90994921D01*
X117302088Y-90994918D01*
X117302089Y-90994918D01*
X117167377Y-90944674D01*
X117167370Y-90944672D01*
X117107852Y-90938272D01*
X117107844Y-90938272D01*
X116810000Y-90938272D01*
X116810000Y-91300000D01*
X116310000Y-91300000D01*
X116310000Y-90938272D01*
X116012146Y-90938272D01*
X115952628Y-90944672D01*
X115952621Y-90944674D01*
X115817910Y-90994918D01*
X115817907Y-90994920D01*
X115702813Y-91081079D01*
X115702812Y-91081081D01*
X115702809Y-91081084D01*
X115645369Y-91157813D01*
X115616648Y-91196179D01*
X115616646Y-91196182D01*
X115577924Y-91300000D01*
X115250000Y-91300000D01*
X114668749Y-91300000D01*
X114664552Y-91293719D01*
X114628146Y-91269393D01*
X114608385Y-91256189D01*
X114603641Y-91252296D01*
X114598230Y-91249404D01*
X114598229Y-91249403D01*
X114539752Y-91237772D01*
X114539750Y-91237772D01*
X113500248Y-91237772D01*
X113500247Y-91237772D01*
X113478397Y-91242118D01*
X113454208Y-91244500D01*
X112045791Y-91244500D01*
X112021602Y-91242118D01*
X111999752Y-91237772D01*
X111999751Y-91237772D01*
X110960249Y-91237772D01*
X110960247Y-91237772D01*
X110901770Y-91249403D01*
X110901769Y-91249403D01*
X110901768Y-91249404D01*
X110896355Y-91252296D01*
X110891614Y-91256188D01*
X110835447Y-91293718D01*
X110835446Y-91293719D01*
X110808272Y-91334386D01*
X110808270Y-91334391D01*
X110791132Y-91360041D01*
X110791131Y-91360042D01*
X110779500Y-91418519D01*
X109940000Y-91418519D01*
X109940000Y-91390444D01*
X109939999Y-91390427D01*
X109939998Y-91390418D01*
X109939998Y-91390410D01*
X109933598Y-91330900D01*
X109933596Y-91330893D01*
X109911821Y-91272510D01*
X109883354Y-91196185D01*
X109883350Y-91196178D01*
X109797190Y-91081084D01*
X109797187Y-91081081D01*
X109797185Y-91081079D01*
X109739317Y-91037759D01*
X109682093Y-90994921D01*
X109682088Y-90994918D01*
X109682089Y-90994918D01*
X109547377Y-90944674D01*
X109547370Y-90944672D01*
X109487852Y-90938272D01*
X109487844Y-90938272D01*
X109190000Y-90938272D01*
X109190000Y-91450000D01*
X108690000Y-91450000D01*
X108690000Y-90938272D01*
X108392146Y-90938272D01*
X108332628Y-90944672D01*
X108332621Y-90944674D01*
X108197910Y-90994918D01*
X108197907Y-90994920D01*
X108082813Y-91081079D01*
X108082812Y-91081081D01*
X108082809Y-91081084D01*
X108025369Y-91157813D01*
X107996648Y-91196179D01*
X107996646Y-91196182D01*
X107946402Y-91330893D01*
X107946400Y-91330900D01*
X107940000Y-91390418D01*
X78500500Y-91390418D01*
X78500500Y-88642329D01*
X78505523Y-88607393D01*
X78509927Y-88592395D01*
X78547672Y-88533644D01*
X78547700Y-88533619D01*
X78547699Y-88533619D01*
X78549041Y-88532456D01*
X78603920Y-88504977D01*
X78611479Y-88503333D01*
X78637832Y-88500500D01*
X86458170Y-88500500D01*
X86493106Y-88505523D01*
G37*
%TD.AperFunction*%
%TD*%
%TA.AperFunction,Conductor*%
%TO.N,GND*%
G36*
X137400000Y-94600000D02*
G01*
X128700000Y-94600000D01*
X128700000Y-91450000D01*
X137400000Y-91450000D01*
X137400000Y-94600000D01*
G37*
%TD.AperFunction*%
%TD*%
%TA.AperFunction,Conductor*%
%TO.N,GND*%
G36*
X110293039Y-91469685D02*
G01*
X110338794Y-91522489D01*
X110350000Y-91574000D01*
X110350000Y-94476000D01*
X110330315Y-94543039D01*
X110277511Y-94588794D01*
X110226000Y-94600000D01*
X108424000Y-94600000D01*
X108356961Y-94580315D01*
X108311206Y-94527511D01*
X108300000Y-94476000D01*
X108300000Y-91574000D01*
X108319685Y-91506961D01*
X108372489Y-91461206D01*
X108424000Y-91450000D01*
X110226000Y-91450000D01*
X110293039Y-91469685D01*
G37*
%TD.AperFunction*%
%TD*%
%TA.AperFunction,Conductor*%
%TO.N,GND*%
G36*
X148400000Y-94600000D02*
G01*
X146350000Y-94600000D01*
X146350000Y-91450000D01*
X148400000Y-91450000D01*
X148400000Y-94600000D01*
G37*
%TD.AperFunction*%
%TD*%
%TA.AperFunction,Conductor*%
%TO.N,+5V*%
G36*
X114443039Y-91469685D02*
G01*
X114488794Y-91522489D01*
X114500000Y-91574000D01*
X114500000Y-94476000D01*
X114480315Y-94543039D01*
X114427511Y-94588794D01*
X114376000Y-94600000D01*
X111124000Y-94600000D01*
X111056961Y-94580315D01*
X111011206Y-94527511D01*
X111000000Y-94476000D01*
X111000000Y-91574000D01*
X111019685Y-91506961D01*
X111072489Y-91461206D01*
X111124000Y-91450000D01*
X114376000Y-91450000D01*
X114443039Y-91469685D01*
G37*
%TD.AperFunction*%
%TD*%
%TA.AperFunction,Conductor*%
%TO.N,BRD_VIN*%
G36*
X127340955Y-91469685D02*
G01*
X127386710Y-91522489D01*
X127397899Y-91576066D01*
X127352032Y-94328066D01*
X127331233Y-94394769D01*
X127277674Y-94439637D01*
X127228049Y-94450000D01*
X118721951Y-94450000D01*
X118654912Y-94430315D01*
X118609157Y-94377511D01*
X118597968Y-94328066D01*
X118552101Y-91576066D01*
X118570666Y-91508708D01*
X118622700Y-91462080D01*
X118676084Y-91450000D01*
X127273916Y-91450000D01*
X127340955Y-91469685D01*
G37*
%TD.AperFunction*%
%TD*%
M02*
